<svg width="121" height="19" viewBox="0 0 121 19" fill="none" xmlns="http://www.w3.org/2000/svg">
<g clip-path="url(#clip0_1789_700)">
<path d="M4.59747 5.14868C4.50863 4.78417 4.53084 4.41966 4.57526 4.21463C4.68631 3.64508 5.06388 3.02998 6.15217 3.02998C7.17383 3.02998 7.75129 3.66787 7.75129 4.64748C7.75129 4.96643 7.75129 5.74101 7.75129 5.74101H12.06V4.48801C12.0822 0.615108 8.6841 0 6.24101 0C3.17603 0 0.6663 1.04796 0.19989 3.94125C0.0666299 4.73861 0.04442 5.44484 0.24431 6.33333C0.999449 9.95564 7.15162 11.0036 8.04002 13.3046C8.2177 13.7374 8.15106 14.2842 8.08444 14.6259C7.95118 15.2182 7.55139 15.8333 6.39648 15.8333C5.30819 15.8333 4.6641 15.1954 4.6641 14.2158V12.5072H0V13.8741C0 17.8381 3.04277 19.0228 6.28543 19.0228C9.41703 19.0228 11.9712 17.9293 12.3932 14.9676C12.5931 13.4412 12.4376 12.4388 12.371 12.0743C11.6602 8.31535 5.08609 7.22182 4.59747 5.14868ZM60.8554 5.17146C60.7887 4.82974 60.8109 4.44245 60.8331 4.26019C60.9664 3.69065 61.3218 3.07554 62.4101 3.07554C63.4095 3.07554 63.987 3.71343 63.987 4.67026C63.987 4.98921 63.987 5.76379 63.987 5.76379H68.2513V4.53357C68.2513 0.706235 64.9198 0.113909 62.4989 0.113909C59.4561 0.113909 56.9686 1.13909 56.5022 4.00959C56.3912 4.78417 56.3467 5.49041 56.5466 6.3789C57.2796 9.95564 63.3651 11.0036 64.2535 13.2818C64.409 13.7146 64.3645 14.2614 64.2757 14.5803C64.1424 15.1727 63.7649 15.765 62.6099 15.765C61.5439 15.765 60.8776 15.1271 60.8776 14.1703V12.4616H56.2801V13.8058C56.2801 17.7242 59.2785 18.9089 62.4989 18.9089C65.5861 18.9089 68.1402 17.8153 68.54 14.8993C68.7399 13.3729 68.5844 12.3933 68.5178 12.0288C67.8293 8.33813 61.344 7.2446 60.8554 5.17146ZM100.123 14.8537L96.0582 0.569544H89.6395V18.1343H93.8816L93.6373 3.39448L98.0127 18.1343H104.165V0.569544H99.9005L100.123 14.8537ZM18.5231 0.569544L15.3027 18.3165H19.9668L22.3877 1.89089L24.7419 18.3165H29.3838L26.2078 0.569544H18.5231ZM44.6421 0.569544L42.4655 14.4436L40.2889 0.569544H33.2261L32.8486 18.3165H37.1795L37.2906 1.89089L40.2667 18.3165H44.6421L47.6182 1.89089L47.7293 18.3165H52.0602L51.6826 0.569544H44.6421ZM84.8421 0.569544H80.4668V13.6918C80.4668 13.9197 80.4668 14.1703 80.4224 14.3753C80.3335 14.8082 79.9782 15.6739 78.7566 15.6739C77.5573 15.6739 77.2019 14.8309 77.1131 14.3753C77.0686 14.193 77.0686 13.9197 77.0686 13.6918V0.569544H72.6933V13.2818C72.6933 13.6007 72.7155 14.2842 72.7377 14.4436C73.0486 17.747 75.5806 18.8405 78.7566 18.8405C81.9326 18.8405 84.4868 17.7698 84.7977 14.4436C84.8199 14.2614 84.8644 13.6007 84.8421 13.2818V0.569544ZM114.87 8.33813V10.9353H116.647V13.5096C116.647 13.7374 116.647 13.988 116.602 14.193C116.536 14.6715 116.092 15.4916 114.826 15.4916C113.582 15.4916 113.138 14.6715 113.071 14.193C113.049 13.988 113.027 13.7374 113.027 13.5096V5.39928C113.027 5.10312 113.049 4.80695 113.115 4.55635C113.204 4.1235 113.582 3.28058 114.826 3.28058C116.158 3.28058 116.469 4.16906 116.558 4.55635C116.602 4.80695 116.602 5.23981 116.602 5.23981V6.21942H120.956V5.6271C120.956 5.6271 120.978 5.01199 120.933 4.44245C120.6 1.13909 117.913 0.0911271 114.848 0.0911271C111.783 0.0911271 109.162 1.16187 108.785 4.46523C108.74 4.76139 108.696 5.30815 108.696 5.64988V13.0995C108.696 13.4185 108.696 13.6691 108.762 14.2614C109.051 17.4964 111.783 18.6355 114.848 18.6355C117.935 18.6355 120.645 17.4964 120.933 14.2614C120.978 13.6691 121 13.4185 121 13.0995V8.33813H114.87Z" fill="white" fill-opacity="0.6"/>
</g>
<defs>
<clipPath id="clip0_1789_700">
<rect width="121" height="19" fill="white"/>
</clipPath>
</defs>
</svg>
