<svg width="127" height="23" viewBox="0 0 127 23" fill="none" xmlns="http://www.w3.org/2000/svg">
<g clip-path="url(#clip0_1789_731)">
<path d="M23.033 1.05574L22.3214 2.11148C27.0029 4.03443 28.8756 7.57869 28.8756 11.3115C28.8756 13.1967 28.3887 14.8934 27.3775 14.8934H15.1681C13.4827 14.8934 12.9959 14.2902 13.7449 12.782C15.0932 10.1803 19.1006 5.09016 21.5724 1.99836C21.9469 1.5459 22.2465 0.829508 20.9357 0.490164C19.6249 0.15082 17.4527 0 15.655 0C6.44176 0 0 5.01475 0 11.5C0 17.4574 5.58036 23 15.6175 23C20.0743 23 25.5049 21.7557 28.5759 18.2115H25.9168C22.9207 20.9639 18.9882 21.5672 15.6175 21.5672C7.52787 21.5672 2.39693 17.3443 2.39693 11.5C2.39693 6.1082 8.20201 1.24426 15.5426 1.24426C16.404 1.24426 16.7036 1.43279 15.7673 2.60164C13.8947 4.93934 10.5615 9.57705 8.9885 12.2918C7.30315 15.1951 9.02595 17.5705 12.8086 17.5705H28.1265C29.0628 17.5705 29.6246 17.0426 30.1489 16.0246C30.5983 15.2328 31.2725 13.6492 31.2725 11.4623C31.3099 7.08852 28.0516 3.0541 23.033 1.05574Z" fill="white" fill-opacity="0.6"/>
<path d="M123.105 10.6328H112.693C113.03 9.3131 114.079 8.37048 115.989 8.37048H125.951V6.10818H115.39C109.36 6.10818 107.937 10.4065 107.937 12.8574H120.82C122.581 12.8574 122.581 15.2705 120.895 15.2705C119.135 15.2705 106.664 15.2705 106.664 15.2705V6.14589H102.394V15.3082H95.2781C93.368 15.3082 92.5815 14.4033 92.5815 12.9705C92.5815 11.2738 92.5815 6.14589 92.5815 6.14589H85.7278L79.5857 10.0295L74.3049 6.14589H59.0619C54.6426 6.14589 51.5341 8.74753 51.1595 11.9902H54.0059C52.8449 12.7442 51.9835 13.9885 51.4592 15.3459H42.4332C40.7479 15.3459 39.9239 14.441 39.9239 12.782V6.14589H35.6169V11.7639C35.6169 15.3459 37.5644 17.5705 41.9089 17.5705H71.9454L78.125 13.6492L83.4432 17.5705H89.7726L81.5332 11.5L88.2371 7.23933V13.6869C88.2371 15.6852 90.8213 17.5705 93.1433 17.5705H123.142C128.348 17.5705 128.311 10.6328 123.105 10.6328ZM71.159 15.3082H56.5901C56.7399 14.0639 57.3766 12.8574 59.3615 12.8574H68.3875V10.6328H56.3654C56.5901 9.69015 57.5264 8.40818 59.6612 8.40818H69.2114V7.16392L76.0652 12.2164L71.159 15.3082Z" fill="white" fill-opacity="0.6"/>
</g>
<defs>
<clipPath id="clip0_1789_731">
<rect width="127" height="23" fill="white"/>
</clipPath>
</defs>
</svg>
