<svg width="84" height="84" viewBox="0 0 84 84" fill="none" xmlns="http://www.w3.org/2000/svg">
<g clip-path="url(#clip0_1789_684)">
<path d="M75.2446 8.77669C67.3198 0.882329 55.9248 0 42 0C28.0576 0 16.6455 0.8925 8.72386 8.80819C0.803413 16.7206 0 28.1144 0 42.0409C0 55.9696 0.803414 67.3669 8.72714 75.282C16.6482 83.1989 28.0591 84.0002 42 84.0002C55.941 84.0002 67.35 83.1989 75.271 75.282C83.1943 67.3654 84 55.9696 84 42.0409C84 28.0965 83.1856 16.6904 75.2446 8.77669Z" fill="white" fill-opacity="0.6"/>
<path d="M66.3721 26.0211C66.6607 26.0211 66.9009 26.2536 66.9009 26.5397V57.6109C66.9009 57.8922 66.6607 58.1259 66.3721 58.1259H59.5642C59.272 58.1259 59.0346 57.8922 59.0346 57.6109V26.5397C59.0346 26.2538 59.2718 26.0211 59.5642 26.0211H66.3721ZM36.8281 26.0211C41.9637 26.0211 47.3335 26.2566 49.982 28.9068C52.5858 31.5149 52.8678 36.7078 52.8787 41.7506V57.6107C52.8787 57.8921 52.6414 58.1257 52.3505 58.1257H45.5436C45.2521 58.1257 45.0138 57.8921 45.0138 57.6107V41.4778C45.0066 38.6613 44.8447 35.7668 43.3922 34.3096C42.1421 33.056 39.8093 32.7689 37.3834 32.7093H25.0443C24.7549 32.7093 24.518 32.9421 24.518 33.2238V57.6109C24.518 57.8922 24.2781 58.1259 23.9869 58.1259H17.1757C16.8847 58.1259 16.6505 57.8922 16.6505 57.6109V26.5397C16.6505 26.2538 16.8845 26.0211 17.1757 26.0211H36.8281ZM38.3517 38.3959C38.6415 38.3959 38.8769 38.6277 38.8769 38.9115V57.6109C38.8769 57.8922 38.6413 58.1259 38.3517 58.1259H31.2012C30.9072 58.1259 30.6717 57.8922 30.6717 57.6109V38.9115C30.6717 38.6277 30.9072 38.3959 31.2012 38.3959H38.3517Z" fill="#323232"/>
</g>
<defs>
<clipPath id="clip0_1789_684">
<rect width="84" height="84" fill="white"/>
</clipPath>
</defs>
</svg>
