<svg width="116" height="26" viewBox="0 0 116 26" fill="none" xmlns="http://www.w3.org/2000/svg">
<g clip-path="url(#clip0_1789_704)">
<path d="M0 0.895111H4.5148V7.40283H0V0.895111Z" fill="white" fill-opacity="0.6"/>
<path d="M15.1813 0.895111V10.6434L0 10.6168V25.7022H4.5148V14.9584H15.1813V25.7022H19.6961V0.895111H15.1813Z" fill="white" fill-opacity="0.6"/>
<path d="M52.7249 21.3872H38.5888C37.5184 21.3905 36.4604 21.1649 35.4895 20.7264C34.5411 20.2899 33.6954 19.668 33.005 18.8993C32.2919 18.0941 31.7405 17.1657 31.3795 16.1625C30.9865 15.0732 30.7896 13.9261 30.7975 12.7717C30.7907 11.6817 30.9969 10.6003 31.4051 9.58523C31.7884 8.62509 32.3545 7.74401 33.0738 6.98832C33.78 6.2559 34.6263 5.66469 35.5654 5.24789C36.5418 4.8194 37.6023 4.6027 38.6734 4.61283C39.7615 4.60206 40.8393 4.81923 41.8335 5.24961C42.7779 5.66309 43.6291 6.25396 44.3383 6.98832C45.0558 7.7434 45.6154 8.62719 45.9858 9.59038C46.3869 10.627 46.5884 11.7267 46.5803 12.8344C46.5883 13.9883 46.391 15.1349 45.9973 16.2234C45.7448 16.9125 45.4031 17.5674 44.9804 18.1724H50.087C50.4513 17.4073 50.7338 16.6079 50.9301 15.7866C51.1708 14.7749 51.2921 13.7398 51.2917 12.7014C51.3085 11.0649 50.9925 9.44142 50.3617 7.92436C49.731 6.40729 48.798 5.02663 47.6166 3.8619C46.4792 2.75011 45.1315 1.86301 43.6477 1.24954C42.1053 0.61221 40.4452 0.288616 38.7696 0.298659C37.0502 0.284984 35.3461 0.613233 33.7617 1.26327C32.2516 1.89094 30.8842 2.8033 29.7382 3.94772C28.582 5.1133 27.6701 6.48681 27.0535 7.99156C26.3987 9.59522 26.0693 11.3071 26.0833 13.0326C26.0661 14.7747 26.4077 16.5025 27.0879 18.114C27.7209 19.6119 28.6498 20.9745 29.822 22.1244C31.0047 23.2657 32.4069 24.1691 33.9485 24.783C35.4901 25.3969 37.1409 25.7093 38.8066 25.7022H52.8643V21.3872H52.7249Z" fill="white" fill-opacity="0.6"/>
<path d="M70.509 11.1351L68.618 17.6343L63.9603 0.596436H59.2533L66.4254 25.4035H70.8053L74.955 11.1351H70.509Z" fill="white" fill-opacity="0.6"/>
<path d="M87.8291 0.596436L83.1705 17.6343L78.2156 0.596436H73.5747L71.4438 7.92116H75.8899L75.8969 7.89714L81.0185 25.4035H85.3975L92.5352 0.596436H87.8291Z" fill="white" fill-opacity="0.6"/>
<path d="M107.24 26.0034C105.702 26.0094 104.177 25.7225 102.752 25.159C101.344 24.6148 100.132 23.6787 99.2673 22.4677L98.9242 21.9854L102.562 18.8177L102.995 19.4751C103.45 20.1963 104.109 20.7744 104.893 21.14C105.656 21.4988 106.491 21.6865 107.338 21.6893C107.815 21.6857 108.288 21.6119 108.742 21.4704C109.204 21.3311 109.638 21.1144 110.024 20.8302C110.398 20.5511 110.71 20.2007 110.941 19.8004C111.175 19.383 111.291 18.9128 111.278 18.4376C111.302 18.1479 111.259 17.8566 111.153 17.5852C111.046 17.3139 110.878 17.0693 110.661 16.8696C110.089 16.4089 109.442 16.0443 108.747 15.7909L106.041 14.8795C105.008 14.572 104.024 14.1272 103.116 13.5578C102.171 12.9538 101.377 12.1519 100.791 11.2107C100.103 9.99478 99.7729 8.6172 99.8388 7.23033C99.8519 6.40196 100.016 5.58246 100.325 4.81021C100.666 3.93108 101.191 3.13039 101.866 2.45875C102.627 1.71313 103.527 1.11723 104.519 0.703728C105.744 0.208944 107.062 -0.0307749 108.388 5.18654e-06C109.691 -0.00435818 110.987 0.184614 112.231 0.560409C113.583 0.997687 114.763 1.82807 115.614 2.93934L116 3.41735L112.38 6.74888L111.939 6.0546C111.593 5.52002 111.105 5.08622 110.527 4.79906C109.868 4.46757 109.134 4.30094 108.391 4.31417C107.738 4.29349 107.086 4.39457 106.471 4.61197C106.037 4.77357 105.644 5.02377 105.318 5.34573C105.054 5.61096 104.853 5.92904 104.728 6.27773C104.619 6.58432 104.559 6.90577 104.552 7.23033C104.524 7.55851 104.567 7.88868 104.678 8.19994C104.788 8.51121 104.964 8.79677 105.193 9.03856C105.745 9.53742 106.39 9.92996 107.092 10.1954C107.967 10.5356 108.861 10.8259 109.771 11.0648C110.791 11.3337 111.771 11.7291 112.687 12.2414C113.619 12.7711 114.416 13.4965 115.023 14.3645C115.722 15.4779 116.06 16.7705 115.993 18.0737C116.007 19.2193 115.767 20.3544 115.287 21.4009C114.847 22.3581 114.202 23.2134 113.396 23.9103C112.581 24.6011 111.635 25.1297 110.611 25.4662C109.526 25.8271 108.387 26.0087 107.24 26.0034Z" fill="white" fill-opacity="0.6"/>
</g>
<defs>
<clipPath id="clip0_1789_704">
<rect width="116" height="26" fill="white"/>
</clipPath>
</defs>
</svg>
