<svg width="127" height="17" viewBox="0 0 127 17" fill="none" xmlns="http://www.w3.org/2000/svg">
<g clip-path="url(#clip0_1789_752)">
<mask id="mask0_1789_752" style="mask-type:luminance" maskUnits="userSpaceOnUse" x="0" y="0" width="127" height="17">
<path d="M127 0H0V17H127V0Z" fill="white"/>
</mask>
<g mask="url(#mask0_1789_752)">
<path d="M48.7774 2.39807V7.04593H43.3608V2.39807H40.3768V14.5976H43.3608V9.69249H48.7774V14.5976H51.7614V2.39807H51.6092H48.7774Z" fill="white" fill-opacity="0.6"/>
<path d="M62.7025 2.39807L59.5796 7.22905L56.4615 2.39807H52.9398L58.0922 10.3727V14.5976H61.0715V10.3727L66.2239 2.39807H65.9507H62.7025Z" fill="white" fill-opacity="0.6"/>
<path d="M75.8256 2.39807V11.3363C75.8267 11.4175 75.811 11.4981 75.7792 11.5733C75.7478 11.6485 75.7008 11.7167 75.6414 11.7737C75.5819 11.8307 75.5112 11.8755 75.4334 11.9052C75.3556 11.9349 75.2727 11.949 75.1891 11.9467H70.4086V2.39807H67.4247V14.6063H76.242C76.5853 14.6332 76.9302 14.5873 77.2535 14.4718C77.5767 14.3563 77.8701 14.1738 78.1139 13.9371C78.3576 13.7004 78.5455 13.4151 78.6648 13.1008C78.784 12.7865 78.8318 12.4507 78.8049 12.1167V2.39807H75.8256Z" fill="white" fill-opacity="0.6"/>
<path d="M90.3911 2.39805H81.5692V14.6063H84.5531V5.04027H89.3428C89.4254 5.0391 89.5078 5.05406 89.5847 5.08427C89.6617 5.11448 89.7315 5.15932 89.7904 5.21618C89.8493 5.27306 89.896 5.34075 89.9274 5.41538C89.9589 5.48999 89.9749 5.56997 89.9743 5.65068V14.5976H92.9537V4.89638C92.9711 4.56338 92.9191 4.23043 92.8015 3.91732C92.6837 3.60422 92.5023 3.31736 92.2683 3.07387C92.0183 2.84401 91.7231 2.66565 91.4005 2.54952C91.0778 2.43339 90.7346 2.38186 90.3911 2.39805Z" fill="white" fill-opacity="0.6"/>
<path d="M104.54 2.39804H95.7183V14.6063H104.54C104.882 14.63 105.226 14.5815 105.547 14.464C105.868 14.3464 106.159 14.1627 106.4 13.9254C106.642 13.6881 106.827 13.4028 106.945 13.0891C107.062 12.7754 107.109 12.4407 107.08 12.108V4.89638C107.104 4.56062 107.056 4.22379 106.94 3.90662C106.825 3.58944 106.644 3.29863 106.408 3.05205C106.158 2.82656 105.864 2.65242 105.542 2.54006C105.222 2.42769 104.881 2.37939 104.54 2.39804ZM104.119 5.6681V11.3362C104.12 11.4167 104.105 11.4967 104.074 11.5715C104.043 11.6463 103.998 11.7144 103.94 11.772C103.882 11.8295 103.813 11.8754 103.737 11.9068C103.661 11.9383 103.579 11.9548 103.496 11.9554H98.6976V5.04027H103.465C103.551 5.03595 103.637 5.04918 103.718 5.07911C103.799 5.10902 103.872 5.15497 103.934 5.21403C103.995 5.27308 104.044 5.34395 104.075 5.42212C104.107 5.5003 104.122 5.58407 104.119 5.6681Z" fill="white" fill-opacity="0.6"/>
<path d="M112.3 2.39803C111.957 2.38118 111.614 2.4324 111.292 2.54858C110.97 2.66477 110.676 2.84347 110.427 3.07384C110.191 3.31613 110.008 3.60268 109.89 3.91601C109.771 4.22933 109.719 4.5629 109.737 4.89638V14.5976H112.712V10.8261H118.133V14.5976H121.113V2.39803H112.3ZM118.124 5.04023V8.18387H112.703V5.66809C112.702 5.58496 112.718 5.50241 112.75 5.42541C112.783 5.34841 112.83 5.27854 112.891 5.21993C112.952 5.16135 113.024 5.11523 113.103 5.08435C113.182 5.05347 113.267 5.03848 113.353 5.04023H118.124Z" fill="white" fill-opacity="0.6"/>
<path d="M127.005 2.39807H124.021V14.5976H127.005V2.39807Z" fill="white" fill-opacity="0.6"/>
<path d="M17.0567 17.0043C26.4654 17.0043 34.1089 13.198 34.1089 8.50217C34.1089 3.80636 26.4744 0 17.0567 0C7.63899 0 0 3.80636 0 8.49783C0 13.1893 7.6166 17.0043 17.0567 17.0043ZM20.2646 12.8317C19.9824 13.4683 19.494 14.8243 18.3694 15.3868C18.0124 15.5474 17.6247 15.6336 17.2314 15.6396C17.1508 15.6396 17.0881 15.6396 17.0612 15.6396C14.1812 15.6609 11.3134 15.2732 8.5485 14.4886L8.44993 14.4537C8.22591 14.3796 8.10944 14.2793 8.10944 14.1529C8.11233 14.1009 8.12611 14.0502 8.15003 14.0037C8.17391 13.9571 8.20738 13.9159 8.24834 13.8825L8.40514 13.7517C8.96071 13.2896 10.6588 12.0862 13.8891 10.9002C15.1973 10.3829 16.5456 9.96743 17.9214 9.65762C18.7503 9.47011 21.9537 8.99052 20.2646 12.8274V12.8317ZM28.8848 4.25981C28.91 4.20488 28.9497 4.15761 29.0003 4.12303C29.0507 4.08847 29.1099 4.06793 29.1717 4.06361C29.2992 4.06133 29.4242 4.10129 29.5255 4.17696C31.5283 5.37599 32.7157 6.87151 32.7157 8.49345C32.7157 11.4278 28.8444 13.9436 23.3068 15.0336C22.9528 15.1034 22.7154 15.099 22.6347 15.0336C22.5541 14.9682 22.563 14.8854 22.6347 14.772C22.6768 14.7004 22.7264 14.6332 22.7826 14.5714C25.7978 11.1139 28.0918 6.01257 28.746 4.54321C28.7952 4.42549 28.8444 4.32522 28.8848 4.25981ZM13.8891 4.15081C14.1713 3.50989 14.6597 2.1408 15.7843 1.59579C16.1411 1.43451 16.5289 1.34834 16.9223 1.34291C17.0074 1.34291 17.0701 1.34291 17.0925 1.34291C19.9725 1.32249 22.8401 1.71024 25.6052 2.49397L25.6948 2.52885C25.9233 2.60298 26.0398 2.70326 26.0398 2.82969C26.0374 2.88108 26.0238 2.93139 25.9998 2.97726C25.9759 3.02313 25.9422 3.06348 25.9009 3.09567L25.7441 3.23084C25.2109 3.69299 23.5039 4.89201 20.2915 6.10411C18.9834 6.62298 17.6351 7.03995 16.2592 7.35111C15.4124 7.51244 12.2 7.98769 13.8891 4.15081ZM10.8021 1.9446C11.1606 1.8792 11.3935 1.8792 11.4787 1.9446C11.5064 1.98286 11.5213 2.02856 11.5213 2.0754C11.5213 2.12225 11.5064 2.16794 11.4787 2.20621C11.4328 2.27646 11.3819 2.34348 11.3263 2.40677C8.31106 5.88612 6.01711 10.9918 5.37642 12.4655C5.32714 12.5658 5.27785 12.6661 5.23752 12.7315C5.21315 12.7872 5.17351 12.8354 5.12296 12.8708C5.07242 12.9061 5.01287 12.9273 4.9508 12.932C4.8234 12.932 4.69934 12.8923 4.59683 12.8187C2.59412 11.6196 1.40683 10.1198 1.40683 8.49783C1.39339 5.56783 5.26441 3.05206 10.8021 1.9446Z" fill="white" fill-opacity="0.6"/>
</g>
</g>
<defs>
<clipPath id="clip0_1789_752">
<rect width="127" height="17" fill="white"/>
</clipPath>
</defs>
</svg>
