<svg width="110" height="28" viewBox="0 0 110 28" fill="none" xmlns="http://www.w3.org/2000/svg">
<g clip-path="url(#clip0_1789_694)">
<path fill-rule="evenodd" clip-rule="evenodd" d="M92.675 28H93.225V25.2933L94.1875 28H94.6917L95.6542 25.2933V28H96.2042V24.5H95.3792L94.4625 27.2533L93.5 24.5H92.675V28ZM89.4667 25.0133H90.5667V28H91.1625V25.0133H92.2625V24.5H89.4667V25.0133ZM82.5 28L110 0H93.4542L65.9542 28H82.5ZM78.5583 12.18H45.2833C35.1542 12.18 33.3667 12.74 29.0125 17.1733C24.9333 21.3267 18.3333 28 18.3333 28H32.7708L36.2083 24.5C38.4542 22.2133 39.6458 21.98 44.3667 21.98H68.9792L78.5583 12.18ZM28.5542 15.1667C25.575 18.06 19.0208 24.5 15.4917 28H0C0 28 12.4208 15.4 19.3417 8.44667C26.4458 1.58667 29.975 0 43.0375 0H90.5208L80.2542 10.4533H44C34.8333 10.4533 32.7708 11.1067 28.5542 15.1667Z" fill="white" fill-opacity="0.6"/>
</g>
<defs>
<clipPath id="clip0_1789_694">
<rect width="110" height="28" fill="white"/>
</clipPath>
</defs>
</svg>
