<svg width="118" height="25" viewBox="0 0 118 25" fill="none" xmlns="http://www.w3.org/2000/svg">
<g clip-path="url(#clip0_1789_738)">
<path d="M18.4479 7.55557L3.71174 14.5V0.444458H0V24.5H3.71174V18.3889L18.4479 11.4445V24.5556H22.1596V0.444458H18.4479V7.55557Z" fill="white" fill-opacity="0.6"/>
<path d="M99.9953 7.27778C100.106 5.22222 103.43 3.66667 106.92 3.66667C110.41 3.66667 113.845 5.27778 113.845 7.38889H117.723C117.723 2.94444 112.848 0 106.976 0C101.048 0 96.2282 2.88889 96.2282 7.38889V9.44444L114.122 17.9444C113.79 19.8889 110.466 21.3333 107.086 21.3333C103.541 21.3333 100.051 19.7222 100.051 17.6111H96.1728C96.1728 22.0556 101.159 25 107.086 25C113.014 25 118 22.1111 118 17.6111V15.7222L99.9953 7.27778Z" fill="white" fill-opacity="0.6"/>
<path d="M69.0827 0.444458L59.9418 22.2222L50.801 0.444458H46.7568L56.8949 24.5H62.9888L73.1268 0.444458H69.0827Z" fill="white" fill-opacity="0.6"/>
<path d="M50.7456 24.5556L40.6075 0.444458H34.5136L24.3756 24.5556H28.4197L29.2507 22.6111L43.1559 16.0556L46.7014 24.5556H50.7456ZM37.5606 2.77779L41.7709 12.7778L31.3005 17.7222L37.5606 2.77779Z" fill="white" fill-opacity="0.6"/>
<path d="M95.508 24.5556L85.4253 0.444458H79.3314L69.1934 24.5H73.2375L74.0685 22.5556L87.9737 16L91.5192 24.5H95.508V24.5556ZM82.3784 2.77779L86.5887 12.7778L76.1183 17.7222L82.3784 2.77779Z" fill="white" fill-opacity="0.6"/>
</g>
<defs>
<clipPath id="clip0_1789_738">
<rect width="118" height="25" fill="white"/>
</clipPath>
</defs>
</svg>
