<svg width="108" height="44" viewBox="0 0 108 44" fill="none" xmlns="http://www.w3.org/2000/svg">
<g clip-path="url(#clip0_1789_724)">
<path d="M51.3416 10.0692V22C51.84 22 52.4216 21.9154 52.92 21.6616C54.4985 20.9 55.7446 19.0385 55.7446 15.9923C55.7446 10.1539 51.9231 10.0692 51.3416 10.0692Z" fill="white" fill-opacity="0.6"/>
<path d="M33.6461 28.9385H37.3846L35.4738 13.0308L33.6461 28.9385Z" fill="white" fill-opacity="0.6"/>
<path d="M0 0V44H108V0H0ZM91.5508 10.1538H85.6523V18.6154H91.5508V25.3846H85.6523V33.9308H91.5508V40.6154H79.0892V6.85385L73.8554 40.6154H66.1292C66.1292 40.6154 62.2246 16.7538 62.2246 16.6692C62.8892 20.5615 60.48 24.5385 58.4031 26.1462L62.5569 40.5308H56.0769L52.92 28.1769L51.4246 28.4308V40.6154H38.9631L38.2154 34.8615H33.0646L32.1508 40.6154H26.1692H19.44V22.7615L16.4492 40.6154H12.96L9.96923 22.9308V40.6154H3.32308V3.38462H11.7138L14.6215 22.5923L17.6954 3.38462H26.1692V36.8923L31.0708 3.38462H39.8769L44.7785 36.3846V3.38462C44.7785 3.38462 51.4246 3.38462 51.5077 3.38462C57.5723 3.38462 60.3138 7.86923 61.0615 9.39231L60.2308 3.38462H66.96L69.9508 26.0615L73.0246 3.38462H91.5508V10.1538ZM104.843 40.6154H92.7138V3.38462H99.2769V33.9308H104.926V40.6154H104.843Z" fill="white" fill-opacity="0.6"/>
</g>
<defs>
<clipPath id="clip0_1789_724">
<rect width="108" height="44" fill="white"/>
</clipPath>
</defs>
</svg>
