<svg width="123" height="13" viewBox="0 0 123 13" fill="none" xmlns="http://www.w3.org/2000/svg">
<g clip-path="url(#clip0_1789_713)">
<path d="M1.02891 11.2077C1.02891 11.8529 0.760502 12.0919 0.268412 12.0919H0V12.546H8.05237C11.2733 12.546 13.1075 11.4228 13.1075 9.08088C13.1075 7.3125 12.0562 6.26103 9.48391 5.90257C10.7365 5.54412 11.8325 4.63603 11.8325 3.17831C11.8325 1.09927 9.88652 0.238972 7.29187 0.238972L0 0.262869V0.716913H0.268412C0.760502 0.716913 1.02891 0.955883 1.02891 1.6011V11.2077ZM3.06438 1.36213H6.4419C8.96945 1.36213 9.81942 1.95956 9.81942 3.25C9.81942 4.56434 9.08129 5.54412 6.30769 5.54412H3.01964L3.06438 1.36213ZM7.2695 6.69118C9.79705 6.69118 10.8483 7.79044 10.8483 9.12868C10.8483 10.3713 10.0878 11.1838 7.2024 11.1838H3.06438V6.69118H7.2695Z" fill="white" fill-opacity="0.6"/>
<path d="M100.14 1.26655V6.33272H103.205C105.62 6.33272 106.761 5.37684 106.761 3.77574C106.761 2.19853 105.665 1.26655 103.137 1.26655H100.14ZM105.24 7.04964C106.672 7.16912 107.007 7.57537 107.544 8.48346L108.707 10.7537C109.311 11.6857 109.848 12.2114 111.033 12.2114V12.546H109.602C108.931 12.546 107.656 12.6415 106.94 11.7096L105.419 9.0092C104.882 8.22059 104.726 7.57537 102.936 7.57537H100.163V11.2077C100.163 11.8529 100.431 12.0919 100.923 12.0919H101.191V12.546H97.1205V12.0919H97.389C97.881 12.0919 98.1495 11.8529 98.1495 11.2077V1.625C98.1495 0.979783 97.881 0.740812 97.389 0.740812H97.1205V0.262871H103.92C107.857 0.262871 108.975 1.98346 108.975 3.65625C108.931 5.54412 107.544 6.64339 105.24 7.04964Z" fill="white" fill-opacity="0.6"/>
<path d="M121.971 1.625C121.971 0.979783 122.239 0.740812 122.732 0.740812H123V0.262871H118.929V0.716915H119.197C119.69 0.716915 119.958 0.955885 119.958 1.60111V11.2077C119.958 11.8529 119.69 12.0919 119.197 12.0919H118.929V12.546H123V12.0919H122.732C122.239 12.0919 121.971 11.8529 121.971 11.2077V1.625Z" fill="white" fill-opacity="0.6"/>
<path d="M43.3486 0.262871V0.716915H43.0802C42.5881 0.716915 42.3197 0.955885 42.3197 1.60111V11.1838H48.1353C49.0971 11.136 49.8576 10.6103 50.2826 9.86949L50.6852 10.0368L49.4997 12.5699H39.2777V12.1158H39.5461C40.0382 12.1158 40.3066 11.8768 40.3066 11.2316V1.625C40.3066 0.979783 40.0382 0.740812 39.5461 0.740812H39.2777V0.262871H43.3486Z" fill="white" fill-opacity="0.6"/>
<path d="M32.7239 0.262871V0.716915H32.4555C31.8516 0.716915 31.7845 1.05147 31.5161 1.57721L26.2373 12.546H24.5374L19.2586 1.57721C18.9902 1.05147 18.9231 0.716915 18.3191 0.716915H18.0507V0.262871H22.2782V0.716915H22.0098C21.4506 0.716915 21.2269 1.12316 21.4954 1.6728L25.8123 10.5386L30.0622 1.6728C30.3306 1.12316 30.1069 0.716915 29.5477 0.716915H29.2793V0.262871H32.7239Z" fill="white" fill-opacity="0.6"/>
<path d="M70.8609 6.71508V7.16912H70.3912C69.8991 7.16912 69.6307 7.40809 69.6307 8.05331V10.3235C68.9149 11.614 66.611 12.9761 63.1217 12.9761C58.156 12.9761 55.0022 10.0368 55.0022 6.42831C55.0022 3.44118 57.9771 -0.0238953 63.0546 -0.0238953C65.9176 -0.0238953 68.0202 1.05147 68.6017 1.45772C68.6017 1.50552 69.228 4.20588 69.228 4.20588L68.7807 4.37316C68.7807 4.37316 67.461 1.00368 63.323 0.979781C59.7441 0.955884 57.3061 3.72794 57.3061 6.42831C57.3061 9.39155 59.6994 11.8529 63.323 11.829C65.5821 11.829 67.707 10.5625 67.707 9.67831V8.05331C67.707 7.40809 67.4386 7.16912 66.9465 7.16912H66.4768V6.71508H70.8609Z" fill="white" fill-opacity="0.6"/>
<path d="M85.467 7.88603L82.6934 2.12684L79.9869 7.88603H85.467ZM90.5668 12.1158V12.5699H86.2946V12.1158H86.563C87.1222 12.1158 87.3459 11.7096 87.0775 11.1599L86.0933 9.27206H79.3159L78.3988 11.1599C78.1304 11.7096 78.3541 12.1158 78.9133 12.1158H79.1817V12.5699H75.6476V12.1158H75.916C76.341 12.1158 76.5199 11.9485 76.766 11.4706L82.2908 0.286766H83.8342L89.3366 11.2555C89.3813 11.3272 89.4261 11.3989 89.4485 11.4706C89.6945 11.9485 89.8734 12.1158 90.2984 12.1158H90.5668Z" fill="white" fill-opacity="0.6"/>
</g>
<defs>
<clipPath id="clip0_1789_713">
<rect width="123" height="13" fill="white"/>
</clipPath>
</defs>
</svg>
