<svg width="49" height="10" viewBox="0 0 49 10" fill="none" xmlns="http://www.w3.org/2000/svg">
<g clip-path="url(#clip0_1790_1164)">
<path d="M7.66056 3.02218L1.54131 5.79996V0.177734H0V9.79996H1.54131V7.35551L7.66056 4.57773V9.82218H9.20188V0.177734H7.66056V3.02218Z" fill="black"/>
<path d="M41.5234 2.91111C41.5694 2.08889 42.9496 1.46667 44.3989 1.46667C45.8482 1.46667 47.2745 2.11111 47.2745 2.95556H48.8849C48.8849 1.17778 46.8604 0 44.422 0C41.9604 0 39.959 1.15556 39.959 2.95556V3.77778L47.3896 7.17778C47.2515 7.95556 45.8712 8.53333 44.468 8.53333C42.9957 8.53333 41.5464 7.88889 41.5464 7.04444H39.936C39.936 8.82222 42.0065 10 44.468 10C46.9295 10 48.9999 8.84445 48.9999 7.04444V6.28889L41.5234 2.91111Z" fill="black"/>
<path d="M28.6869 0.177734L24.8911 8.88885L21.0954 0.177734H19.416L23.6259 9.79996H26.1564L30.3663 0.177734H28.6869Z" fill="black"/>
<path d="M21.0723 9.82218L16.8624 0.177734H14.3319L10.1221 9.82218H11.8014L12.1465 9.0444L17.9207 6.42218L19.393 9.82218H21.0723ZM15.5972 1.11107L17.3455 5.11107L12.9977 7.08885L15.5972 1.11107Z" fill="black"/>
<path d="M39.6601 9.82218L35.4733 0.177734H32.9428L28.7329 9.79996H30.4123L30.7573 9.02218L36.5315 6.39996L38.0038 9.79996H39.6601V9.82218ZM34.208 1.11107L35.9564 5.11107L31.6085 7.08885L34.208 1.11107Z" fill="black"/>
</g>
<defs>
<clipPath id="clip0_1790_1164">
<rect width="49" height="10" fill="white"/>
</clipPath>
</defs>
</svg>
