<svg width="47" height="8" viewBox="0 0 47 8" fill="none" xmlns="http://www.w3.org/2000/svg">
<g clip-path="url(#clip0_1790_1245)">
<path d="M1.78579 2.16787C1.75128 2.01439 1.75991 1.86091 1.77717 1.77458C1.8203 1.53477 1.96696 1.27578 2.38968 1.27578C2.78653 1.27578 3.01083 1.54436 3.01083 1.95683C3.01083 2.09113 3.01083 2.41727 3.01083 2.41727H4.68447V1.88969C4.6931 0.258993 3.37316 0 2.42419 0C1.23366 0 0.258811 0.441247 0.0776432 1.65947C0.0258811 1.9952 0.017254 2.29257 0.0948972 2.66667C0.388216 4.19185 2.7779 4.63309 3.12298 5.60192C3.192 5.78417 3.16612 6.01439 3.14024 6.15827C3.08847 6.40767 2.93319 6.66667 2.48458 6.66667C2.06186 6.66667 1.81167 6.39808 1.81167 5.98561V5.26619H0V5.84173C0 7.51079 1.1819 8.00959 2.44145 8.00959C3.65786 8.00959 4.64996 7.54916 4.81388 6.30216C4.89152 5.65947 4.83113 5.23741 4.80525 5.08393C4.52919 3.5012 1.97559 3.04077 1.78579 2.16787ZM23.638 2.17746C23.6122 2.03357 23.6208 1.8705 23.6294 1.79377C23.6812 1.55396 23.8192 1.29496 24.2419 1.29496C24.6301 1.29496 24.8544 1.56355 24.8544 1.96643C24.8544 2.10072 24.8544 2.42686 24.8544 2.42686H26.5108V1.90887C26.5108 0.297362 25.2168 0.0479616 24.2764 0.0479616C23.0945 0.0479616 22.1283 0.479616 21.9471 1.68825C21.904 2.01439 21.8867 2.31175 21.9644 2.68585C22.2491 4.19185 24.6129 4.63309 24.958 5.59233C25.0184 5.77458 25.0011 6.0048 24.9666 6.13909C24.9148 6.38849 24.7682 6.63789 24.3196 6.63789C23.9055 6.63789 23.6467 6.36931 23.6467 5.96643V5.247H21.8609V5.81295C21.8609 7.46283 23.0255 7.96163 24.2764 7.96163C25.4756 7.96163 26.4677 7.5012 26.623 6.27338C26.7006 5.6307 26.6402 5.21823 26.6144 5.06475C26.3469 3.51079 23.8278 3.05036 23.638 2.17746ZM38.8906 6.2542L37.3119 0.239808H34.8186V7.63549H36.4664L36.3715 1.42926L38.071 7.63549H40.4607V0.239808H38.8043L38.8906 6.2542ZM7.19493 0.239808L5.94402 7.71223H7.75569L8.69604 0.796163L9.6105 7.71223H11.4135L10.1799 0.239808H7.19493ZM17.3403 0.239808L16.4949 6.08154L15.6494 0.239808H12.906L12.7594 7.71223H14.4416L14.4848 0.796163L15.6408 7.71223H17.3403L18.4963 0.796163L18.5395 7.71223H20.2217L20.0751 0.239808H17.3403ZM32.9552 0.239808H31.2557V5.76499C31.2557 5.86091 31.2557 5.96643 31.2384 6.05276C31.2039 6.23501 31.0659 6.59952 30.5914 6.59952C30.1256 6.59952 29.9875 6.2446 29.953 6.05276C29.9358 5.97602 29.9358 5.86091 29.9358 5.76499V0.239808H28.2362V5.59233C28.2362 5.72662 28.2449 6.01439 28.2535 6.08154C28.3743 7.47242 29.3577 7.93285 30.5914 7.93285C31.8251 7.93285 32.8172 7.48202 32.938 6.08154C32.9466 6.0048 32.9638 5.72662 32.9552 5.59233V0.239808ZM44.6189 3.51079V4.60432H45.3091V5.68825C45.3091 5.78417 45.3091 5.88969 45.2919 5.97602C45.266 6.17746 45.0934 6.52278 44.6017 6.52278C44.1186 6.52278 43.946 6.17746 43.9202 5.97602C43.9115 5.88969 43.9029 5.78417 43.9029 5.68825V2.27338C43.9029 2.14868 43.9115 2.02398 43.9374 1.91847C43.9719 1.73621 44.1186 1.38129 44.6017 1.38129C45.1193 1.38129 45.2401 1.7554 45.2746 1.91847C45.2918 2.02398 45.2919 2.20624 45.2919 2.20624V2.61871H46.9827V2.3693C46.9827 2.3693 46.9914 2.11031 46.9741 1.8705C46.8447 0.479616 45.8008 0.0383693 44.6103 0.0383693C43.4198 0.0383693 42.4018 0.489209 42.2551 1.8801C42.2379 2.0048 42.2206 2.23501 42.2206 2.3789V5.51559C42.2206 5.64988 42.2206 5.7554 42.2465 6.0048C42.3587 7.36691 43.4198 7.84652 44.6103 7.84652C45.8095 7.84652 46.862 7.36691 46.9741 6.0048C46.9914 5.7554 47 5.64988 47 5.51559V3.51079H44.6189Z" fill="black"/>
</g>
<defs>
<clipPath id="clip0_1790_1245">
<rect width="47" height="8" fill="white"/>
</clipPath>
</defs>
</svg>
