<svg width="49" height="11" viewBox="0 0 49 11" fill="none" xmlns="http://www.w3.org/2000/svg">
<g clip-path="url(#clip0_1790_1206)">
<path d="M0 0.378906H1.90711V3.13217H0V0.378906Z" fill="black"/>
<path d="M6.4128 0.378906V4.50318L0 4.49192V10.8742H1.90711V6.32877H6.4128V10.8742H8.31991V0.378906H6.4128Z" fill="black"/>
<path d="M22.2716 9.04822H16.3003C15.8482 9.04962 15.4012 8.95418 14.9911 8.76864C14.5905 8.584 14.2333 8.32085 13.9417 7.99564C13.6404 7.65498 13.4075 7.26221 13.255 6.83776C13.089 6.37692 13.0058 5.89162 13.0091 5.40322C13.0063 4.94205 13.0934 4.48455 13.2658 4.05508C13.4277 3.64887 13.6669 3.27611 13.9707 2.95639C14.269 2.64652 14.6265 2.3964 15.0232 2.22006C15.4356 2.03877 15.8836 1.94709 16.3361 1.95137C16.7957 1.94682 17.251 2.0387 17.6709 2.22078C18.0699 2.39572 18.4294 2.6457 18.729 2.95639C19.0321 3.27585 19.2685 3.64976 19.4249 4.05726C19.5944 4.49585 19.6795 4.96109 19.676 5.42972C19.6794 5.91793 19.5961 6.40302 19.4298 6.86354C19.3231 7.15507 19.1788 7.43215 19.0002 7.68811H21.1573C21.3112 7.36443 21.4306 7.02619 21.5135 6.67873C21.6151 6.25071 21.6664 5.81278 21.6662 5.37344C21.6733 4.68111 21.5398 3.99424 21.2734 3.35241C21.0069 2.71057 20.6128 2.12645 20.1138 1.63368C19.6334 1.1633 19.0641 0.787993 18.4373 0.528448C17.7858 0.258807 17.0845 0.121901 16.3767 0.12615C15.6504 0.120365 14.9306 0.259239 14.2613 0.534257C13.6234 0.799809 13.0458 1.1858 12.5617 1.66998C12.0733 2.16311 11.6881 2.74421 11.4277 3.38084C11.1511 4.05931 11.0119 4.78356 11.0178 5.51359C11.0106 6.25063 11.1548 6.98161 11.4422 7.66342C11.7096 8.29715 12.102 8.8736 12.5971 9.36011C13.0967 9.84298 13.689 10.2252 14.3402 10.4849C14.9914 10.7446 15.6887 10.8768 16.3923 10.8738H22.3305V9.04822H22.2716Z" fill="black"/>
<path d="M29.7839 4.71112L28.9851 7.46075L27.0176 0.252441H25.0293L28.0589 10.7478H29.909L31.6619 4.71112H29.7839Z" fill="black"/>
<path d="M37.1 0.252441L35.1322 7.46075L33.0392 0.252441H31.0788L30.1787 3.35137H32.0568L32.0597 3.3412L34.2232 10.7478H36.0729L39.088 0.252441H37.1Z" fill="black"/>
<path d="M45.2999 11.0016C44.6501 11.0041 44.006 10.8827 43.404 10.6443C42.8091 10.4141 42.2971 10.018 41.932 9.50568L41.7871 9.30163L43.3239 7.96148L43.5068 8.23961C43.6989 8.54472 43.9773 8.78931 44.3086 8.94399C44.6306 9.09577 44.9835 9.17518 45.3413 9.17636C45.5427 9.17485 45.7426 9.14363 45.9344 9.08378C46.1296 9.02482 46.3128 8.93316 46.4757 8.81292C46.6339 8.69481 46.7657 8.54657 46.8632 8.37722C46.962 8.20065 47.0111 8.00171 47.0055 7.80064C47.0158 7.67809 46.9977 7.55486 46.9525 7.44005C46.9074 7.32523 46.8364 7.22176 46.7447 7.13728C46.5032 6.94238 46.2299 6.78813 45.9363 6.68089L44.7933 6.29529C44.357 6.16519 43.9413 5.97703 43.5579 5.73614C43.1587 5.4806 42.8231 5.14132 42.5758 4.74311C42.2849 4.22869 42.1456 3.64587 42.1734 3.05912C42.179 2.70865 42.2485 2.36194 42.3787 2.03522C42.5229 1.66328 42.7446 1.32453 43.03 1.04037C43.351 0.724921 43.7315 0.47281 44.1506 0.297865C44.668 0.0885333 45.2246 -0.0128863 45.7846 0.000136002C46.335 -0.00171004 46.8825 0.0782399 47.4082 0.23723C47.979 0.422232 48.4777 0.77355 48.837 1.2437L49.0002 1.44594L47.4708 2.85543L47.2845 2.5617C47.1386 2.33553 46.9326 2.152 46.6884 2.0305C46.4098 1.89026 46.0997 1.81976 45.7861 1.82536C45.51 1.81661 45.2347 1.85937 44.9751 1.95135C44.7917 2.01972 44.6256 2.12557 44.4878 2.26179C44.3763 2.374 44.2914 2.50857 44.2389 2.6561C44.1926 2.78581 44.1674 2.92181 44.1644 3.05912C44.1527 3.19796 44.1708 3.33765 44.2174 3.46934C44.264 3.60103 44.3382 3.72185 44.4352 3.82414C44.6685 4.0352 44.9407 4.20127 45.2373 4.31358C45.6068 4.4575 45.9846 4.58031 46.3688 4.68138C46.7997 4.79515 47.2138 4.96245 47.6008 5.17917C47.9942 5.40329 48.3312 5.71018 48.5874 6.07744C48.8828 6.54846 49.0256 7.09535 48.9972 7.64669C49.0032 8.13138 48.9015 8.61159 48.6991 9.05437C48.5129 9.45934 48.2407 9.82119 47.9004 10.116C47.5561 10.4083 47.1564 10.632 46.7238 10.7743C46.2655 10.927 45.7843 11.0038 45.2999 11.0016Z" fill="black"/>
</g>
<defs>
<clipPath id="clip0_1790_1206">
<rect width="49" height="11" fill="white"/>
</clipPath>
</defs>
</svg>
