<svg width="58" height="21" viewBox="0 0 58 21" fill="none" xmlns="http://www.w3.org/2000/svg">
<path fill-rule="evenodd" clip-rule="evenodd" d="M25.4472 18.2071C25.268 18.1443 25.0801 18.11 24.8903 18.1055C24.5695 18.1055 24.1645 18.1735 23.8774 18.3094V20.8557H24.6369V18.6659C24.7043 18.6317 24.8226 18.6151 24.924 18.6151C25.0591 18.6151 25.177 18.6317 25.2784 18.6832L25.4472 18.2071ZM35.8953 19.4975C35.8953 19.7859 35.8782 20.3634 35.4735 20.3634C35.0688 20.3634 35.0685 19.7859 35.0685 19.4975C35.0685 19.2091 35.0685 18.5978 35.4735 18.5978C35.8785 18.5978 35.8953 19.2091 35.8953 19.4975ZM36.6551 19.5145C36.6551 18.7673 36.2838 18.1055 35.4732 18.1055C34.6625 18.1055 34.3084 18.7676 34.3084 19.5145C34.3084 20.2614 34.6628 20.8893 35.4732 20.8893C36.2835 20.8893 36.6551 20.2617 36.6551 19.5145ZM34.1739 20.7707L34.0722 20.2956C33.9377 20.3637 33.8194 20.3806 33.6672 20.3806C33.4815 20.3806 33.3299 20.2956 33.2622 20.1597C33.1271 19.973 33.0931 19.7015 33.0931 19.5148C33.0931 19.3281 33.1271 19.1068 33.2113 18.9207C33.2959 18.734 33.4647 18.6317 33.6675 18.6317C33.7857 18.6317 33.9542 18.6659 34.0559 18.734L34.157 18.2416C33.9882 18.1566 33.7352 18.1058 33.4987 18.1058C32.7389 18.1058 32.3167 18.7679 32.3167 19.4978C32.3167 20.3637 32.7224 20.8899 33.4987 20.8899C33.718 20.8893 33.9882 20.8557 34.1739 20.7707ZM31.9794 20.8557V18.9371C31.9794 18.343 31.591 18.1055 31.0337 18.1055C30.7298 18.1055 30.4265 18.2071 30.1897 18.343C29.9535 18.1732 29.599 18.1055 29.3123 18.1055C28.9747 18.1055 28.4851 18.2071 28.2152 18.3261V20.8557H28.9747V18.6659C29.0592 18.6317 29.1772 18.6151 29.3294 18.6151C29.5488 18.6151 29.7344 18.7168 29.7344 18.9543V20.8557H30.4936V18.7337C30.5782 18.6656 30.7638 18.6148 30.8821 18.6148C31.0849 18.6148 31.2194 18.7337 31.2194 18.9713V20.8557H31.9794ZM27.7088 20.8557V18.2752C27.3883 18.1735 27.1013 18.1055 26.8142 18.1055C25.8522 18.1055 25.3118 18.7337 25.3118 19.6843C25.3118 20.2956 25.5989 20.9066 26.2738 20.9066C26.544 20.9066 26.8139 20.7876 26.9659 20.6348V20.8557H27.7088ZM23.6075 20.8557L22.3922 17.019H21.5822L20.3332 20.8557H21.1098L21.346 20.0241H22.5445L22.7807 20.8557H23.6075ZM19.2695 17.3928C19.2695 17.1718 19.0838 17.0021 18.8476 17.0021C18.6114 17.0021 18.4258 17.1718 18.4258 17.3928C18.4258 17.6134 18.6114 17.7829 18.8476 17.7829C19.0838 17.7829 19.2695 17.6131 19.2695 17.3928ZM18.476 20.8557H19.2355V18.1735H18.476V20.8557ZM17.9022 20.7026V16.9512H17.1427V18.1735C17.0076 18.1563 16.8728 18.1393 16.7377 18.1393C15.9611 18.1393 15.5392 18.8018 15.5392 19.532C15.5392 20.3809 15.9951 20.9069 16.8388 20.9069C17.1427 20.9066 17.6154 20.8385 17.9022 20.7026ZM15.1845 20.686V18.1732H14.425V20.3122C14.3745 20.3631 14.1885 20.3803 14.0874 20.3803C13.8512 20.3803 13.7161 20.2614 13.7161 20.0238V18.1732H12.9566V19.956C12.9566 20.686 13.3111 20.9066 14.0032 20.9066C14.4422 20.9066 14.9483 20.8049 15.1845 20.686ZM12.4671 20.8557V18.2752C12.1463 18.1735 11.8593 18.1055 11.5725 18.1055C10.6105 18.1055 10.0704 18.7337 10.0704 19.6843C10.0704 20.2956 10.3575 20.9066 11.0324 20.9066C11.3023 20.9066 11.5725 20.7876 11.7245 20.6348V20.8557H12.4671ZM9.78335 19.7859C9.78335 19.4125 9.5977 19.141 9.34434 18.9371C9.20954 18.8354 8.85508 18.6487 8.60173 18.5128C8.38237 18.4111 8.16302 18.2586 8.16302 18.0204C8.16302 17.732 8.38237 17.5961 8.66943 17.5961C8.95649 17.5795 9.20954 17.6642 9.44605 17.7662L9.64855 17.2224C9.36179 17.0699 8.97334 16.9848 8.63603 16.9848C7.94396 16.9848 7.387 17.3413 7.387 18.0546C7.387 18.5128 7.64036 18.7846 7.91026 18.9543C8.12962 19.0733 8.41667 19.2091 8.60233 19.3108C8.85538 19.4467 8.99049 19.5992 8.99049 19.8204C8.99049 20.1261 8.68658 20.262 8.39982 20.262C8.09592 20.262 7.67406 20.1261 7.53895 20.0753L7.37015 20.6351C7.74116 20.7882 8.09592 20.8727 8.48407 20.8727C9.14184 20.8724 9.78335 20.4992 9.78335 19.7859ZM26.9493 20.2275C26.8448 20.3144 26.7136 20.3624 26.578 20.3634C26.173 20.3634 26.1053 19.8537 26.1053 19.5317C26.1053 19.0902 26.2572 18.547 26.7805 18.547C26.8311 18.547 26.8988 18.5642 26.9493 18.5806V20.2275ZM22.4091 19.5145H21.4808L21.9535 17.817H21.9703L22.4091 19.5145ZM17.1427 20.3634C17.0753 20.3969 16.9739 20.4142 16.8897 20.4142C16.4001 20.4142 16.3327 19.871 16.3327 19.4975C16.3327 19.0902 16.417 18.5642 16.9234 18.5642C16.9908 18.5642 17.0753 18.5809 17.1427 18.5978V20.3634ZM11.7076 20.2275C11.5893 20.3125 11.4714 20.3634 11.3363 20.3634C10.9313 20.3634 10.8636 19.8537 10.8636 19.5317C10.8636 19.0902 11.0155 18.547 11.5388 18.547C11.5893 18.547 11.6571 18.5642 11.7076 18.5806V20.2275ZM31.4225 14.0142C31.4225 14.3199 31.4053 14.9139 30.9835 14.9139C30.5616 14.9139 30.5616 14.3026 30.5616 14.0142C30.5616 13.7258 30.5616 13.0976 30.9835 13.0976C31.4053 13.0976 31.4225 13.7255 31.4225 14.0142ZM32.6712 15.406H33.4481V11.5696H32.6712V15.406ZM34.9502 15.4402V12.6563H34.1739V15.5249C34.1739 15.9329 33.9377 16.0515 33.5998 16.0515C33.3804 16.0515 33.0597 15.9665 32.874 15.8984L32.7052 16.3735C32.9586 16.5094 33.4481 16.6117 33.7349 16.6117C34.5112 16.612 34.9502 16.204 34.9502 15.4402ZM32.1988 14.0312C32.1988 13.2676 31.8275 12.5882 30.9835 12.5882C30.1566 12.5882 29.7853 13.2673 29.7853 14.0312C29.7853 14.1329 29.8024 14.2518 29.8193 14.3538C29.8358 14.4555 29.8527 14.5571 29.8527 14.608C29.8527 14.812 29.7516 14.9136 29.4308 14.9136H28.8739C29.0595 14.7947 29.1778 14.5408 29.1778 14.3196C29.1778 13.3012 27.6585 13.2331 27.6585 12.5368C27.6585 12.2311 27.9284 12.1467 28.1986 12.1467C28.418 12.1467 28.7051 12.1976 28.9413 12.3165L29.1269 11.7902C28.8739 11.6374 28.4685 11.5527 28.0635 11.5527C27.456 11.5527 26.8482 11.875 26.8482 12.5368C26.8482 13.7083 28.3503 13.691 28.3503 14.4046C28.3503 14.7272 28.1478 14.9136 27.574 14.9136H26.4938V12.7916C26.2744 12.6727 25.8859 12.5882 25.5149 12.5882C24.5867 12.5882 24.0971 13.1651 24.0971 14.082C24.0971 14.7947 24.4684 15.4233 25.2282 15.4233C25.3798 15.4233 25.5826 15.406 25.7174 15.3216V15.5249C25.7174 15.8984 25.4981 16.0515 25.1436 16.0515C24.9243 16.0515 24.6035 15.9665 24.4179 15.8984L24.2491 16.3735C24.5021 16.5094 24.9917 16.6117 25.2787 16.6117C26.055 16.6117 26.4941 16.1701 26.4941 15.406H29.5491C29.8193 15.406 30.0558 15.3216 30.1903 15.1512C30.2414 15.2026 30.3594 15.2871 30.4271 15.3213C30.5788 15.4057 30.7644 15.4566 30.9838 15.4566C31.8272 15.4569 32.1988 14.795 32.1988 14.0312ZM22.0543 15.406H22.8478V11.5696H22.0543V15.406ZM21.312 14.5066V11.5696H20.5354V14.5574C20.5354 14.795 20.3834 14.9309 20.1472 14.9309C19.8096 14.9309 19.5734 14.8628 19.3877 14.7784V12.6563H18.5943V14.88C18.4932 14.9309 18.3244 14.9481 18.223 14.9481C17.9696 14.9481 17.8348 14.8631 17.8348 14.5916V12.6563H17.0582V14.8462C16.9739 14.9136 16.822 14.9478 16.6872 14.9478C16.417 14.9478 16.3159 14.812 16.3159 14.5744V12.6563H15.5224V14.5408C15.5224 14.795 15.4041 14.9136 15.1342 14.9136H13.3788V13.1823C13.4462 13.1481 13.5981 13.1142 13.6995 13.1142C13.8347 13.1142 13.9189 13.1651 13.9866 13.2331C14.0709 13.3182 14.0877 13.5557 14.0877 13.7764C14.0877 14.082 14.054 14.3877 14.0372 14.5405H14.7798C14.7966 14.3538 14.8472 13.9292 14.8472 13.6574C14.8472 13.4877 14.8303 13.3182 14.7966 13.1992C14.6955 12.7405 14.3071 12.5879 13.7332 12.5879C13.3451 12.5879 12.8218 12.6896 12.5856 12.8086V14.9133H11.8936V12.7913C11.6911 12.6724 11.3029 12.5879 10.9316 12.5879C9.98616 12.5879 9.4966 13.1648 9.4966 14.0817C9.4966 14.7944 9.88506 15.423 10.6277 15.423C10.7796 15.423 10.9821 15.4057 11.1172 15.3213V15.5246C11.1172 15.8981 10.8979 16.0512 10.5434 16.0512C10.3241 16.0512 10.0202 15.9662 9.81736 15.8981L9.64855 16.3732C9.90191 16.5091 10.408 16.6114 10.6954 16.6114C11.4548 16.6114 11.8936 16.1698 11.8936 15.4057H15.1679C15.3873 15.4057 15.6066 15.3376 15.7249 15.219C15.8431 15.3549 16.1636 15.4738 16.4675 15.4738C16.788 15.4738 17.1259 15.423 17.3452 15.219C17.5814 15.423 17.9359 15.4738 18.2398 15.4738C18.5943 15.4738 18.9319 15.3894 19.1344 15.2704C19.3877 15.3721 19.7422 15.4738 20.1641 15.4738C20.8393 15.4741 21.312 15.2365 21.312 14.5066ZM9.19239 14.0484C9.19239 13.5727 9.09129 13.2162 8.87193 12.962C8.65258 12.7238 8.34867 12.5885 7.96051 12.5885C7.75801 12.5885 7.4881 12.6394 7.30215 12.7238L7.4204 13.2162C7.54343 13.164 7.67508 13.1354 7.80856 13.1318C8.02791 13.1318 8.17987 13.2507 8.26442 13.4029C8.34867 13.5896 8.38267 13.878 8.38267 14.0484C8.38267 14.286 8.34897 14.5916 8.18017 14.7784C8.07876 14.8973 7.96081 14.9309 7.70746 14.9309H7.16734L7.06624 15.4569H7.87626C8.24757 15.4569 8.58518 15.3552 8.82138 15.1004C9.05759 14.8292 9.19239 14.4558 9.19239 14.0484ZM3.92606 11.8583C3.92606 11.6546 3.74041 11.4849 3.52105 11.4849C3.3017 11.4849 3.11574 11.6546 3.11574 11.8583C3.11574 12.0617 3.3014 12.2314 3.52105 12.2314C3.74071 12.2314 3.92606 12.0617 3.92606 11.8583ZM4.93919 11.8583C4.93919 11.6546 4.77039 11.4849 4.53418 11.4849C4.31483 11.4849 4.12917 11.6546 4.12917 11.8583C4.12917 12.0617 4.31483 12.2314 4.53418 12.2314C4.77039 12.2314 4.93919 12.0617 4.93919 11.8583ZM5.96856 16.2382C5.96856 16.0343 5.78291 15.8648 5.56325 15.8648C5.3439 15.8648 5.15824 16.0346 5.15824 16.2382C5.15824 16.425 5.3439 16.6117 5.56325 16.6117C5.78291 16.612 5.96856 16.425 5.96856 16.2382ZM6.98139 16.2382C6.98139 16.0343 6.79573 15.8648 6.57638 15.8648C6.35702 15.8648 6.17107 16.0346 6.17107 16.2382C6.17107 16.425 6.35672 16.6117 6.57638 16.6117C6.79573 16.612 6.98139 16.425 6.98139 16.2382ZM6.94769 14.5066V12.6566H6.17107V14.5574C6.17107 14.795 6.01911 14.9309 5.79976 14.9309C5.5467 14.9309 5.15854 14.8628 4.95574 14.7611V12.7916C4.77008 12.6899 4.38162 12.5882 3.97692 12.5882C3.03149 12.5882 2.55908 13.2673 2.55908 14.099C2.55908 15.0837 3.1669 15.4738 3.79126 15.4738C4.0967 15.4745 4.39578 15.386 4.65213 15.219C4.98974 15.3891 5.4116 15.4738 5.81691 15.4738C6.47498 15.4741 6.94769 15.2535 6.94769 14.5066ZM25.7171 14.8973C25.6432 14.9318 25.5625 14.9492 25.4809 14.9481C24.9914 14.9481 24.924 14.4894 24.924 14.0484C24.924 13.5219 25.0251 13.0637 25.4809 13.0637C25.5486 13.0637 25.6497 13.0637 25.7171 13.0973V14.8973ZM11.1169 14.8973C11.0429 14.9318 10.9621 14.9492 10.8804 14.9481C10.3912 14.9481 10.3235 14.4894 10.3235 14.0484C10.3235 13.5219 10.4246 13.0637 10.8804 13.0637C10.9478 13.0637 11.0661 13.0637 11.1169 13.0973V14.8973ZM4.17942 14.9136C4.09517 14.9478 4.01062 14.9817 3.90951 14.9817C3.4031 14.9817 3.3694 14.4558 3.3694 14.0651C3.3694 13.675 3.41995 13.0467 3.92637 13.0467C4.01092 13.0467 4.09547 13.064 4.17972 13.0976L4.17942 14.9136ZM35.642 15.406V13.0128C35.642 12.6394 35.8111 12.4696 35.5914 12.1125C35.3892 11.8072 35.642 11.5696 35.642 11.5696H36.4183C36.4183 11.5696 36.1655 11.8244 36.3849 12.1125C36.6042 12.4015 36.4183 12.6899 36.4183 13.0292V15.406H35.642Z" fill="black"/>
<path fill-rule="evenodd" clip-rule="evenodd" d="M48.3517 6.37485C48.5208 6.45959 48.6391 6.62936 48.6219 6.76524C48.5879 6.90112 48.4363 6.95197 48.2675 6.88418C48.0984 6.79944 47.9801 6.62967 47.9973 6.49379C48.0316 6.35791 48.1832 6.30676 48.3517 6.37485ZM48.7573 3.64152C48.8918 3.70961 48.9935 3.82824 48.9767 3.91298C48.9767 3.99801 48.8584 4.01496 48.7065 3.94687C48.572 3.87908 48.4703 3.76015 48.4871 3.67541C48.4871 3.59068 48.6222 3.57373 48.7573 3.64152ZM48.7907 3.37006C48.909 3.4209 48.9935 3.52289 48.9764 3.59068C48.9764 3.67572 48.8753 3.67572 48.757 3.62457C48.6388 3.55678 48.5542 3.47175 48.5714 3.38701C48.5717 3.31892 48.6728 3.31892 48.7907 3.37006ZM48.8244 3.0986C48.9261 3.16639 49.0101 3.25113 49.0101 3.30227C48.9935 3.37006 48.909 3.37006 48.7907 3.31922C48.6896 3.26838 48.6051 3.18364 48.6219 3.11555C48.6222 3.06441 48.7233 3.04746 48.8244 3.0986ZM48.8584 2.84379C48.9595 2.89463 49.0272 2.96272 49.0272 3.03051C49.0101 3.08135 48.9427 3.08135 48.8244 3.03051C48.7233 2.97967 48.6556 2.91158 48.6728 2.84379C48.6728 2.79295 48.7573 2.79295 48.8584 2.84379ZM48.8918 2.58898C48.9764 2.63982 49.0441 2.70791 49.0441 2.75906C49.0441 2.8099 48.9595 2.82684 48.8584 2.776C48.7739 2.72516 48.7062 2.64012 48.7062 2.58928C48.7233 2.55508 48.7907 2.55509 48.8918 2.58898ZM48.909 2.38531C49.0101 2.41921 49.0606 2.48699 49.0606 2.53814C49.0606 2.57203 48.9767 2.57203 48.8918 2.53814C48.8079 2.4873 48.7573 2.41921 48.7573 2.38531C48.7573 2.33447 48.8244 2.33447 48.909 2.38531ZM48.9424 2.1647C49.0269 2.19859 49.0775 2.24973 49.0775 2.30057C49.0603 2.35142 49.0098 2.33447 48.9258 2.30057C48.8413 2.26668 48.7907 2.21554 48.7907 2.1647C48.8079 2.11385 48.8584 2.1308 48.9424 2.1647ZM48.9767 1.94408C49.0444 1.97797 49.0949 2.02882 49.0949 2.06301C49.0778 2.11385 49.0272 2.09691 48.9598 2.06301C48.8924 2.02912 48.8416 1.97828 48.8416 1.94408C48.8416 1.90988 48.909 1.91019 48.9767 1.94408ZM48.9935 1.74011C49.0606 1.774 49.1118 1.82484 49.1118 1.85904C49.0946 1.89294 49.0441 1.87599 48.9767 1.85904C48.9261 1.82515 48.8756 1.77431 48.8756 1.74011C48.8918 1.70621 48.9261 1.72346 48.9935 1.74011ZM49.0272 1.55339C49.0778 1.57064 49.1118 1.60423 49.1118 1.63843C49.1118 1.67232 49.0606 1.65537 49.0101 1.63843C48.9595 1.60453 48.909 1.57064 48.909 1.53674C48.9261 1.51949 48.9595 1.51949 49.0272 1.55339ZM49.0441 1.36667C49.0946 1.38391 49.128 1.41781 49.128 1.43476C49.1115 1.46865 49.0775 1.46865 49.0441 1.43476C48.9935 1.41781 48.9595 1.38391 48.9595 1.35002C48.9595 1.33307 48.9935 1.33307 49.0441 1.36667ZM48.2004 7.34236C48.0481 7.27426 47.9642 7.12174 47.9807 7.00281C47.9979 6.88387 48.133 6.83303 48.2681 6.90112C48.4026 6.96891 48.5043 7.10479 48.4874 7.24067C48.47 7.3593 48.3517 7.3935 48.2004 7.34236ZM48.1155 7.91947C47.9639 7.85168 47.8793 7.7158 47.8962 7.57992C47.9133 7.46098 48.0313 7.41014 48.1829 7.47823C48.318 7.54633 48.4023 7.6819 48.3857 7.80084C48.3689 7.93672 48.2506 7.98756 48.1155 7.91947ZM48.0144 8.53078C47.8793 8.46268 47.7782 8.32711 47.8116 8.19123C47.8288 8.07229 47.9467 8.02145 48.0818 8.07229C48.2169 8.14039 48.3012 8.27596 48.284 8.41184C48.2678 8.53077 48.1498 8.58162 48.0144 8.53078ZM47.8965 9.19262C47.7782 9.14178 47.6768 8.98895 47.7108 8.87032C47.728 8.73444 47.8459 8.6836 47.9804 8.73444C48.1155 8.80253 48.2001 8.93811 48.1832 9.07399C48.1498 9.19262 48.0316 9.24377 47.8965 9.19262ZM47.7948 9.87202C47.6765 9.80393 47.6091 9.6853 47.626 9.56637C47.6428 9.44743 47.7442 9.39659 47.8622 9.44743C47.918 9.47015 47.9648 9.51075 47.9954 9.56295C48.026 9.61514 48.0386 9.67601 48.0313 9.73614C48.0144 9.85477 47.9133 9.90592 47.7948 9.87202ZM47.6603 10.6697C47.542 10.6359 47.4746 10.4997 47.4911 10.381C47.5083 10.2621 47.6094 10.1943 47.728 10.2455C47.8291 10.2963 47.9136 10.4152 47.8968 10.5339C47.8622 10.6528 47.7614 10.7206 47.6603 10.6697ZM47.508 11.5525C47.4069 11.5186 47.3392 11.3827 47.3563 11.2638C47.3729 11.1621 47.4746 11.094 47.5757 11.1449C47.6768 11.1788 47.728 11.2977 47.7108 11.4163C47.6937 11.5356 47.6091 11.5864 47.508 11.5525ZM47.3563 12.418C47.2718 12.3844 47.2212 12.2828 47.2381 12.1805C47.2546 12.0788 47.322 12.0279 47.4237 12.0615C47.5077 12.0788 47.5582 12.1805 47.542 12.2991C47.508 12.4014 47.4403 12.4522 47.3563 12.418ZM48.9424 6.68051C49.0775 6.7483 49.1792 6.88418 49.162 7.00281C49.1449 7.12144 49.0438 7.15563 48.9087 7.08784C48.757 7.02006 48.6725 6.88418 48.6725 6.76524C48.7062 6.66326 48.8079 6.62936 48.9424 6.68051ZM49.5336 6.91807C49.7024 7.00281 49.8204 7.17258 49.8204 7.30846C49.8033 7.44434 49.6681 7.49518 49.4996 7.42739C49.3308 7.34266 49.2129 7.17288 49.2129 7.02006C49.2297 6.88418 49.3645 6.83333 49.5336 6.91807ZM53.9725 6.44295C53.8886 6.40905 53.8542 6.40905 53.8714 6.47684C53.8714 6.54463 53.9391 6.62967 54.0237 6.68051C54.0908 6.7144 54.1248 6.7144 54.1248 6.64661C54.1076 6.57852 54.0402 6.49379 53.9725 6.44295ZM53.5001 6.17118C53.4324 6.13729 53.3818 6.15424 53.399 6.20508C53.4161 6.25592 53.4667 6.34096 53.5341 6.37485C53.6015 6.40875 53.6523 6.40875 53.6352 6.35791C53.618 6.29012 53.5675 6.22203 53.5001 6.17118ZM53.5675 6.56157C53.4998 6.51073 53.4492 6.52768 53.4492 6.59547C53.4664 6.66326 53.5338 6.74799 53.6015 6.79914C53.6854 6.83303 53.7197 6.81609 53.7197 6.76524C53.7029 6.69715 53.6352 6.61242 53.5675 6.56157ZM53.0951 6.25592C52.9934 6.20508 52.9428 6.23898 52.9428 6.30676C52.96 6.37486 53.0445 6.47654 53.1285 6.52738C53.213 6.57822 53.2807 6.56127 53.2636 6.49348C53.2639 6.40875 53.179 6.30676 53.0951 6.25592ZM51.9131 10.7206C51.7949 10.6525 51.7109 10.7036 51.7109 10.8395C51.7275 10.9754 51.812 11.1282 51.9303 11.196C52.0486 11.2638 52.1331 11.213 52.1331 11.0771C52.116 10.9415 52.032 10.7887 51.9131 10.7206ZM51.3225 9.61721C51.1874 9.54912 51.0863 9.60026 51.0863 9.73614C51.0863 9.88897 51.1874 10.0587 51.3225 10.1265C51.4576 10.2116 51.5587 10.1435 51.5587 10.0076C51.559 9.85477 51.4579 9.685 51.3225 9.61721ZM50.6978 8.66665C50.5633 8.59887 50.4616 8.64971 50.4616 8.78559C50.4616 8.92147 50.5633 9.07429 50.6978 9.14208C50.8329 9.20987 50.9346 9.15903 50.9346 9.02315C50.9346 8.88727 50.8332 8.73444 50.6978 8.66665ZM50.2089 4.72826C50.0906 4.66016 49.9892 4.67741 49.9892 4.76215C49.9892 4.84689 50.0909 4.96582 50.2089 5.01666C50.3271 5.08475 50.4282 5.06781 50.4282 4.98277C50.4282 4.89773 50.3271 4.77879 50.2089 4.72826ZM52.6732 6.40875C52.5715 6.35791 52.521 6.37485 52.521 6.44264C52.5381 6.52738 52.6055 6.62936 52.7066 6.6802C52.7912 6.73105 52.8589 6.7141 52.8589 6.62936C52.8417 6.56157 52.7572 6.45959 52.6732 6.40875ZM52.1837 6.12034C52.0826 6.0695 52.0149 6.1034 52.032 6.17118C52.032 6.25622 52.116 6.35791 52.2171 6.4257C52.3188 6.47654 52.3862 6.45959 52.3862 6.37485C52.3693 6.29012 52.2848 6.18813 52.1837 6.12034ZM51.2385 6.00141C51.1197 5.93362 51.0357 5.96752 51.0357 6.05225C51.0357 6.15394 51.1368 6.27287 51.2551 6.32371C51.3733 6.3915 51.4579 6.3576 51.4579 6.27287C51.4407 6.17118 51.3568 6.05225 51.2385 6.00141ZM51.7109 5.83164C51.5927 5.78079 51.4913 5.79774 51.5081 5.89973C51.5081 5.98446 51.6092 6.12034 51.7275 6.18843C51.8626 6.25653 51.9472 6.22233 51.9472 6.12065C51.9303 6.0353 51.8292 5.89942 51.7109 5.83164ZM51.2045 5.55988C51.0529 5.49209 50.9512 5.50904 50.9512 5.62797C50.9683 5.72965 51.0694 5.86553 51.2214 5.95057C51.3565 6.01836 51.4576 5.98446 51.4576 5.88248C51.4579 5.76355 51.3396 5.62797 51.2045 5.55988ZM50.715 5.7127C50.5967 5.64491 50.4956 5.67881 50.4956 5.78079C50.4956 5.88248 50.5967 6.00141 50.7318 6.08645C50.8501 6.13729 50.9512 6.12034 50.9512 6.01836C50.9512 5.91637 50.8501 5.78079 50.715 5.7127ZM50.1072 7.76694C49.9727 7.69915 49.871 7.74999 49.8538 7.86893C49.8538 7.98786 49.9555 8.14038 50.0906 8.20848C50.2251 8.27626 50.3434 8.22542 50.3434 8.10649C50.3437 7.97061 50.2426 7.83473 50.1072 7.76694ZM50.1415 7.22373C49.9892 7.15563 49.8713 7.20678 49.8541 7.32541C49.8541 7.46129 49.9558 7.61412 50.1075 7.69885C50.2597 7.76664 50.3777 7.7158 50.3942 7.59686C50.3942 7.46129 50.276 7.30846 50.1415 7.22373ZM50.1577 6.73135C49.9889 6.64661 49.871 6.69746 49.8538 6.81609C49.8538 6.96891 49.9727 7.13869 50.1412 7.20678C50.2928 7.29151 50.4279 7.24067 50.4279 7.10509C50.4282 6.96891 50.31 6.79914 50.1577 6.73135ZM50.1749 6.25592C50.0232 6.18783 49.8881 6.22203 49.8881 6.34066C49.871 6.45959 49.9892 6.62936 50.1577 6.7141C50.31 6.78189 50.4279 6.74799 50.4451 6.61211C50.4451 6.49379 50.3271 6.34096 50.1749 6.25592ZM50.1749 5.84858C50.0398 5.78079 49.9387 5.81469 49.9215 5.91668C49.9215 6.01836 50.0232 6.15424 50.1577 6.22233C50.31 6.29042 50.4111 6.25622 50.4111 6.15424C50.4111 6.05225 50.31 5.91637 50.1749 5.84858ZM50.192 5.424C50.0398 5.37315 49.9387 5.3901 49.9218 5.49209C49.9218 5.61102 50.0401 5.7466 50.192 5.83164C50.3271 5.89973 50.4454 5.86553 50.4454 5.76385C50.4451 5.64491 50.3437 5.50903 50.192 5.424Z" fill="black"/>
<path fill-rule="evenodd" clip-rule="evenodd" d="M50.2087 5.05062C50.0565 4.98283 49.9554 5.01672 49.9385 5.11871C49.9385 5.22069 50.0568 5.35627 50.1919 5.42436C50.3435 5.49245 50.4452 5.4752 50.4452 5.37352C50.4449 5.27123 50.3435 5.11871 50.2087 5.05062ZM49.2633 3.93029C49.1622 3.87945 49.0776 3.89639 49.0776 3.96418C49.0605 4.03227 49.1453 4.11701 49.2465 4.16785C49.3482 4.20175 49.4156 4.20175 49.4321 4.13396C49.4318 4.06617 49.3644 3.98113 49.2633 3.93029ZM49.2633 3.64158C49.1793 3.59074 49.1117 3.60769 49.0945 3.65853C49.0945 3.70937 49.1622 3.79441 49.2633 3.84525C49.3479 3.87914 49.4156 3.87914 49.4321 3.8283C49.4318 3.76051 49.3644 3.67578 49.2633 3.64158ZM49.2802 3.37012C49.1956 3.31928 49.1279 3.31928 49.1279 3.37012C49.1279 3.42097 49.1791 3.48906 49.263 3.52295C49.3476 3.57379 49.4153 3.55684 49.4153 3.52295C49.4156 3.47181 49.3644 3.40402 49.2802 3.37012ZM49.2802 3.09867C49.2124 3.06477 49.1619 3.06477 49.1451 3.09867C49.1451 3.14951 49.1956 3.20035 49.2633 3.23424C49.3479 3.26814 49.3984 3.26814 49.3984 3.23424C49.4156 3.1834 49.3479 3.13256 49.2802 3.09867ZM49.2802 2.84385C49.2124 2.80996 49.1619 2.80996 49.1619 2.84385C49.1619 2.8947 49.2124 2.94554 49.2802 2.97973C49.3479 3.01363 49.3984 3.01363 49.3984 2.96279C49.3984 2.92859 49.3479 2.87775 49.2802 2.84385ZM49.2973 2.58904C49.2296 2.55515 49.179 2.55515 49.179 2.58904C49.179 2.62294 49.2296 2.67408 49.2802 2.69103C49.3479 2.72492 49.3813 2.74187 49.3984 2.69103C49.3984 2.65713 49.3479 2.62294 49.2973 2.58904ZM49.2973 2.36842C49.2462 2.33453 49.1956 2.33453 49.1956 2.36842C49.1956 2.40232 49.2296 2.43652 49.2802 2.47011C49.3479 2.48706 49.3813 2.504 49.3813 2.47011C49.3813 2.43652 49.3479 2.40232 49.2973 2.36842ZM49.2973 2.13086C49.2462 2.11392 49.2127 2.11392 49.2127 2.13086C49.2127 2.16476 49.2462 2.19865 49.2973 2.23255C49.3479 2.24949 49.3813 2.24949 49.3813 2.23255C49.3813 2.19865 49.3479 2.16476 49.2973 2.13086ZM48.8583 7.56333C48.9594 7.61418 49.0439 7.58028 49.0605 7.49524C49.0605 7.39356 48.9934 7.29158 48.8917 7.24073C48.7734 7.18989 48.6895 7.22379 48.6723 7.30852C48.6726 7.41051 48.74 7.51219 48.8583 7.56333ZM48.7737 8.15739C48.8754 8.19129 48.9594 8.15739 48.9765 8.07266C48.9937 7.97098 48.9088 7.86899 48.8077 7.81815C48.7232 7.78425 48.6389 7.81815 48.6221 7.90288C48.6049 8.00457 48.6726 8.10655 48.7737 8.15739ZM48.6555 8.75145C48.7572 8.80229 48.8411 8.75145 48.8583 8.66641C48.8592 8.61389 48.8455 8.56216 48.8185 8.51715C48.7916 8.47213 48.7526 8.43566 48.706 8.4119C48.6049 8.37801 48.521 8.4119 48.5038 8.51389C48.487 8.59893 48.5544 8.70061 48.6555 8.75145ZM48.5544 9.4136C48.6555 9.4475 48.7232 9.4136 48.74 9.31192C48.7572 9.22688 48.6895 9.1252 48.6049 9.07405C48.5038 9.04016 48.4193 9.07405 48.4021 9.17574C48.4021 9.26077 48.4533 9.36246 48.5544 9.4136ZM48.4193 10.0588C48.5038 10.0927 48.5881 10.0588 48.6049 9.95682C48.6049 9.87208 48.5544 9.78704 48.4698 9.7362C48.4511 9.72831 48.4309 9.72475 48.4106 9.72579C48.3903 9.72683 48.3705 9.73243 48.3527 9.7422C48.3349 9.75196 48.3195 9.76563 48.3076 9.78219C48.2958 9.79876 48.2877 9.81779 48.2842 9.83789C48.2842 9.92292 48.3353 10.0246 48.4193 10.0588ZM48.2676 10.8396C48.3516 10.8735 48.4193 10.8396 48.4364 10.7379C48.4364 10.6529 48.3859 10.5681 48.3182 10.5342C48.2336 10.4834 48.1659 10.5342 48.1494 10.619C48.1421 10.6637 48.1497 10.7096 48.1711 10.7495C48.1925 10.7895 48.2265 10.8211 48.2676 10.8396ZM50.6977 5.32238C50.5794 5.25428 50.4783 5.28848 50.4783 5.37322C50.4783 5.4749 50.5794 5.59383 50.6977 5.66162C50.8328 5.72971 50.9345 5.69552 50.9345 5.61078C50.9176 5.5091 50.8331 5.39016 50.6977 5.32238ZM50.6977 6.154C50.5966 6.10316 50.5126 6.1201 50.5126 6.20484C50.5126 6.28988 50.5966 6.40851 50.6977 6.45935C50.8159 6.51019 50.9005 6.49324 50.9005 6.39126C50.9005 6.30683 50.7994 6.20514 50.6977 6.154ZM50.6977 6.56164C50.5794 6.5108 50.4955 6.52774 50.4783 6.62943C50.4783 6.74836 50.5794 6.86729 50.6977 6.93478C50.8328 7.00287 50.9173 6.96867 50.9173 6.86699C50.9176 6.76531 50.8331 6.62943 50.6977 6.56164ZM50.6977 8.07236C50.5794 8.02151 50.4783 8.05541 50.4783 8.17434C50.4783 8.29327 50.5629 8.42885 50.6811 8.48C50.8156 8.54778 50.9005 8.51389 50.9005 8.39496C50.9005 8.27633 50.8159 8.14045 50.6977 8.07236ZM52.6225 5.98422C52.5208 5.93338 52.4534 5.95033 52.4534 6.03506C52.4706 6.1201 52.5551 6.22178 52.6562 6.28988C52.7573 6.34072 52.825 6.32377 52.825 6.23903C52.8082 6.154 52.7236 6.05231 52.6225 5.98422ZM51.3055 10.3303C51.1872 10.2794 51.1033 10.3303 51.1033 10.4492C51.1033 10.5851 51.1872 10.7379 51.3055 10.7887C51.4238 10.8565 51.5083 10.8057 51.5083 10.6698C51.4912 10.5509 51.4072 10.3984 51.3055 10.3303ZM51.9473 11.4678C51.8462 11.4001 51.7617 11.4509 51.7617 11.5868C51.7617 11.7227 51.8462 11.8755 51.9645 11.9433C52.0656 12.0114 52.1501 11.9433 52.1333 11.8246C52.1327 11.7546 52.1155 11.6857 52.0831 11.6236C52.0508 11.5616 52.0043 11.5082 51.9473 11.4678ZM50.6643 9.29467C50.546 9.24383 50.4449 9.29467 50.4449 9.4136C50.4449 9.54948 50.546 9.70231 50.6643 9.75315C50.7825 9.82094 50.8836 9.7701 50.8836 9.63422C50.8833 9.51528 50.7994 9.36246 50.6643 9.29467ZM50.0908 8.37801C49.9557 8.32717 49.8711 8.36106 49.854 8.48C49.854 8.59893 49.9385 8.7345 50.0568 8.80229C50.1919 8.85313 50.2761 8.81924 50.293 8.68336C50.293 8.58168 50.1919 8.4461 50.0908 8.37801ZM49.4995 7.4783C49.3644 7.42745 49.2633 7.46135 49.2462 7.57998C49.2462 7.69891 49.3307 7.85174 49.4658 7.90258C49.6009 7.97067 49.7192 7.91953 49.7192 7.8009C49.7357 7.68197 49.6346 7.54639 49.4995 7.4783ZM50.6977 7.56333C50.5794 7.51249 50.4955 7.54639 50.4955 7.64807C50.4955 7.74975 50.5794 7.86869 50.6977 7.93678C50.8159 7.98762 50.9005 7.95372 50.9005 7.85204C50.9005 7.74975 50.8159 7.61418 50.6977 7.56333ZM50.2253 4.40572C50.107 4.35487 50.0396 4.35487 50.0231 4.42266C50.0231 4.5074 50.107 4.59244 50.2087 4.66023C50.327 4.71107 50.3938 4.69412 50.3938 4.60939C50.3941 4.54129 50.327 4.45656 50.2253 4.40572ZM52.1498 5.76361C52.0653 5.71277 52.0147 5.72971 52.0147 5.7975C52.0147 5.86529 52.0824 5.95033 52.1835 6.00117C52.2512 6.03507 52.3186 6.01812 52.3186 5.95033C52.3015 5.89949 52.2341 5.7978 52.1498 5.76361ZM51.2718 6.90119C51.1707 6.85034 51.103 6.86729 51.103 6.95203C51.103 7.03676 51.1869 7.13875 51.2718 7.18959C51.3729 7.24043 51.4406 7.20654 51.4406 7.13875C51.4406 7.05401 51.3567 6.95203 51.2718 6.90119ZM51.289 8.98932C51.1707 8.93848 51.0861 8.98932 51.0861 9.091C51.0861 9.22688 51.1707 9.36246 51.289 9.43055C51.4235 9.49834 51.5083 9.44749 51.5083 9.32856C51.4912 9.19268 51.4072 9.05711 51.289 8.98932ZM50.6977 7.07096C50.5966 7.02012 50.5126 7.05401 50.4955 7.13905C50.4955 7.24074 50.5966 7.35967 50.6977 7.41051C50.8159 7.4783 50.9005 7.4444 50.9005 7.34242C50.9005 7.24043 50.8159 7.13875 50.6977 7.07096ZM51.8291 7.66502C51.7274 7.61418 51.6434 7.64807 51.6434 7.73281C51.6606 7.83479 51.7445 7.95342 51.8462 8.02151C51.9473 8.07235 52.0319 8.05541 52.0319 7.95342C52.0147 7.85174 51.9302 7.71616 51.8291 7.66502ZM52.4369 12.7237C52.3523 12.6729 52.2846 12.7237 52.2846 12.8427C52.3018 12.9622 52.3692 13.0975 52.4534 13.1653C52.538 13.2161 52.6057 13.1653 52.6057 13.0463C52.5882 12.9277 52.5208 12.7918 52.4369 12.7237ZM51.7445 6.27293C51.6434 6.22209 51.5757 6.23904 51.5757 6.32377C51.5757 6.40881 51.6603 6.51049 51.7614 6.56164C51.8625 6.61248 51.9302 6.59553 51.9302 6.5108C51.913 6.42576 51.8291 6.32377 51.7445 6.27293ZM49.7192 4.16785C49.6346 4.11701 49.5501 4.13396 49.5501 4.20175C49.5501 4.25259 49.6178 4.33762 49.7192 4.38847C49.8031 4.43931 49.888 4.42236 49.888 4.35457C49.888 4.30373 49.8203 4.21869 49.7192 4.16785ZM50.6814 4.33763C50.5969 4.28678 50.5292 4.30373 50.5292 4.35457C50.5292 4.42266 50.5969 4.5074 50.698 4.55824C50.7825 4.59213 50.8502 4.59213 50.8502 4.52435C50.8499 4.45656 50.7825 4.38847 50.6814 4.33763ZM51.6768 5.52604C51.6091 5.4752 51.5586 5.49215 51.5586 5.54299C51.5586 5.61108 51.6263 5.67887 51.6937 5.72971C51.7782 5.76361 51.8288 5.74666 51.8288 5.69582C51.8291 5.62803 51.7614 5.55994 51.6768 5.52604ZM51.2549 7.37661C51.1538 7.32577 51.0861 7.35967 51.0861 7.4444C51.1033 7.52944 51.1707 7.64807 51.2718 7.69922C51.3564 7.75006 51.4406 7.71616 51.4406 7.63112C51.4406 7.54639 51.3567 7.42715 51.2549 7.37661ZM51.7785 7.18959C51.694 7.13875 51.6434 7.1557 51.6434 7.24043C51.6434 7.30822 51.7111 7.41021 51.7951 7.4441C51.8796 7.49494 51.9473 7.47799 51.9473 7.39326C51.9302 7.32547 51.8625 7.22379 51.7785 7.18959ZM52.352 7.97067C52.2509 7.91983 52.1832 7.95372 52.2004 8.03846C52.2004 8.1235 52.2843 8.24213 52.3692 8.30992C52.4703 8.36106 52.538 8.32717 52.5208 8.22518C52.5208 8.14045 52.4369 8.02151 52.352 7.97067ZM53.1283 6.68057C53.0606 6.64667 53.0101 6.66332 53.0101 6.73141C53.0272 6.7995 53.0946 6.88424 53.1623 6.91813C53.2463 6.96897 53.2975 6.95203 53.2806 6.88424C53.2638 6.81645 53.2132 6.73141 53.1283 6.68057ZM50.6814 4.04922C50.5969 4.01533 50.5292 4.01533 50.5292 4.06617C50.5463 4.11701 50.5969 4.20205 50.6814 4.23594C50.7654 4.26984 50.8159 4.26984 50.8159 4.219C50.8159 4.16785 50.7488 4.10006 50.6814 4.04922ZM50.6977 4.66023C50.5966 4.60939 50.546 4.62633 50.546 4.69412C50.546 4.74496 50.6137 4.83 50.6977 4.86389C50.7822 4.91474 50.8499 4.89779 50.8499 4.84695C50.8331 4.77886 50.7825 4.71107 50.6977 4.66023ZM52.5043 11.943C52.4026 11.8921 52.3352 11.926 52.3352 12.0619C52.3523 12.1808 52.4369 12.3337 52.5208 12.4184C52.6225 12.4698 52.6896 12.4356 52.6896 12.2995C52.6893 12.1639 52.6054 12.0108 52.5043 11.943ZM50.2253 4.11701C50.1413 4.06617 50.0736 4.08312 50.0736 4.13396C50.0736 4.1848 50.1413 4.26984 50.2253 4.30373C50.3098 4.35457 50.3604 4.33763 50.3775 4.28678C50.3604 4.23594 50.3098 4.1509 50.2253 4.11701ZM51.2384 6.45965C51.1538 6.40881 51.0861 6.42576 51.0861 6.49355C51.0861 6.56133 51.1538 6.64637 51.2384 6.69721C51.3224 6.73111 51.3901 6.71446 51.3729 6.64637C51.3729 6.57858 51.3055 6.49385 51.2384 6.45965ZM51.1872 5.27123C51.1195 5.23734 51.069 5.25428 51.069 5.30513C51.069 5.35597 51.1195 5.42406 51.2041 5.45795C51.2718 5.49185 51.3224 5.4749 51.3052 5.42406C51.3055 5.37322 51.255 5.30543 51.1872 5.27123ZM51.289 8.4461C51.2044 8.39526 51.1367 8.42915 51.1367 8.51419C51.1367 8.59893 51.2044 8.68397 51.289 8.73481C51.3729 8.78565 51.4406 8.75206 51.4235 8.66702C51.4235 8.58168 51.3567 8.47999 51.289 8.4461ZM51.913 10.0246C51.8119 9.97377 51.7442 10.0077 51.7442 10.1263C51.7442 10.228 51.8288 10.3642 51.9299 10.415C52.0144 10.4658 52.0821 10.4319 52.0821 10.313C52.0824 10.2116 51.9979 10.0754 51.913 10.0246ZM50.6977 5.03367C50.6306 4.99978 50.5794 5.01642 50.5794 5.05062C50.5794 5.10176 50.6306 5.16955 50.6977 5.20344C50.7654 5.22069 50.8159 5.22069 50.8159 5.16955C50.8065 5.13996 50.7912 5.11263 50.7708 5.08925C50.7505 5.06588 50.7256 5.04696 50.6977 5.03367ZM51.9302 12.2314C51.8625 12.1805 51.7951 12.2314 51.7951 12.3337C51.7951 12.4353 51.8628 12.537 51.9302 12.5885C52.0147 12.6393 52.0653 12.5885 52.0653 12.4862C52.0653 12.3845 51.9979 12.2828 51.9302 12.2314ZM54.378 6.71446C54.3268 6.69721 54.2934 6.69722 54.2934 6.74836C54.3106 6.7992 54.3611 6.86729 54.4117 6.90119C54.4794 6.93508 54.5128 6.93508 54.4962 6.88424C54.4791 6.8334 54.4285 6.7653 54.378 6.71446ZM52.2341 6.56164C52.1501 6.52774 52.099 6.54439 52.099 6.61248C52.1161 6.68057 52.1835 6.76531 52.2512 6.81615C52.3352 6.85004 52.3863 6.8334 52.3863 6.76531C52.3692 6.69722 52.3015 6.61248 52.2341 6.56164ZM51.1538 4.30373C51.0861 4.26984 51.0187 4.26984 51.0187 4.32068C51.044 4.38633 51.092 4.4406 51.1538 4.4735C51.2384 4.5074 51.289 4.5074 51.289 4.45656C51.2638 4.39083 51.2158 4.33652 51.1538 4.30373ZM54.0401 6.86729C53.9724 6.81615 53.9218 6.8334 53.939 6.90119C53.9561 6.95203 54.0067 7.02012 54.0741 7.07096C54.1418 7.10485 54.1752 7.10485 54.1752 7.03706C54.158 6.96897 54.0906 6.90119 54.0401 6.86729ZM52.8753 8.29327C52.7913 8.25938 52.7408 8.27633 52.7408 8.36136C52.7573 8.4461 52.8247 8.54809 52.9096 8.59893C52.9935 8.64977 53.0447 8.63282 53.0447 8.54809C53.0272 8.46275 52.9598 8.34411 52.8753 8.29327ZM54.8332 7.02012C54.7827 6.98622 54.7487 7.00287 54.7487 7.05401C54.7658 7.08791 54.8164 7.1557 54.8675 7.18989C54.9009 7.22379 54.9346 7.20684 54.9346 7.17295C54.9181 7.1218 54.8675 7.05401 54.8332 7.02012ZM53.0272 5.93338C52.9767 5.89949 52.9427 5.89949 52.9427 5.95033C52.9598 6.00117 53.0104 6.05201 53.0609 6.08621C53.1121 6.1201 53.1626 6.1201 53.1455 6.06926C53.1455 6.01842 53.0949 5.95063 53.0272 5.93338ZM52.791 13.556C52.7233 13.4879 52.6728 13.5387 52.6893 13.6404C52.6893 13.7593 52.7405 13.8952 52.8082 13.9461C52.8921 14.0141 52.9427 13.9633 52.9264 13.8444C52.9264 13.7427 52.8587 13.6068 52.791 13.556ZM51.3055 11.0941C51.2215 11.0602 51.1538 11.0941 51.1538 11.1961C51.1538 11.2978 51.2215 11.4167 51.3055 11.4675C51.3901 11.5014 51.4578 11.4675 51.4578 11.3659C51.4406 11.2639 51.3901 11.1452 51.3055 11.0941ZM52.3186 7.51219C52.2509 7.4783 52.2169 7.49524 52.2169 7.54608C52.2169 7.59693 52.2681 7.68197 52.3352 7.71586C52.3863 7.74975 52.4369 7.73281 52.4369 7.66502C52.4127 7.60382 52.3717 7.55081 52.3186 7.51219ZM51.1198 4.01533C51.0527 3.98143 51.0016 3.98143 51.0016 4.03227C51.0187 4.06617 51.0527 4.11701 51.1198 4.15121C51.1876 4.1851 51.2387 4.1851 51.2216 4.13426C51.2216 4.10006 51.171 4.04922 51.1198 4.01533ZM51.5589 4.25289C51.5083 4.23594 51.4749 4.23594 51.4749 4.26984C51.4749 4.30373 51.5255 4.35457 51.576 4.37182C51.6266 4.40572 51.6606 4.40572 51.6437 4.37182C51.6434 4.32068 51.6094 4.28678 51.5589 4.25289ZM50.6643 10.0754C50.5966 10.0416 50.5292 10.0754 50.5292 10.1605C50.5292 10.2283 50.5797 10.3303 50.6643 10.3642C50.732 10.3981 50.7994 10.3811 50.7994 10.2961C50.7994 10.211 50.7488 10.1266 50.6643 10.0754ZM50.0396 9.091C49.9557 9.04016 49.888 9.07405 49.888 9.14184C49.888 9.22658 49.9385 9.31161 50.0231 9.34551C50.0908 9.3794 50.1413 9.34551 50.1576 9.27772C50.1551 9.23914 50.143 9.20182 50.1223 9.16918C50.1017 9.13655 50.0733 9.10966 50.0396 9.091ZM49.4318 8.15739C49.3641 8.1235 49.3136 8.15739 49.2973 8.20854C49.2973 8.29327 49.3479 8.36136 49.4156 8.39526C49.4995 8.42915 49.5501 8.41221 49.5672 8.34442C49.5669 8.27633 49.5164 8.19129 49.4318 8.15739ZM51.5252 3.98113C51.4746 3.96418 51.4235 3.96418 51.4235 3.99808C51.4406 4.03197 51.4746 4.08281 51.5252 4.09976C51.5929 4.13365 51.6263 4.13365 51.6263 4.09976C51.6263 4.04922 51.5757 4.01533 51.5252 3.98113ZM51.8625 3.98113C51.8119 3.96418 51.7785 3.96418 51.7785 3.98113C51.7785 4.03197 51.8291 4.06586 51.8625 4.08281C51.913 4.11671 51.947 4.11671 51.947 4.08281C51.9473 4.04922 51.8968 4.01533 51.8625 3.98113ZM53.3989 8.68366C53.3483 8.64977 53.3143 8.66672 53.3143 8.71756C53.3315 8.78535 53.3648 8.85313 53.4326 8.88733C53.4831 8.92123 53.5171 8.90458 53.5171 8.83649C53.5 8.78535 53.4663 8.71756 53.3989 8.68366ZM52.9427 8.81954C52.875 8.78565 52.8244 8.8026 52.8244 8.88733C52.8416 8.95542 52.8921 9.04016 52.9595 9.091C53.0272 9.1249 53.0778 9.091 53.0606 9.02321C53.0609 8.95512 53.0104 8.87038 52.9427 8.81954ZM52.3863 8.51389C52.3352 8.48 52.2846 8.49664 52.2846 8.56473C52.3018 8.61557 52.3523 8.70031 52.4029 8.7345C52.4706 8.7684 52.5211 8.75175 52.5046 8.68366C52.5043 8.63282 52.4531 8.54778 52.3863 8.51389ZM51.8462 8.20854C51.7785 8.17464 51.7445 8.19129 51.7445 8.24243C51.7445 8.31022 51.7951 8.37831 51.8462 8.41221C51.9133 8.42915 51.9473 8.41221 51.9473 8.36136C51.9473 8.30992 51.8968 8.24213 51.8462 8.20854ZM51.2718 7.90258C51.2212 7.86869 51.1707 7.88563 51.1707 7.93647C51.1707 8.00457 51.2212 8.05541 51.2718 8.0893C51.3395 8.1232 51.3729 8.10625 51.3729 8.05541C51.3711 8.0232 51.3607 7.99206 51.343 7.9652C51.3252 7.93834 51.3006 7.91672 51.2718 7.90258ZM53.4494 9.17574C53.3989 9.14184 53.3649 9.15879 53.3649 9.22658C53.3649 9.27742 53.416 9.36246 53.4666 9.39635C53.5171 9.43025 53.5677 9.4133 53.5505 9.34551C53.5505 9.29467 53.5 9.20993 53.4494 9.17574ZM53.9895 9.54948C53.939 9.51559 53.9056 9.54948 53.9218 9.60032C53.9218 9.65116 53.9558 9.71925 54.0064 9.75315C54.0569 9.80399 54.0903 9.7701 54.0741 9.71925C54.0741 9.66811 54.0235 9.60032 53.9895 9.54948ZM51.1538 4.60939C51.1033 4.57549 51.0527 4.59244 51.0527 4.62633C51.0527 4.67717 51.1033 4.72801 51.1538 4.76221C51.2215 4.77916 51.2549 4.77916 51.2549 4.74526C51.2549 4.69412 51.2044 4.64328 51.1538 4.60939ZM47.7275 6.12041C47.5753 6.06956 47.4573 6.10346 47.4402 6.20514C47.4236 6.32407 47.5079 6.45965 47.643 6.5108C47.7781 6.57858 47.9132 6.54469 47.9297 6.42576C47.9469 6.32377 47.862 6.18819 47.7275 6.12041ZM47.12 5.81445C46.9509 5.72971 46.7821 5.78056 46.7487 5.91644C46.7147 6.05232 46.8164 6.20514 47.002 6.28988C47.1871 6.37461 47.3394 6.32377 47.3728 6.18789C47.4068 6.05231 47.2885 5.88254 47.12 5.81445ZM42.5794 1.19726C42.6805 1.23115 42.7311 1.28199 42.6977 1.33314C42.6637 1.38398 42.5454 1.40092 42.4443 1.36673C42.3432 1.33314 42.2921 1.26504 42.3261 1.23115C42.3595 1.18031 42.4777 1.16306 42.5794 1.19726ZM43.2207 1.40062C43.3218 1.43452 43.3729 1.48566 43.3389 1.5365C43.3055 1.5704 43.2038 1.58734 43.1196 1.55345C43.0179 1.51955 42.9673 1.46871 43.0013 1.41787C43.0347 1.38398 43.1358 1.36673 43.2207 1.40062ZM43.0179 1.72353C43.1196 1.74047 43.1701 1.80826 43.153 1.8591C43.1196 1.90994 43.0013 1.92719 42.8996 1.893C42.7985 1.8591 42.7479 1.79131 42.7813 1.74017C42.8156 1.70628 42.9167 1.68963 43.0179 1.72353ZM43.6759 1.893C43.7948 1.94384 43.8616 2.01193 43.8282 2.07972C43.7948 2.13056 43.6759 2.14751 43.5414 2.11361C43.4232 2.06277 43.3558 1.99468 43.4063 1.92689C43.4397 1.87605 43.558 1.8591 43.6759 1.893ZM43.592 7.1218C43.7102 7.15569 43.7608 7.25768 43.7271 7.34242C43.6759 7.42715 43.5748 7.4783 43.4737 7.4441C43.3555 7.39326 43.3049 7.29127 43.3386 7.20654C43.3729 7.1218 43.4909 7.08791 43.592 7.1218ZM44.5205 6.61248C44.655 6.68057 44.7399 6.7992 44.7062 6.91813C44.655 7.03707 44.5034 7.08791 44.3511 7.03706C44.2166 6.96897 44.1318 6.85035 44.1823 6.73141C44.2329 6.61248 44.3683 6.56164 44.5205 6.61248ZM45.4485 6.30683C45.6008 6.37492 45.6847 6.51049 45.6513 6.62943C45.6173 6.76531 45.4657 6.7992 45.3134 6.74836C45.1618 6.68057 45.0607 6.54469 45.1112 6.42576C45.1446 6.30682 45.2969 6.25598 45.4485 6.30683ZM47.12 3.23424C47.2383 3.30233 47.3222 3.40402 47.3051 3.47181C47.2885 3.55685 47.1706 3.57379 47.0354 3.52265C46.9003 3.45486 46.8161 3.35287 46.8498 3.26814C46.8666 3.20035 46.9846 3.1834 47.12 3.23424ZM44.1149 2.43652C44.2332 2.47041 44.3006 2.55545 44.2672 2.60629C44.2166 2.67408 44.0984 2.69103 43.9798 2.65713C43.8616 2.60629 43.7948 2.5382 43.8282 2.47041C43.8619 2.40232 43.9798 2.38537 44.1149 2.43652ZM44.7227 2.64019C44.841 2.69103 44.9084 2.77607 44.875 2.84385C44.841 2.91195 44.7227 2.92859 44.6048 2.87775C44.4697 2.84385 44.4026 2.74187 44.436 2.67408C44.4694 2.60629 44.6045 2.58904 44.7227 2.64019ZM45.7524 3.42097C45.8875 3.48875 45.9721 3.59074 45.9381 3.67547C45.9047 3.74326 45.7864 3.77716 45.6342 3.72632C45.4991 3.65823 45.4148 3.55654 45.4485 3.4715C45.4825 3.38707 45.6173 3.37012 45.7524 3.42097ZM45.3134 2.84385C45.4657 2.8947 45.5496 3.01363 45.5162 3.08142C45.4828 3.16615 45.3474 3.20035 45.1955 3.13226C45.0438 3.08142 44.9592 2.96248 44.9933 2.87775C45.0267 2.80996 45.1786 2.77576 45.3134 2.84385ZM45.9209 3.06447C46.0732 3.13226 46.1743 3.25119 46.1406 3.35287C46.1066 3.43761 45.9549 3.47181 45.7861 3.40372C45.617 3.33593 45.5159 3.20005 45.5665 3.11501C45.6008 3.01363 45.7524 2.99668 45.9209 3.06447ZM46.3431 3.65853C46.4782 3.72662 46.5799 3.84525 46.5459 3.92999C46.5125 4.01502 46.3771 4.04892 46.242 3.98083C46.0903 3.91274 45.9886 3.79411 46.0226 3.70937C46.056 3.62463 46.1914 3.59074 46.3431 3.65853ZM46.3094 6.05231C46.4616 6.12041 46.5456 6.25598 46.5287 6.35797C46.4953 6.49385 46.3431 6.52774 46.1914 6.45965C46.0392 6.40881 45.9552 6.25598 45.9886 6.154C46.0226 6.03537 46.1743 5.98422 46.3094 6.05231ZM46.4448 5.55994C46.6136 5.62803 46.7144 5.76361 46.681 5.89949C46.647 6.01842 46.4953 6.05231 46.3265 5.98422C46.1577 5.91643 46.0732 5.76361 46.0903 5.64467C46.1409 5.52604 46.2925 5.49215 46.4448 5.55994ZM46.5799 5.08451C46.7487 5.16955 46.8495 5.32238 46.8161 5.44101C46.7821 5.57689 46.6304 5.61078 46.4448 5.54269C46.2591 5.45795 46.158 5.30513 46.1914 5.16925C46.242 5.05062 46.3942 5.01672 46.5799 5.08451ZM46.6978 4.66023C46.8666 4.72832 46.9674 4.8639 46.934 4.98283C46.9 5.10176 46.7484 5.13566 46.5796 5.06787C46.4105 4.99978 46.2922 4.84725 46.3262 4.72832C46.3771 4.60939 46.5287 4.59244 46.6978 4.66023ZM46.7989 4.28678C46.9506 4.33763 47.0351 4.4735 47.0183 4.55824C46.9849 4.65992 46.8495 4.69412 46.6981 4.62633C46.5459 4.55824 46.4619 4.43961 46.4953 4.33763C46.5122 4.23594 46.6467 4.21869 46.7989 4.28678ZM46.9172 3.89639C47.086 3.96418 47.1868 4.10006 47.1534 4.20205C47.12 4.30373 46.9846 4.33793 46.8161 4.25289C46.6638 4.1851 46.5627 4.04922 46.5799 3.94723C46.6133 3.84555 46.7655 3.8283 46.9172 3.89639ZM47.0183 3.5399C47.1871 3.62463 47.2717 3.74357 47.2545 3.84555C47.2211 3.93029 47.0857 3.96448 46.9343 3.87945C46.7655 3.81136 46.681 3.69272 46.6981 3.59074C46.7315 3.5057 46.8666 3.47181 47.0183 3.5399ZM48.2171 3.43791C48.3182 3.47181 48.3859 3.57379 48.3859 3.62463C48.3687 3.69272 48.2842 3.69272 48.1831 3.65853C48.082 3.60769 48.0143 3.52265 48.0143 3.45486C48.0314 3.38707 48.1154 3.38707 48.2171 3.43791ZM48.301 3.14951C48.3856 3.20035 48.4533 3.26844 48.4361 3.31928C48.4361 3.38737 48.3516 3.38737 48.2505 3.35318C48.1659 3.30234 48.0982 3.2176 48.1154 3.16645C48.1154 3.11531 48.2002 3.11531 48.301 3.14951ZM48.3687 2.8947C48.4364 2.92859 48.5038 2.99668 48.487 3.04752C48.487 3.08142 48.4193 3.09867 48.3353 3.06477C48.2508 3.01363 48.2002 2.94584 48.2002 2.91195C48.2171 2.8608 48.2842 2.8608 48.3687 2.8947ZM48.4364 2.64019C48.5041 2.67408 48.5547 2.72522 48.5375 2.77606C48.5375 2.80996 48.4698 2.80996 48.4024 2.77606C48.3353 2.74217 48.2842 2.69133 48.2842 2.64019C48.301 2.60629 48.3516 2.60629 48.4364 2.64019ZM48.487 2.41957C48.5547 2.43652 48.6052 2.48736 48.6052 2.5385C48.5881 2.5724 48.5375 2.5724 48.4701 2.5385C48.4027 2.50461 48.3519 2.45377 48.3519 2.41957C48.3687 2.36843 48.4193 2.38537 48.487 2.41957ZM48.5375 2.19865C48.6052 2.23255 48.6558 2.26674 48.6392 2.30064C48.6392 2.33453 48.5881 2.33453 48.521 2.30064C48.4698 2.28369 48.4193 2.23255 48.4364 2.19865C48.4364 2.16476 48.487 2.16476 48.5375 2.19865ZM48.5881 2.01193C48.6558 2.04582 48.6898 2.08002 48.6898 2.11392C48.6726 2.14781 48.6392 2.13086 48.5715 2.11392C48.521 2.08002 48.487 2.04582 48.487 2.01193C48.487 1.97804 48.5375 1.97804 48.5881 2.01193ZM48.6389 1.82521C48.6895 1.8591 48.7229 1.8933 48.7229 1.91025C48.7229 1.94414 48.6723 1.92719 48.6218 1.91025C48.5878 1.87635 48.5372 1.85941 48.5541 1.82521C48.5544 1.79131 48.6049 1.80826 48.6389 1.82521ZM47.5584 6.96897C47.4402 6.91813 47.3728 6.81615 47.3896 6.73141C47.4065 6.64668 47.5079 6.61248 47.609 6.66332C47.7278 6.71446 47.7946 6.81615 47.7781 6.90119C47.7612 6.98592 47.6601 7.02012 47.5584 6.96897ZM47.4573 7.54639C47.3562 7.49555 47.2885 7.39356 47.3051 7.30852C47.3222 7.22379 47.4239 7.18959 47.5247 7.24073C47.6258 7.27463 47.6764 7.37661 47.6764 7.46135C47.643 7.56333 47.5584 7.59723 47.4573 7.54639ZM47.3728 8.15739C47.2717 8.10655 47.204 8.00487 47.2211 7.90288C47.2383 7.81815 47.3222 7.78395 47.4239 7.81815C47.525 7.86899 47.5927 7.97098 47.5756 8.05571C47.5584 8.15739 47.4742 8.19129 47.3728 8.15739ZM47.2885 8.80229C47.2434 8.788 47.2049 8.75783 47.1801 8.71731C47.1553 8.67679 47.1458 8.62864 47.1534 8.58168C47.1706 8.48 47.2545 8.4461 47.3562 8.48C47.4402 8.53084 47.5079 8.63282 47.4907 8.71756C47.4742 8.80229 47.3728 8.85313 47.2885 8.80229ZM47.1706 9.51528C47.086 9.48139 47.0354 9.39635 47.0523 9.29467C47.0689 9.20963 47.1534 9.17574 47.238 9.20963C47.3219 9.24352 47.3896 9.34551 47.3725 9.43025C47.3562 9.51529 47.2717 9.54948 47.1706 9.51528ZM47.0688 10.3303C46.9849 10.2964 46.9343 10.2113 46.9506 10.1096C46.9677 10.0249 47.0523 9.99071 47.1362 10.0249C47.2208 10.0588 47.2714 10.1438 47.2545 10.2286C47.2211 10.3303 47.1534 10.3645 47.0688 10.3303ZM46.4782 3.31898C46.6133 3.38707 46.6978 3.48875 46.681 3.57379C46.647 3.67547 46.5122 3.69272 46.3771 3.62463C46.242 3.55684 46.1409 3.45486 46.1743 3.37012C46.2083 3.28509 46.3431 3.26814 46.4782 3.31898ZM46.1914 4.04922C46.3265 4.10006 46.3942 4.20205 46.3771 4.28678C46.3431 4.35457 46.242 4.38847 46.1069 4.33763C45.9886 4.28678 45.9047 4.1848 45.9381 4.09976C45.9721 4.01533 46.0732 3.99808 46.1914 4.04922ZM46.0732 4.42266C46.2083 4.49075 46.2925 4.60939 46.276 4.69412C46.242 4.79611 46.1069 4.81305 45.9721 4.76221C45.8198 4.71137 45.7353 4.59244 45.7693 4.49075C45.803 4.40572 45.9381 4.37182 46.0732 4.42266ZM45.6173 5.7978C45.7524 5.84864 45.837 5.96758 45.803 6.06926C45.7696 6.17094 45.6342 6.22209 45.4991 6.154C45.3646 6.10316 45.2797 5.98422 45.3134 5.88254C45.3474 5.78086 45.4825 5.74666 45.6173 5.7978ZM44.3009 2.09697C44.4191 2.14781 44.4865 2.23285 44.4531 2.30064C44.4191 2.36842 44.284 2.38537 44.1492 2.33453C44.031 2.28369 43.9464 2.19865 43.997 2.13086C44.031 2.06277 44.1655 2.04582 44.3009 2.09697ZM44.3009 7.25768C44.4191 7.30852 44.5037 7.4444 44.4531 7.54639C44.4191 7.66532 44.2675 7.71616 44.1324 7.66532C43.9973 7.61448 43.9296 7.49555 43.9801 7.37661C44.0138 7.25768 44.1492 7.22379 44.3009 7.25768ZM43.3729 7.66502C43.5074 7.71586 43.5751 7.85174 43.5246 7.97067C43.474 8.0896 43.3218 8.14045 43.1873 8.08961C43.0522 8.03876 42.9845 7.90288 43.035 7.8009C43.0853 7.68197 43.2207 7.63112 43.3729 7.66502ZM45.2629 6.91813C45.3236 6.94053 45.3749 6.98292 45.4086 7.03842C45.4424 7.09391 45.4564 7.15924 45.4485 7.22379C45.398 7.34272 45.2629 7.39356 45.1112 7.34272C44.9761 7.27463 44.8915 7.13905 44.9255 7.02042C44.9761 6.90118 45.1112 6.86729 45.2629 6.91813ZM46.1577 6.61248C46.2922 6.68057 46.3599 6.7992 46.3428 6.91813C46.3094 7.02012 46.174 7.07096 46.0389 7.02012C45.9044 6.95203 45.8195 6.8334 45.8538 6.71446C45.8875 6.61248 46.0226 6.56164 46.1577 6.61248ZM46.9846 6.34102C47.1197 6.40911 47.204 6.52774 47.1868 6.64667C47.1534 6.76561 47.018 6.7995 46.8835 6.74836C46.7312 6.68057 46.6467 6.54469 46.6807 6.42576C46.6978 6.32377 46.8326 6.27293 46.9846 6.34102ZM45.7693 5.30543C45.9044 5.37352 45.9721 5.4752 45.9549 5.57689C45.9209 5.66162 45.7861 5.69582 45.6682 5.64498C45.5331 5.59414 45.4654 5.4752 45.4825 5.37352C45.5162 5.28848 45.6513 5.27123 45.7693 5.30543ZM47.204 2.94554C47.3051 2.99638 47.3896 3.08142 47.3728 3.1492C47.3562 3.2173 47.2545 3.2173 47.1366 3.16615C47.0183 3.11531 46.9509 3.03058 46.9677 2.96248C46.9846 2.89439 47.0857 2.8947 47.204 2.94554ZM44.8912 2.35148C44.9929 2.38537 45.0435 2.47041 45.0264 2.52125C44.993 2.57209 44.8912 2.58904 44.7901 2.5382C44.689 2.50431 44.6385 2.43652 44.655 2.38537C44.6893 2.31759 44.7901 2.31758 44.8912 2.35148ZM45.4485 4.21869C45.5668 4.25259 45.6173 4.35457 45.6008 4.42236C45.5668 4.49045 45.4657 4.5071 45.3474 4.4732C45.2463 4.42236 45.1786 4.33732 45.1952 4.25259C45.2292 4.20205 45.3474 4.16785 45.4485 4.21869ZM44.7227 6.05231C44.8578 6.10316 44.9424 6.22209 44.9084 6.34102C44.8578 6.44301 44.7227 6.49385 44.5882 6.44301C44.436 6.37492 44.3686 6.25629 44.4026 6.1543C44.4528 6.05231 44.5882 6.00147 44.7227 6.05231ZM45.9209 4.88084C46.0392 4.93168 46.1237 5.03367 46.09 5.13535C46.056 5.22039 45.9378 5.23704 45.8198 5.18619C45.6847 5.13535 45.617 5.03337 45.651 4.94863C45.6682 4.86389 45.7864 4.83 45.9209 4.88084ZM44.6388 4.37182C44.757 4.42266 44.8244 4.52465 44.8076 4.60939C44.757 4.69412 44.6388 4.71107 44.5037 4.67748C44.3686 4.62663 44.3009 4.52465 44.3349 4.43961C44.3683 4.35457 44.5034 4.32068 44.6388 4.37182ZM42.5623 8.10655C42.6468 8.14045 42.6974 8.22548 42.6634 8.31022C42.6128 8.39526 42.5117 8.42915 42.41 8.41221C42.3261 8.37831 42.2755 8.27633 42.3089 8.19159C42.3595 8.10655 42.4612 8.07236 42.5623 8.10655ZM45.1446 3.20035C45.2629 3.25119 45.3303 3.33623 45.2969 3.40402C45.2629 3.47181 45.1618 3.48875 45.0435 3.45486C44.9084 3.40402 44.8578 3.31898 44.8747 3.25119C44.9084 3.1834 45.0267 3.16615 45.1446 3.20035ZM47.7275 3.20035C47.8286 3.25119 47.8792 3.31928 47.8792 3.38707C47.862 3.43791 47.7781 3.45516 47.6764 3.40402C47.5753 3.37012 47.5076 3.26814 47.5247 3.2173C47.5247 3.16615 47.6258 3.14951 47.7275 3.20035ZM46.242 2.2498C46.3265 2.28369 46.3771 2.33453 46.3602 2.38568C46.3602 2.41957 46.2925 2.43652 46.2086 2.40262C46.1409 2.36873 46.0903 2.31758 46.0903 2.28369C46.1066 2.23255 46.1743 2.23255 46.242 2.2498ZM45.4485 2.5724C45.5331 2.60629 45.5836 2.67408 45.5668 2.72522C45.5496 2.75912 45.4657 2.77606 45.3646 2.74217C45.28 2.70828 45.2295 2.64049 45.2463 2.58934C45.2629 2.5382 45.3646 2.5382 45.4485 2.5724ZM45.2797 4.64328C45.3808 4.69412 45.4485 4.77886 45.4314 4.86389C45.398 4.94893 45.2797 4.96558 45.1618 4.91474C45.0607 4.88084 44.993 4.77886 45.0095 4.71107C45.0435 4.62633 45.1618 4.60939 45.2797 4.64328ZM44.8073 3.98113C44.9084 4.03197 44.9761 4.10006 44.9424 4.16785C44.9084 4.23564 44.8241 4.25259 44.7062 4.21869C44.6045 4.1848 44.5539 4.09976 44.5879 4.03197C44.6045 3.96418 44.7062 3.94723 44.8073 3.98113ZM43.9464 4.1509C44.0815 4.20175 44.1321 4.28678 44.0987 4.37152C44.0647 4.43931 43.9464 4.4732 43.8285 4.42236C43.6934 4.38847 43.6257 4.30343 43.6762 4.21869C43.7102 4.1509 43.8282 4.11701 43.9464 4.1509ZM43.4909 2.2498C43.592 2.28369 43.6425 2.35148 43.6091 2.40262C43.5751 2.45346 43.474 2.47041 43.3729 2.43652C43.2712 2.40262 43.2207 2.33453 43.2547 2.28369C43.2881 2.23255 43.3892 2.2156 43.4909 2.2498ZM46.3771 1.99498C46.4448 2.02888 46.5122 2.08002 46.4953 2.13086C46.4953 2.16476 46.4108 2.1817 46.3265 2.14781C46.242 2.11392 46.1914 2.06307 46.2083 2.01193C46.2083 1.97804 46.2925 1.96109 46.3771 1.99498ZM46.681 2.72492C46.7821 2.75881 46.8498 2.84385 46.8326 2.91164C46.7992 2.96248 46.7144 2.96248 46.6133 2.92859C46.5122 2.87775 46.4445 2.79271 46.4616 2.74187C46.4782 2.69103 46.5799 2.67408 46.681 2.72492ZM46.7821 2.43652C46.8666 2.48736 46.9343 2.55545 46.9172 2.58904C46.9 2.63988 46.8326 2.65713 46.7315 2.60629C46.647 2.5724 46.5964 2.50431 46.5964 2.45346C46.6133 2.40232 46.6978 2.40232 46.7821 2.43652ZM45.5836 3.84555C45.6847 3.87945 45.7353 3.96448 45.7187 4.03227C45.7016 4.08311 45.6005 4.10006 45.5159 4.06617C45.4148 4.01533 45.3471 3.94724 45.3808 3.87945C45.398 3.8283 45.4991 3.81136 45.5836 3.84555ZM46.0226 2.80996C46.1066 2.8608 46.1409 2.91195 46.1409 2.96279C46.1237 2.99668 46.0392 3.01363 45.9552 2.97973C45.8875 2.94584 45.837 2.87805 45.8541 2.84385C45.8704 2.79301 45.9381 2.77576 46.0226 2.80996ZM44.9084 5.57689C45.0095 5.61078 45.0607 5.69582 45.0435 5.76361C45.0095 5.84834 44.9252 5.86529 44.8241 5.8314C44.7224 5.7975 44.655 5.71246 44.689 5.62773C44.7227 5.55994 44.8244 5.54299 44.9084 5.57689ZM46.5627 3.06447C46.6304 3.09836 46.6638 3.1492 46.6638 3.1834C46.6467 3.2173 46.5799 3.23424 46.5122 3.20035C46.4445 3.16645 46.3939 3.11561 46.4105 3.08142C46.4276 3.03058 46.495 3.03058 46.5627 3.06447ZM47.2717 2.67408C47.3394 2.70797 47.4068 2.77576 47.3899 2.82691C47.3728 2.8608 47.3054 2.87775 47.2211 2.84385C47.1534 2.80996 47.1029 2.74187 47.1029 2.69103C47.12 2.64018 47.1868 2.64018 47.2717 2.67408ZM41.9548 1.02748C42.0393 1.04443 42.073 1.09527 42.0393 1.12916C42.0053 1.16306 41.9205 1.18031 41.8365 1.16306C41.752 1.14611 41.7014 1.09497 41.7354 1.06138C41.786 1.02748 41.8699 1.01023 41.9548 1.02748ZM44.5205 2.99668C44.6216 3.03058 44.6722 3.09867 44.655 3.16645C44.6216 3.2176 44.5205 3.23455 44.4188 3.20035C44.3177 3.16645 44.2672 3.08142 44.3006 3.03058C44.3177 2.97973 44.4188 2.96279 44.5205 2.99668ZM42.3766 1.51955C42.4612 1.5368 42.5117 1.60459 42.4777 1.63849C42.4443 1.68933 42.3432 1.68933 42.2415 1.67238C42.1576 1.63849 42.1064 1.58765 42.1404 1.55345C42.1738 1.50261 42.2755 1.48566 42.3766 1.51955ZM43.2712 3.94723C43.3729 3.98113 43.4235 4.04922 43.3895 4.13396C43.3561 4.20205 43.2378 4.21869 43.1199 4.1848C43.0182 4.1509 42.9676 4.06586 43.0016 3.99808C43.0347 3.93029 43.153 3.91334 43.2712 3.94723ZM41.3975 0.891602C41.4652 0.908549 41.4992 0.942444 41.4652 0.976338C41.4318 1.01023 41.3641 1.02718 41.2796 1.01023C41.2119 0.993285 41.1613 0.95939 41.1956 0.942443C41.229 0.891601 41.3136 0.891602 41.3975 0.891602ZM43.8453 1.63849C43.913 1.67238 43.9636 1.70628 43.9293 1.74017C43.9127 1.77406 43.8282 1.79101 43.7605 1.75712C43.6759 1.74017 43.6422 1.68933 43.6594 1.65543C43.6931 1.62154 43.7608 1.60459 43.8453 1.63849ZM42.3432 8.7345C42.4443 8.75175 42.4777 8.83649 42.4443 8.92123C42.3938 9.00627 42.2921 9.05711 42.2081 9.02321C42.1064 8.98932 42.073 8.90428 42.1236 8.81954C42.1573 8.7345 42.2584 8.70061 42.3432 8.7345ZM41.668 9.10795C41.752 9.14184 41.7863 9.20963 41.752 9.27772C41.7014 9.34551 41.6175 9.39665 41.5326 9.36246C41.4649 9.34551 41.4315 9.26077 41.4649 9.19268C41.4992 9.12489 41.5832 9.091 41.668 9.10795ZM44.0644 7.88563C44.1655 7.91953 44.2166 8.02151 44.1826 8.10625C44.1492 8.20824 44.0475 8.24213 43.9464 8.20824C43.9228 8.2009 43.9009 8.18884 43.8821 8.17276C43.8632 8.15669 43.8478 8.13694 43.8368 8.11471C43.8257 8.09248 43.8193 8.06823 43.8178 8.04343C43.8163 8.01862 43.8198 7.99377 43.8282 7.97037C43.8619 7.88563 43.9633 7.85174 44.0644 7.88563ZM43.1358 8.30992C43.2375 8.36106 43.2881 8.46275 43.2709 8.54778C43.2204 8.63282 43.1193 8.68366 43.0176 8.64947C42.9165 8.59863 42.8659 8.51389 42.8993 8.4119C42.9187 8.36805 42.9538 8.33318 42.9977 8.31427C43.0415 8.29536 43.0909 8.2938 43.1358 8.30992ZM44.1492 3.77746C44.2332 3.81136 44.2675 3.8625 44.2503 3.91334C44.2332 3.94723 44.1492 3.96418 44.0815 3.94723C43.997 3.91334 43.9464 3.8625 43.9798 3.81136C43.997 3.77746 44.0815 3.76051 44.1492 3.77746ZM46.0226 1.62154C46.0903 1.63849 46.1237 1.68963 46.1237 1.72353C46.1066 1.75742 46.056 1.75742 45.9886 1.72353C45.9209 1.70628 45.8875 1.67238 45.8875 1.63849C45.9047 1.60459 45.9552 1.60459 46.0226 1.62154ZM45.0607 7.54639C45.1284 7.58028 45.1789 7.64807 45.1618 7.73311C45.1284 7.8012 45.0435 7.85204 44.9589 7.8012C44.875 7.76731 44.8244 7.69952 44.8578 7.61448C44.875 7.54639 44.9589 7.51219 45.0607 7.54639ZM45.9721 7.18959C46.0392 7.22348 46.0903 7.30852 46.0732 7.37631C46.056 7.4441 45.9886 7.47799 45.8875 7.4441C45.8198 7.41021 45.7693 7.32517 45.7864 7.25738C45.803 7.18959 45.8875 7.1557 45.9721 7.18959ZM46.8161 6.96897C46.9 7.00287 46.9506 7.07096 46.9343 7.13905C46.9172 7.20684 46.8498 7.24073 46.7655 7.20684C46.681 7.17295 46.6467 7.08791 46.6467 7.02012C46.6638 6.96897 46.7484 6.93508 46.8161 6.96897ZM44.4188 1.87605C44.4694 1.893 44.5034 1.92689 44.4865 1.96109C44.4694 1.99498 44.4188 1.99498 44.3514 1.97804C44.3009 1.94414 44.2675 1.90994 44.2837 1.87605C44.3009 1.8591 44.3511 1.84216 44.4188 1.87605ZM42.5117 3.77746C42.5957 3.79441 42.63 3.84555 42.5957 3.87945C42.5791 3.93029 42.4946 3.94723 42.4269 3.93029C42.3429 3.91334 42.3086 3.8625 42.3429 3.81136C42.3595 3.77746 42.4443 3.76051 42.5117 3.77746ZM43.0179 4.30373C43.1196 4.32068 43.153 4.38847 43.1196 4.45656C43.1024 4.5074 43.0013 4.52465 42.9168 4.5074C42.8156 4.4735 42.7651 4.40572 42.7985 4.35457C42.8328 4.30373 42.9339 4.26984 43.0179 4.30373ZM43.7271 4.59244C43.811 4.60939 43.8453 4.67748 43.8282 4.72832C43.7948 4.77916 43.7271 4.79641 43.6425 4.77916C43.558 4.74526 43.5243 4.69442 43.5414 4.62664C43.5748 4.57549 43.6425 4.55824 43.7271 4.59244ZM44.436 4.84695C44.5037 4.86389 44.5371 4.93168 44.5205 4.96588C44.5034 5.01672 44.436 5.03397 44.3514 5.01672C44.2837 4.98283 44.2503 4.93199 44.2675 4.88114C44.2837 4.83 44.3511 4.81305 44.436 4.84695ZM45.0941 5.10176C45.1618 5.13565 45.2123 5.1865 45.1786 5.23734C45.1615 5.28818 45.0941 5.30543 45.0264 5.27123C44.9586 5.25428 44.9252 5.1865 44.9424 5.13535C44.9589 5.08451 45.0267 5.06787 45.0941 5.10176ZM46.4782 1.77437C46.5459 1.80826 46.5799 1.84246 46.5799 1.87605C46.5627 1.90994 46.5122 1.90994 46.4448 1.893C46.3942 1.87605 46.3431 1.82491 46.3431 1.79131C46.3599 1.75742 46.4105 1.75742 46.4782 1.77437ZM46.1409 1.41787C46.1914 1.43482 46.242 1.46871 46.2248 1.50261C46.2248 1.5365 46.1743 1.5365 46.1237 1.51955C46.056 1.48566 46.0226 1.45177 46.0226 1.41787C46.0392 1.40062 46.0903 1.38398 46.1409 1.41787ZM45.7864 1.09527C45.837 1.11252 45.8704 1.14641 45.8704 1.16336C45.8538 1.19726 45.8198 1.19726 45.7693 1.18061C45.7187 1.16336 45.6847 1.12947 45.6847 1.09557C45.7019 1.07832 45.7353 1.07832 45.7864 1.09527ZM46.8666 2.2156C46.9343 2.23255 46.9677 2.28369 46.9677 2.33453C46.9506 2.36842 46.9 2.36842 46.8326 2.33453C46.7655 2.30064 46.7144 2.2498 46.7315 2.2156C46.7487 2.1814 46.7989 2.1817 46.8666 2.2156ZM42.2921 4.11701C42.3598 4.13396 42.3938 4.1851 42.3766 4.23594C42.3432 4.26984 42.2584 4.30403 42.191 4.26984C42.1064 4.25289 42.0727 4.20205 42.0899 4.1509C42.1173 4.12723 42.1506 4.11156 42.1863 4.10559C42.2219 4.09961 42.2585 4.10356 42.2921 4.11701ZM41.6003 3.94723C41.6843 3.96418 41.7014 4.01533 41.6843 4.04922C41.6598 4.07217 41.6302 4.08879 41.598 4.09765C41.5658 4.10651 41.5318 4.10734 41.4992 4.10006C41.4315 4.08311 41.3975 4.03227 41.4147 3.99838C41.4481 3.94723 41.5326 3.93029 41.6003 3.94723Z" fill="black"/>
<path fill-rule="evenodd" clip-rule="evenodd" d="M47.373 3.50547C47.3396 3.59021 47.4241 3.69219 47.5421 3.75998C47.3898 3.72609 47.2887 3.74303 47.2547 3.84502C47.2382 3.91281 47.2887 4.01479 47.3898 4.09953C47.2716 4.08258 47.187 4.11648 47.1705 4.20152C47.1365 4.3032 47.221 4.42213 47.3561 4.50687C47.2039 4.45602 47.0859 4.50687 47.0522 4.60885C47.0351 4.69359 47.0856 4.79557 47.1867 4.88031C47.0685 4.86336 46.9845 4.9142 46.9505 4.99924C46.934 5.10123 47.0017 5.21986 47.1196 5.30489C46.9674 5.28795 46.8663 5.33879 46.8323 5.44078C46.7989 5.57666 46.9168 5.76338 47.1196 5.84811C47.2713 5.9162 47.4235 5.89895 47.4741 5.81422C47.5075 5.93315 47.6086 6.06903 47.7609 6.13682C47.896 6.18766 48.0142 6.18766 48.0816 6.11987C48.1322 6.2388 48.2333 6.34049 48.3684 6.40858C48.4866 6.45942 48.6046 6.45942 48.6723 6.39133C48.7228 6.51026 48.8239 6.61194 48.9419 6.66279C49.077 6.73088 49.1952 6.71393 49.2626 6.66279C49.2966 6.76477 49.3977 6.8834 49.5328 6.95149C49.7185 7.03623 49.853 6.98539 49.8702 6.83256C49.8702 6.71363 49.8024 6.595 49.6845 6.49301C49.8027 6.50996 49.8873 6.45912 49.9042 6.35713C49.9042 6.25545 49.8364 6.15346 49.735 6.05148C49.8367 6.06843 49.9207 6.01759 49.9207 5.93255C49.9207 5.81361 49.8367 5.69468 49.7013 5.593C49.8364 5.64384 49.9376 5.593 49.9376 5.49132C49.9376 5.40628 49.8698 5.30459 49.7687 5.21986C49.8698 5.2368 49.9544 5.20261 49.9544 5.11787C49.9544 5.01589 49.8699 4.89726 49.7347 4.81222C49.853 4.84611 49.9376 4.82947 49.9544 4.74443C49.9544 4.64275 49.8527 4.52381 49.701 4.45572C49.5828 4.38763 49.4817 4.40488 49.4477 4.45572C49.4305 4.37099 49.3466 4.269 49.2115 4.21786C49.1104 4.15007 49.0087 4.15007 48.9581 4.21786C48.941 4.11617 48.8399 4.01419 48.7048 3.9464C48.5703 3.87861 48.4686 3.89556 48.418 3.9464C48.4009 3.86166 48.3169 3.77662 48.1818 3.72578C48.0467 3.64074 47.9285 3.65769 47.8951 3.74273C47.9122 3.658 47.8105 3.53906 47.6588 3.47127C47.5249 3.40379 47.3898 3.42073 47.373 3.50547ZM49.2975 6.17102C49.3646 6.20491 49.4158 6.2727 49.4158 6.32384C49.4158 6.39163 49.3481 6.40888 49.2807 6.37469C49.2133 6.34049 49.1624 6.2727 49.1624 6.20491C49.1624 6.15377 49.2298 6.13682 49.2975 6.17102ZM48.7403 5.9162C48.808 5.9501 48.8414 6.00094 48.8414 6.05208C48.8414 6.10323 48.7737 6.12017 48.7231 6.10293C48.6554 6.06903 48.6049 6.00094 48.6049 5.9501C48.6223 5.89926 48.6729 5.89926 48.7403 5.9162ZM48.1662 5.66139C48.2339 5.69529 48.2844 5.74643 48.2679 5.79727C48.2679 5.84811 48.2002 5.86506 48.1496 5.83116C48.0819 5.79727 48.0314 5.74643 48.0479 5.69529C48.0482 5.64475 48.1156 5.6278 48.1662 5.66139ZM47.6766 5.52581C47.6601 5.57666 47.5926 5.5936 47.5078 5.55971C47.4401 5.52581 47.3895 5.45802 47.4067 5.40688C47.4238 5.35574 47.4744 5.33909 47.5583 5.37299C47.626 5.40688 47.6766 5.47497 47.6766 5.52581ZM49.3646 5.78063C49.4158 5.79757 49.4663 5.86536 49.4663 5.91651C49.4492 5.9504 49.3986 5.96735 49.3481 5.9504C49.2804 5.91651 49.2298 5.84841 49.2464 5.79757C49.2464 5.76338 49.2975 5.74643 49.3646 5.78063ZM47.6432 4.9826C47.7109 5.01649 47.7443 5.06764 47.7278 5.11848C47.7278 5.15237 47.6766 5.16932 47.6089 5.13542C47.5418 5.11848 47.4906 5.05039 47.5078 5.01649C47.5249 4.96565 47.5755 4.9487 47.6432 4.9826ZM49.3986 5.35604C49.4492 5.38993 49.4997 5.44108 49.4997 5.49192C49.4832 5.54276 49.432 5.54276 49.3815 5.52581C49.3138 5.49192 49.2804 5.42383 49.2804 5.38993C49.2804 5.33909 49.3309 5.33909 49.3986 5.35604ZM47.7278 4.57526C47.7783 4.60916 47.8289 4.66 47.8289 4.71114C47.8117 4.74503 47.7612 4.76198 47.6938 4.72809C47.626 4.71114 47.5755 4.64335 47.5926 4.60915C47.6092 4.55801 47.6604 4.55801 47.7278 4.57526ZM49.4158 4.9826C49.4426 4.98995 49.4665 5.00522 49.4845 5.02642C49.5026 5.04763 49.5138 5.0738 49.5169 5.10153C49.5169 5.15237 49.4663 5.15237 49.4158 5.11848C49.3481 5.10153 49.3141 5.05039 49.3141 4.99954C49.3141 4.96565 49.3646 4.9487 49.4158 4.9826ZM47.7949 4.20182C47.8626 4.23571 47.8966 4.28655 47.8966 4.3377C47.8794 4.37159 47.8289 4.38854 47.7783 4.35464C47.7106 4.32075 47.6766 4.26991 47.6766 4.23571C47.6766 4.18487 47.7443 4.18487 47.7949 4.20182ZM49.432 4.57526C49.4997 4.60916 49.5503 4.66 49.5503 4.71114C49.5337 4.76198 49.4832 4.76198 49.4158 4.72809C49.3646 4.71114 49.3141 4.64335 49.3141 4.60915C49.3141 4.55801 49.3646 4.55801 49.432 4.57526ZM48.9425 4.35434C48.9936 4.37159 49.027 4.42243 49.027 4.45633C49.027 4.50717 48.9765 4.50717 48.9259 4.49022C48.8582 4.45633 48.8242 4.40518 48.8242 4.37129C48.8245 4.32045 48.8757 4.32045 48.9425 4.35434ZM48.4367 4.09983C48.4872 4.13372 48.5212 4.18487 48.5212 4.21876C48.5212 4.25266 48.4701 4.26961 48.4024 4.23571C48.3518 4.20182 48.3013 4.16792 48.3184 4.11678C48.3184 4.08289 48.369 4.08288 48.4367 4.09983ZM47.8794 3.82807C47.9471 3.86197 47.9805 3.92975 47.9805 3.96395C47.9805 4.01479 47.9134 4.01479 47.846 3.9809C47.7786 3.947 47.7278 3.89616 47.7443 3.86197C47.7615 3.81112 47.8117 3.81112 47.8794 3.82807Z" fill="black"/>
</svg>
