<svg width="50" height="20" viewBox="0 0 50 20" fill="none" xmlns="http://www.w3.org/2000/svg">
<g clip-path="url(#clip0_1790_1176)">
<path d="M23.769 4.57715V10.0002C23.9998 10.0002 24.269 9.96176 24.4998 9.84638C25.2306 9.50023 25.8075 8.65407 25.8075 7.26946C25.8075 4.61561 24.0383 4.57715 23.769 4.57715Z" fill="black"/>
<path d="M15.5771 13.1536H17.3079L16.4233 5.92285L15.5771 13.1536Z" fill="black"/>
<path d="M0 0V20H50V0H0ZM42.3846 4.61538H39.6538V8.46154H42.3846V11.5385H39.6538V15.4231H42.3846V18.4615H36.6154V3.11538L34.1923 18.4615H30.6154C30.6154 18.4615 28.8077 7.61539 28.8077 7.57692C29.1154 9.34615 28 11.1538 27.0385 11.8846L28.9615 18.4231H25.9615L24.5 12.8077L23.8077 12.9231V18.4615H18.0385L17.6923 15.8462H15.3077L14.8846 18.4615H12.1154H9V10.3462L7.61538 18.4615H6L4.61538 10.4231V18.4615H1.53846V1.53846H5.42308L6.76923 10.2692L8.19231 1.53846H12.1154V16.7692L14.3846 1.53846H18.4615L20.7308 16.5385V1.53846C20.7308 1.53846 23.8077 1.53846 23.8462 1.53846C26.6538 1.53846 27.9231 3.57692 28.2692 4.26923L27.8846 1.53846H31L32.3846 11.8462L33.8077 1.53846H42.3846V4.61538ZM48.5385 18.4615H42.9231V1.53846H45.9615V15.4231H48.5769V18.4615H48.5385Z" fill="black"/>
</g>
<defs>
<clipPath id="clip0_1790_1176">
<rect width="50" height="20" fill="white"/>
</clipPath>
</defs>
</svg>
