<svg width="36" height="23" viewBox="0 0 36 23" fill="none" xmlns="http://www.w3.org/2000/svg">
<path d="M35.6212 0C35.8279 0 36 0.16655 36 0.371533V22.6313C36 22.8329 35.8279 23.0002 35.6212 23.0002H30.7439C30.5346 23.0002 30.3645 22.8329 30.3645 22.6313V0.371533C30.3645 0.166667 30.5344 0 30.7439 0H35.6212ZM14.4555 0C18.1347 0 21.9817 0.168665 23.8791 2.06735C25.7445 3.93583 25.9465 7.65609 25.9543 11.2688V22.6312C25.9543 22.8327 25.7843 23.0001 25.5759 23.0001H20.6993C20.4905 23.0001 20.3198 22.8327 20.3198 22.6312V11.0733C20.3146 9.0556 20.1986 6.9819 19.1581 5.93794C18.2625 5.03984 16.5912 4.83416 14.8533 4.79149H6.0134C5.80607 4.79149 5.63634 4.95827 5.63634 5.16008V22.6313C5.63634 22.8329 5.4645 23.0002 5.25588 23.0002H0.376234C0.167724 23.0002 0 22.8329 0 22.6313V0.371533C0 0.166667 0.167607 0 0.376234 0H14.4555ZM15.547 8.86542C15.7546 8.86542 15.9233 9.0315 15.9233 9.23484V22.6313C15.9233 22.8329 15.7545 23.0002 15.547 23.0002H10.4243C10.2137 23.0002 10.0449 22.8329 10.0449 22.6313V9.23484C10.0449 9.0315 10.2137 8.86542 10.4243 8.86542H15.547Z" fill="#0A0A0A"/>
</svg>
