<svg width="52" height="13" viewBox="0 0 52 13" fill="none" xmlns="http://www.w3.org/2000/svg">
<path fill-rule="evenodd" clip-rule="evenodd" d="M43.81 13H44.07V11.7433L44.525 13H44.7633L45.2183 11.7433V13H45.4783V11.375H45.0883L44.655 12.6533L44.2 11.375H43.81V13ZM42.2933 11.6133H42.8133V13H43.095V11.6133H43.615V11.375H42.2933V11.6133ZM39 13L52 0H44.1783L31.1783 13H39ZM37.1367 5.655H21.4067C16.6183 5.655 15.7733 5.915 13.715 7.97333C11.7867 9.90167 8.66667 13 8.66667 13H15.4917L17.1167 11.375C18.1783 10.3133 18.7417 10.205 20.9733 10.205H32.6083L37.1367 5.655ZM13.4983 7.04167C12.09 8.385 8.99167 11.375 7.32333 13H0C0 13 5.87167 7.15 9.14333 3.92167C12.5017 0.736667 14.17 0 20.345 0H42.7917L37.9383 4.85333H20.8C16.4667 4.85333 15.4917 5.15667 13.4983 7.04167Z" fill="black"/>
</svg>
