<svg width="41" height="30" viewBox="0 0 41 30" fill="none" xmlns="http://www.w3.org/2000/svg">
<path d="M30.1973 1.37705L29.2644 2.7541C35.402 5.2623 37.8571 9.88525 37.8571 14.7541C37.8571 17.2131 37.2188 19.4262 35.893 19.4262H19.886C17.6765 19.4262 17.0381 18.6393 18.0202 16.6721C19.7878 13.2787 25.0417 6.63934 28.2823 2.60656C28.7734 2.01639 29.1662 1.08197 27.4476 0.639344C25.7291 0.196721 22.8812 0 20.5243 0C8.44542 0 0 6.54098 0 15C0 22.7705 7.31609 30 20.4752 30C26.3183 30 33.438 28.377 37.4643 23.7541H33.9781C30.05 27.3443 24.8944 28.1311 20.4752 28.1311C9.86936 28.1311 3.14248 22.623 3.14248 15C3.14248 7.96721 10.7532 1.62295 20.377 1.62295C21.5064 1.62295 21.8992 1.86885 20.6716 3.39344C18.2166 6.44262 13.8466 12.4918 11.7843 16.0328C9.57475 19.8197 11.8334 22.918 16.7926 22.918H36.8751C38.1026 22.918 38.8391 22.2295 39.5265 20.9016C40.1158 19.8689 40.9996 17.8033 40.9996 14.9508C41.0487 9.2459 36.7769 3.98361 30.1973 1.37705Z" fill="black"/>
</svg>
