<svg width="43" height="22" viewBox="0 0 43 22" fill="none" xmlns="http://www.w3.org/2000/svg">
<path d="M21.5 22C33.3683 22 43 17.059 43 11C43 4.94098 33.4044 0 21.5 0C9.63171 0 0 4.94098 0 11C0 17.059 9.59564 22 21.5 22ZM25.5403 16.5902C25.1795 17.4197 24.5663 19.1508 23.1594 19.9082C22.7265 20.1246 22.2215 20.2328 21.7164 20.2328C21.6082 20.2328 21.5361 20.2328 21.5 20.2328C17.8565 20.2689 14.2492 19.7639 10.75 18.7541L10.6418 18.718C10.3532 18.6098 10.2089 18.5016 10.2089 18.3213C10.2089 18.2492 10.245 18.177 10.245 18.141C10.281 18.0689 10.3171 18.0328 10.3532 17.9967L10.5336 17.8164C11.219 17.2033 13.3834 15.6525 17.4597 14.1377C19.1191 13.4525 20.8146 12.9475 22.5461 12.5148C23.6644 12.2623 27.7047 11.6492 25.5403 16.5902ZM36.4346 5.51803C36.4706 5.4459 36.5067 5.37377 36.5789 5.3377C36.651 5.30164 36.7232 5.26557 36.7953 5.26557C36.9396 5.26557 37.12 5.30164 37.2282 5.40984C39.7534 6.96066 41.2685 8.9082 41.2685 11C41.2685 14.7869 36.3985 18.0689 29.4002 19.4754C28.9673 19.5836 28.6426 19.5475 28.5705 19.4754C28.4622 19.4033 28.4622 19.2951 28.5705 19.1508C28.6065 19.0426 28.6787 18.9705 28.7508 18.8984C32.5386 14.4262 35.4606 7.82623 36.2542 5.91475C36.3263 5.73443 36.3624 5.59016 36.4346 5.51803ZM17.5319 5.37377C17.8926 4.54426 18.5059 2.77705 19.9128 2.05574C20.3456 1.83934 20.8507 1.73115 21.3557 1.73115C21.4639 1.73115 21.5361 1.73115 21.5721 1.73115C25.2156 1.69508 28.823 2.2 32.3221 3.20984L32.4304 3.2459C32.719 3.3541 32.8633 3.4623 32.8633 3.64262C32.8633 3.71475 32.8272 3.78689 32.8272 3.82295C32.7911 3.89508 32.755 3.93115 32.719 3.96721L32.4664 4.18361C31.781 4.79672 29.6527 6.34754 25.5763 7.89836C23.9169 8.58361 22.2215 9.12459 20.4899 9.52131C19.4438 9.7377 15.4035 10.3508 17.5319 5.37377ZM13.6359 2.52459C14.1049 2.45246 14.3935 2.45246 14.5017 2.52459C14.5378 2.56066 14.5378 2.63279 14.5378 2.70492C14.5378 2.77705 14.5017 2.81311 14.5017 2.88525C14.4295 2.99344 14.3935 3.06557 14.3213 3.1377C10.4975 7.60984 7.5755 14.2098 6.78188 16.1213C6.70973 16.2656 6.67366 16.3738 6.60151 16.482C6.56544 16.5541 6.52936 16.6262 6.45721 16.6623C6.38507 16.6984 6.31292 16.7344 6.24077 16.7344C6.09648 16.7344 5.91611 16.6984 5.80789 16.5902C3.28272 15.0393 1.76762 13.0918 1.76762 11C1.76762 7.21311 6.63758 3.96721 13.6359 2.52459Z" fill="black"/>
</svg>
