<svg width="52" height="12" viewBox="0 0 52 12" fill="none" xmlns="http://www.w3.org/2000/svg">
<mask id="mask0_3613_110" style="mask-type:luminance" maskUnits="userSpaceOnUse" x="0" y="0" width="52" height="12">
<path d="M51.8549 0H0V12H51.8549V0Z" fill="white"/>
</mask>
<g mask="url(#mask0_3613_110)">
<path d="M10.5637 7.77896V4.85566C10.5637 4.85566 10.5637 4.78271 10.4875 4.78271C10.4199 4.78271 10.4199 4.85566 10.4199 4.85566V7.77896C10.4199 7.77896 10.4199 7.84443 10.4944 7.84443C10.5706 7.84443 10.5637 7.77896 10.5637 7.77896Z" fill="black"/>
<path d="M0 12H51.8549V0H0V12ZM4.61141 7.84414C4.67897 7.84414 4.67897 7.78616 4.67897 7.78616V4.61036H4.8678V7.77868C4.8678 7.77868 4.88338 8.02369 4.62526 8.02369C4.36715 8.02369 4.36889 7.77868 4.36889 7.77868V4.61036H4.5577V7.7712C4.5577 7.7712 4.54212 7.84414 4.61141 7.84414ZM11.1613 8.52868H3.9462V8.20138H11.1613V8.52868ZM5.55725 8.02369V4.61036H5.70797L5.89678 6.43391V4.61036H6.05615V8.02369H5.89678L5.70797 5.97195V8.02369H5.55725ZM7.17523 6.11409V6.30111H6.97082V7.84414H7.24279V8.02369H6.75948V4.61036H7.17523V4.78243H6.97082V6.11409H7.17523ZM8.10894 7.84039C8.15745 7.84414 8.15745 7.77868 8.15745 7.77868V6.99126C8.15745 6.66021 7.86296 5.93829 7.86296 5.50997V4.85724C7.86296 4.85724 7.86296 4.6197 8.11242 4.61222C8.36186 4.60474 8.35493 4.85724 8.35493 4.85724V5.62406H8.15918V4.85724C8.15918 4.85724 8.15918 4.78429 8.10549 4.78429C8.05178 4.78429 8.06044 4.85724 8.06044 4.85724V5.62406C8.06044 5.87655 8.35493 6.63964 8.35493 7.04177C8.35493 7.20823 8.35493 7.78054 8.35493 7.78054C8.35493 7.78054 8.35493 8.02556 8.10549 8.02556C7.85603 8.02556 7.86296 7.78054 7.86296 7.78054V6.92394H8.06044V7.78054C8.06044 7.77868 8.06044 7.83666 8.10894 7.84039ZM9.29212 4.78243C9.22456 4.78243 9.22456 4.85537 9.22456 4.85537V7.77868C9.22456 7.77868 9.23669 7.84414 9.29212 7.84414C9.35274 7.84414 9.35274 7.77868 9.35274 7.77868V6.92207H9.54156V7.77868C9.54156 7.77868 9.54156 8.02369 9.29212 8.02369C9.04266 8.02369 9.04959 7.77868 9.04959 7.77868V4.85537C9.04959 4.85537 9.04959 4.61036 9.29212 4.61036C9.53464 4.61036 9.54156 4.85537 9.54156 4.85537V5.62219H9.35274V4.85537C9.35274 4.85537 9.35274 4.78243 9.29212 4.78243ZM10.231 7.77868V4.85537C10.231 4.85537 10.231 4.61036 10.4961 4.61036C10.7611 4.61036 10.7455 4.85537 10.7455 4.85537V7.77868C10.7455 7.77868 10.7455 8.02369 10.4805 8.02369C10.231 8.02369 10.231 7.77868 10.231 7.77868ZM3.9462 4.08478H11.1613V4.4121H3.9462V4.08478ZM4.52827 3.87531L7.55288 2.87844L10.5324 3.87531H9.6559L7.55288 3.18141L5.4048 3.87531H4.52827ZM3.9462 3.52369L7.55288 2.32294L11.1613 3.52369V3.87531L7.53035 2.69141L3.9462 3.87531V3.52369ZM3.53737 8.75685H11.5545V9.08229H3.53737V8.75685ZM11.9478 9.63964H3.15973V9.31234H11.9478V9.63964ZM51.5415 11.6615H15.1057V0.338529H51.5415V11.6615Z" fill="black"/>
<path d="M43.2768 7.27199C43.0463 7.51887 42.7415 7.65541 42.4158 7.65541C41.7435 7.65541 41.1962 7.06439 41.1962 6.33869C41.1962 5.61301 41.7418 5.02199 42.4158 5.02199C42.7379 5.02199 43.0412 5.15665 43.2714 5.40166L43.3028 5.43533L43.8571 4.16163L43.8363 4.14481C43.4171 3.82499 42.9233 3.65479 42.4088 3.65479C41.0437 3.65479 39.9351 4.85367 39.9351 6.3256C39.9351 7.79941 41.0455 8.99643 42.4088 8.99643C42.9215 8.99643 43.4135 8.82809 43.8327 8.50827L43.8535 8.49145L43.3079 7.23833L43.2768 7.27199Z" fill="black"/>
<path d="M46.7896 7.65917C46.1192 7.65917 45.5736 7.07001 45.5736 6.34619C45.5736 5.62238 46.1192 5.03322 46.7896 5.03322C47.4601 5.03322 48.0057 5.62238 48.0057 6.34619C48.0057 7.07001 47.4601 7.65917 46.7896 7.65917ZM46.7827 3.66602C45.4212 3.66602 44.3125 4.86304 44.3125 6.3331C44.3125 7.80319 45.4212 9.00019 46.7827 9.00019C48.1442 9.00019 49.2529 7.80319 49.2529 6.3331C49.2529 4.86304 48.146 3.66602 46.7827 3.66602Z" fill="black"/>
<path d="M19.7606 3.82471V6.58156C19.7606 6.806 19.7814 7.15389 20.0205 7.38954C20.1245 7.49054 20.3114 7.62521 20.6441 7.62521C20.9247 7.62521 21.1431 7.5242 21.2782 7.38954C21.4963 7.1651 21.5275 6.82846 21.5275 6.58156V3.82471H23.0226V6.73867C23.0226 7.31099 22.9706 7.84777 22.5028 8.34155C21.9729 8.90264 21.1951 8.99242 20.6441 8.99242C20.0725 8.99242 19.305 8.90264 18.7749 8.34155C18.3488 7.89266 18.2656 7.38954 18.2656 6.83966V3.82471H19.7606Z" fill="black"/>
<path d="M24.1831 3.8246H25.678V4.41937C26.1353 3.79093 26.6741 3.68994 27.1106 3.68994C27.5161 3.68994 28.0462 3.7685 28.4394 4.19493C28.8758 4.66625 28.907 5.25913 28.907 5.66313V8.82399H27.4121V6.2579C27.4121 5.93246 27.4017 5.51913 27.1626 5.26102C27.0483 5.13757 26.8611 5.03658 26.5928 5.03658C26.281 5.03658 26.0835 5.17123 25.969 5.30591C25.7197 5.57523 25.678 5.93433 25.678 6.2579V8.82586H24.1831V3.8246Z" fill="black"/>
<path d="M33.4336 5.64106C33.4231 5.59617 33.3504 5.28196 33.1321 5.05752C32.9658 4.8892 32.7268 4.77698 32.4253 4.77698C32.0407 4.77698 31.8121 4.9453 31.6666 5.10241C31.5523 5.23707 31.4483 5.41662 31.4068 5.64106H33.4336ZM34.8142 6.60428H31.3566C31.3566 6.87361 31.45 7.23271 31.6372 7.45716C31.8658 7.72647 32.1776 7.77136 32.4045 7.77136C32.6228 7.77136 32.8515 7.72647 33.0075 7.62548C33.0281 7.61425 33.2049 7.49082 33.3296 7.21028L34.7415 7.36737C34.5335 8.07248 34.1177 8.44281 33.8494 8.62236C33.4024 8.91413 32.9035 8.99269 32.3854 8.99269C31.6908 8.99269 31.0775 8.85803 30.5371 8.27449C30.1318 7.83683 29.8408 7.17659 29.8408 6.34617C29.8408 5.62983 30.0798 4.8892 30.5476 4.37298C31.1089 3.76701 31.8035 3.65479 32.3231 3.65479C32.8429 3.65479 33.5894 3.75578 34.1612 4.40665C34.7119 5.03509 34.816 5.81875 34.816 6.43596V6.60428H34.8142Z" fill="black"/>
<path d="M38.5838 5.10248C38.3552 4.9566 38.0537 4.82194 37.7643 4.82194C37.6085 4.82194 37.4317 4.86683 37.3382 4.96782C37.2862 5.02395 37.2447 5.11371 37.2447 5.19227C37.2447 5.30449 37.3174 5.37182 37.3902 5.41671C37.4942 5.48404 37.65 5.5177 37.8372 5.58503L38.2321 5.71969C38.4919 5.80947 38.7622 5.92169 38.9994 6.15734C39.2697 6.42668 39.3632 6.72968 39.3632 7.11122C39.3632 7.77332 39.0931 8.19788 38.8851 8.42232C38.4278 8.91608 37.8665 8.99277 37.3799 8.99277C36.7561 8.99277 36.0823 8.84689 35.4795 8.27644L36.1134 7.18977C36.2589 7.32443 36.4669 7.48155 36.6227 7.5601C36.8307 7.67232 37.0488 7.7172 37.2463 7.7172C37.34 7.7172 37.5789 7.7172 37.7141 7.60497C37.8076 7.52644 37.8701 7.40299 37.8701 7.27954C37.8701 7.18977 37.8389 7.07755 37.7038 6.98777C37.5998 6.92044 37.4646 6.87557 37.2463 6.80822L36.8722 6.68479C36.6021 6.595 36.3214 6.43791 36.1239 6.22467C35.9056 5.9778 35.7913 5.69725 35.7913 5.31569C35.7913 4.83317 35.9679 4.43104 36.2383 4.16172C36.6539 3.7465 37.2136 3.65674 37.6397 3.65674C38.3238 3.65674 38.8019 3.8475 39.1763 4.08317L38.5838 5.10248Z" fill="black"/>
</g>
</svg>
