<svg width="52" height="6" viewBox="0 0 52 6" fill="none" xmlns="http://www.w3.org/2000/svg">
<g clip-path="url(#clip0_1790_1197)">
<path d="M0.434988 5.17236C0.434988 5.47016 0.321513 5.58045 0.113475 5.58045H0V5.79001H3.40426C4.76596 5.79001 5.54137 5.27163 5.54137 4.19075C5.54137 3.37457 5.09693 2.88928 4.00946 2.72383C4.53901 2.55839 5.00236 2.13927 5.00236 1.46648C5.00236 0.506922 4.17967 0.109863 3.08274 0.109863L0 0.120893V0.330452H0.113475C0.321513 0.330452 0.434988 0.440746 0.434988 0.73854V5.17236ZM1.29551 0.628246H2.7234C3.79196 0.628246 4.1513 0.903981 4.1513 1.49957C4.1513 2.10619 3.83924 2.55839 2.66667 2.55839H1.2766L1.29551 0.628246ZM3.07329 3.0878C4.14184 3.0878 4.58629 3.59516 4.58629 4.2128C4.58629 4.78633 4.26478 5.16133 3.04492 5.16133H1.29551V3.0878H3.07329Z" fill="black"/>
<path d="M42.3362 0.584329V2.92256H43.6317C44.6529 2.92256 45.1352 2.48139 45.1352 1.74242C45.1352 1.01448 44.6719 0.584329 43.6033 0.584329H42.3362ZM44.4922 3.25345C45.0974 3.30859 45.2392 3.49609 45.4662 3.91521L45.9579 4.96301C46.2132 5.39315 46.4402 5.6358 46.9414 5.6358V5.79021H46.3362C46.0525 5.79021 45.5135 5.83433 45.2109 5.40418L44.5678 4.15786C44.3409 3.79389 44.2747 3.49609 43.5182 3.49609H42.3456V5.17256C42.3456 5.47036 42.4591 5.58065 42.6671 5.58065H42.7806V5.79021H41.0596V5.58065H41.173C41.3811 5.58065 41.4946 5.47036 41.4946 5.17256V0.74977C41.4946 0.451976 41.3811 0.341682 41.173 0.341682H41.0596V0.121094H43.9343C45.5986 0.121094 46.0714 0.915211 46.0714 1.68727C46.0525 2.55859 45.4662 3.06595 44.4922 3.25345Z" fill="black"/>
<path d="M51.5653 0.74977C51.5653 0.451976 51.6788 0.341682 51.8869 0.341682H52.0003V0.121094H50.2793V0.330653H50.3928C50.6008 0.330653 50.7143 0.440947 50.7143 0.738741V5.17256C50.7143 5.47036 50.6008 5.58065 50.3928 5.58065H50.2793V5.79021H52.0003V5.58065H51.8869C51.6788 5.58065 51.5653 5.47036 51.5653 5.17256V0.74977Z" fill="black"/>
<path d="M18.3265 0.121094V0.330653H18.213C18.005 0.330653 17.8915 0.440947 17.8915 0.738741V5.16153H20.3501C20.7568 5.13948 21.0783 4.89683 21.258 4.55492L21.4282 4.63212L20.927 5.80124H16.6055V5.59168H16.7189C16.927 5.59168 17.0405 5.48139 17.0405 5.18359V0.74977C17.0405 0.451976 16.927 0.341682 16.7189 0.341682H16.6055V0.121094H18.3265Z" fill="black"/>
<path d="M13.8342 0.121094V0.330653H13.7207C13.4654 0.330653 13.437 0.485064 13.3235 0.727711L11.0919 5.79021H10.3732L8.1415 0.727711C8.02802 0.485064 7.99965 0.330653 7.74433 0.330653H7.63086V0.121094H9.41809V0.330653H9.30462C9.06821 0.330653 8.97365 0.518153 9.08712 0.771829L10.9122 4.86374L12.7089 0.771829C12.8223 0.518153 12.7278 0.330653 12.4914 0.330653H12.3779V0.121094H13.8342Z" fill="black"/>
<path d="M29.9574 3.09906V3.30862H29.7588C29.5508 3.30862 29.4373 3.41892 29.4373 3.71671V4.7645C29.1347 5.36009 28.1607 5.98877 26.6856 5.98877C24.5863 5.98877 23.2529 4.63215 23.2529 2.96671C23.2529 1.58803 24.5106 -0.0112305 26.6572 -0.0112305C27.8676 -0.0112305 28.7565 0.485093 29.0023 0.672593C29.0023 0.694652 29.2671 1.94098 29.2671 1.94098L29.078 2.01818C29.078 2.01818 28.5201 0.463034 26.7707 0.452005C25.2577 0.440975 24.2269 1.72039 24.2269 2.96671C24.2269 4.33436 25.2387 5.47039 26.7707 5.45936C27.7257 5.45936 28.6241 4.8748 28.6241 4.46671V3.71671C28.6241 3.41892 28.5106 3.30862 28.3026 3.30862H28.104V3.09906H29.9574Z" fill="black"/>
<path d="M36.1327 3.63968L34.9602 0.981589L33.816 3.63968H36.1327ZM38.2888 5.59188V5.80144H36.4826V5.59188H36.5961C36.8325 5.59188 36.9271 5.40438 36.8136 5.15071L36.3975 4.27938H33.5323L33.1446 5.15071C33.0311 5.40438 33.1257 5.59188 33.3621 5.59188H33.4755V5.80144H31.9814V5.59188H32.0949C32.2746 5.59188 32.3502 5.51468 32.4543 5.29409L34.79 0.132324H35.4424L37.7687 5.19482C37.7876 5.22791 37.8065 5.261 37.816 5.29409C37.92 5.51468 37.9956 5.59188 38.1753 5.59188H38.2888Z" fill="black"/>
</g>
<defs>
<clipPath id="clip0_1790_1197">
<rect width="52" height="6" fill="white"/>
</clipPath>
</defs>
</svg>
