<svg width="139" height="56" viewBox="0 0 139 56" fill="none" xmlns="http://www.w3.org/2000/svg">
<g clip-path="url(#clip0_1789_1080)">
<path d="M65.7197 13.0864V27.9999C66.3566 27.9999 67.0997 27.8941 67.7367 27.5768C69.7536 26.6249 71.3459 24.298 71.3459 20.4903C71.3459 13.1922 66.4628 13.0864 65.7197 13.0864Z" fill="white" fill-opacity="0.5"/>
<path d="M43.1089 36.6732H47.8858L45.4443 16.7886L43.1089 36.6732Z" fill="white" fill-opacity="0.5"/>
<path d="M0.116699 0.5V55.5H138.117V0.5H0.116699ZM117.098 13.1923H109.561V23.7692H117.098V32.2308H109.561V42.9135H117.098V51.2692H101.175V9.06731L94.4875 51.2692H84.6152C84.6152 51.2692 79.6259 21.4423 79.6259 21.3365C80.4752 26.2019 77.3967 31.1731 74.7429 33.1827L80.0505 51.1635H71.7705L67.7367 35.7212L65.8259 36.0385V51.2692H49.9029L48.9475 44.0769H42.3659L41.1982 51.2692H33.5552H24.9567V28.9519L21.1352 51.2692H16.6767L12.8552 29.1635V51.2692H4.36285V4.73077H15.0844L18.7998 28.7404L22.7275 4.73077H33.5552V46.6154L39.8182 4.73077H51.0705L57.3336 45.9808V4.73077C57.3336 4.73077 65.8259 4.73077 65.9321 4.73077C73.6813 4.73077 77.1844 10.3365 78.1398 12.2404L77.0782 4.73077H85.6767L89.4982 33.0769L93.4259 4.73077H117.098V13.1923ZM134.083 51.2692H118.584V4.73077H126.971V42.9135H134.189V51.2692H134.083Z" fill="white" fill-opacity="0.5"/>
</g>
<defs>
<clipPath id="clip0_1789_1080">
<rect width="138" height="55" fill="white" transform="translate(0.116699 0.5)"/>
</clipPath>
</defs>
</svg>
