<svg width="225" height="23" viewBox="0 0 225 23" fill="none" xmlns="http://www.w3.org/2000/svg">
<g clip-path="url(#clip0_1789_1023)">
<path d="M2.79128 19.0442C2.79128 20.1361 2.30246 20.5405 1.4063 20.5405H0.91748V21.3089H15.582C21.4478 21.3089 24.788 19.4082 24.788 15.4449C24.788 12.4523 22.8735 10.6729 18.189 10.0662C20.4701 9.45963 22.4661 7.92287 22.4661 5.45595C22.4661 1.93757 18.9222 0.481689 14.197 0.481689L0.91748 0.522131V1.29051H1.4063C2.30246 1.29051 2.79128 1.69492 2.79128 2.78684V19.0442ZM6.49813 2.38242H12.6491C17.2521 2.38242 18.8 3.39345 18.8 5.57728C18.8 7.80154 17.4558 9.45963 12.4047 9.45963H6.41666L6.49813 2.38242ZM14.1562 11.4008C18.7593 11.4008 20.6738 13.2611 20.6738 15.5258C20.6738 17.6287 19.2888 19.0037 14.034 19.0037H6.49813V11.4008H14.1562Z" fill="white" fill-opacity="0.5"/>
<path d="M183.287 2.22075V10.7943H188.867C193.267 10.7943 195.344 9.17663 195.344 6.46707C195.344 3.79795 193.348 2.22075 188.745 2.22075H183.287ZM192.574 12.0075C195.181 12.2097 195.792 12.8972 196.77 14.434L198.888 18.2759C199.988 19.8531 200.966 20.7428 203.125 20.7428V21.309H200.518C199.296 21.309 196.974 21.4707 195.67 19.8935L192.9 15.3237C191.923 13.9891 191.637 12.8972 188.379 12.8972H183.328V19.0443C183.328 20.1362 183.816 20.5406 184.712 20.5406H185.201V21.309H177.788V20.5406H178.276C179.173 20.5406 179.661 20.1362 179.661 19.0443V2.82736C179.661 1.73545 179.173 1.33104 178.276 1.33104H177.788V0.522217H190.171C197.34 0.522217 199.377 3.43398 199.377 6.26486C199.296 9.45972 196.77 11.32 192.574 12.0075Z" fill="white" fill-opacity="0.5"/>
<path d="M223.044 2.82736C223.044 1.73545 223.533 1.33104 224.429 1.33104H224.918V0.522217H217.504V1.2906H217.993C218.889 1.2906 219.378 1.69501 219.378 2.78692V19.0443C219.378 20.1362 218.889 20.5406 217.993 20.5406H217.504V21.309H224.918V20.5406H224.429C223.533 20.5406 223.044 20.1362 223.044 19.0443V2.82736Z" fill="white" fill-opacity="0.5"/>
<path d="M79.8615 0.522217V1.2906H79.3726C78.4765 1.2906 77.9877 1.69501 77.9877 2.78692V19.0038H88.5787C90.3303 18.923 91.7153 18.0332 92.4892 16.7796L93.2224 17.0627L91.0635 21.3494H72.4478V20.581H72.9366C73.8327 20.581 74.3215 20.1766 74.3215 19.0847V2.82736C74.3215 1.73545 73.8327 1.33104 72.9366 1.33104H72.4478V0.522217H79.8615Z" fill="white" fill-opacity="0.5"/>
<path d="M60.5125 0.522217V1.2906H60.0237C58.9238 1.2906 58.8016 1.85678 58.3128 2.74648L48.6994 21.309H45.6036L35.9902 2.74648C35.5014 1.85678 35.3792 1.2906 34.2793 1.2906H33.7905V0.522217H41.4894V1.2906H41.0006C39.9822 1.2906 39.5749 1.9781 40.0637 2.90825L47.9255 17.9119L55.665 2.90825C56.1539 1.9781 55.7465 1.2906 54.7282 1.2906H54.2393V0.522217H60.5125Z" fill="white" fill-opacity="0.5"/>
<path d="M129.965 11.4413V12.2097H129.109C128.213 12.2097 127.724 12.6141 127.724 13.706V17.5479C126.421 19.7317 122.225 22.0369 115.871 22.0369C106.828 22.0369 101.084 17.0626 101.084 10.956C101.084 5.90084 106.502 0.0368652 115.748 0.0368652C120.963 0.0368652 124.792 1.85672 125.851 2.54422C125.851 2.6251 126.991 7.19495 126.991 7.19495L126.177 7.47804C126.177 7.47804 123.773 1.77584 116.237 1.73539C109.72 1.69495 105.28 6.38613 105.28 10.956C105.28 15.9707 109.638 20.1361 116.237 20.0957C120.351 20.0957 124.221 17.9523 124.221 16.456V13.706C124.221 12.6141 123.732 12.2097 122.836 12.2097H121.981V11.4413H129.965Z" fill="white" fill-opacity="0.5"/>
<path d="M156.565 13.4228L151.514 3.67647L146.585 13.4228H156.565ZM165.852 20.5809V21.3493H158.072V20.5809H158.561C159.579 20.5809 159.986 19.8934 159.498 18.9632L157.705 15.7684H145.363L143.692 18.9632C143.204 19.8934 143.611 20.5809 144.629 20.5809H145.118V21.3493H138.682V20.5809H139.171C139.945 20.5809 140.271 20.2978 140.719 19.489L150.78 0.5625H153.591L163.612 19.125C163.693 19.2463 163.775 19.3676 163.815 19.489C164.264 20.2978 164.589 20.5809 165.363 20.5809H165.852Z" fill="white" fill-opacity="0.5"/>
</g>
<defs>
<clipPath id="clip0_1789_1023">
<rect width="224" height="22" fill="white" transform="translate(0.91748 0.0773926)"/>
</clipPath>
</defs>
</svg>
