<svg width="151" height="32" viewBox="0 0 151 32" fill="none" xmlns="http://www.w3.org/2000/svg">
<g clip-path="url(#clip0_1789_999)">
<path d="M23.9097 9.84745L5.17729 18.5975V0.887451H0.458984V31.1975H5.17729V23.4974L23.9097 14.7475V31.2675H28.628V0.887451H23.9097V9.84745Z" fill="white" fill-opacity="0.5"/>
<path d="M127.572 9.49739C127.712 6.90739 131.938 4.94739 136.374 4.94739C140.811 4.94739 145.177 6.97739 145.177 9.63739H150.107C150.107 4.03739 143.91 0.327393 136.445 0.327393C128.91 0.327393 122.783 3.96739 122.783 9.63739V12.2274L145.529 22.9374C145.107 25.3874 140.881 27.2074 136.586 27.2074C132.079 27.2074 127.642 25.1774 127.642 22.5174H122.712C122.712 28.1174 129.05 31.8274 136.586 31.8274C144.121 31.8274 150.459 28.1874 150.459 22.5174V20.1374L127.572 9.49739Z" fill="white" fill-opacity="0.5"/>
<path d="M88.2758 0.887451L76.6561 28.3275L65.0363 0.887451H59.8955L72.7828 31.1975H80.5293L93.4166 0.887451H88.2758Z" fill="white" fill-opacity="0.5"/>
<path d="M64.966 31.2675L52.0786 0.887451H44.3321L31.4448 31.2675H36.5857L37.642 28.8175L55.3181 20.5575L59.8251 31.2675H64.966ZM48.2054 3.82745L53.5575 16.4275L40.2476 22.6575L48.2054 3.82745Z" fill="white" fill-opacity="0.5"/>
<path d="M121.867 31.2675L109.05 0.887451H101.304L88.4165 31.1975H93.5573L94.6137 28.7474L112.29 20.4875L116.797 31.1975H121.867V31.2675ZM105.177 3.82745L110.529 16.4275L97.2193 22.6575L105.177 3.82745Z" fill="white" fill-opacity="0.5"/>
</g>
<defs>
<clipPath id="clip0_1789_999">
<rect width="150" height="31.5" fill="white" transform="translate(0.458984 0.327393)"/>
</clipPath>
</defs>
</svg>
