<svg width="83" height="82" viewBox="0 0 83 82" fill="none" xmlns="http://www.w3.org/2000/svg">
<g clip-path="url(#clip0_1789_1072)">
<path d="M74.0283 8.56772C66.2921 0.861321 55.1685 0 41.5752 0C27.9648 0 16.8243 0.87125 9.09134 8.59847C1.35948 16.3225 0.575195 27.445 0.575195 41.0399C0.575195 54.637 1.35948 65.7629 9.09455 73.4896C16.8271 81.218 27.9662 82.0002 41.5752 82.0002C55.1843 82.0002 66.3216 81.218 74.0541 73.4896C81.7887 65.7614 82.5752 54.637 82.5752 41.0399C82.5752 27.4276 81.7802 16.293 74.0283 8.56772Z" fill="white" fill-opacity="0.5"/>
<path d="M65.3669 25.4016C65.6486 25.4016 65.883 25.6286 65.883 25.9079V56.2392C65.883 56.5139 65.6486 56.7419 65.3669 56.7419H58.721C58.4358 56.7419 58.204 56.5139 58.204 56.2392V25.9079C58.204 25.6287 58.4356 25.4016 58.721 25.4016H65.3669ZM36.5262 25.4016C41.5396 25.4016 46.7815 25.6314 49.3669 28.2186C51.9088 30.7646 52.1841 35.8339 52.1946 40.7566V56.2391C52.1946 56.5137 51.9631 56.7418 51.6791 56.7418H45.0342C44.7496 56.7418 44.5171 56.5137 44.5171 56.2391V40.4903C44.51 37.7409 44.352 34.9152 42.9341 33.4927C41.7137 32.269 39.4364 31.9887 37.0684 31.9305H25.023C24.7405 31.9305 24.5092 32.1578 24.5092 32.4328V56.2392C24.5092 56.5139 24.2751 56.7419 23.9908 56.7419H17.3418C17.0576 56.7419 16.8291 56.5139 16.8291 56.2392V25.9079C16.8291 25.6287 17.0575 25.4016 17.3418 25.4016H36.5262ZM38.0136 37.4817C38.2964 37.4817 38.5263 37.708 38.5263 37.9851V56.2392C38.5263 56.5139 38.2963 56.7419 38.0136 56.7419H31.0334C30.7464 56.7419 30.5164 56.5139 30.5164 56.2392V37.9851C30.5164 37.708 30.7464 37.4817 31.0334 37.4817H38.0136Z" fill="#0A0A0A"/>
</g>
<defs>
<clipPath id="clip0_1789_1072">
<rect width="82" height="82" fill="white" transform="translate(0.575195)"/>
</clipPath>
</defs>
</svg>
