<svg width="177" height="32" viewBox="0 0 177 32" fill="none" xmlns="http://www.w3.org/2000/svg">
<g clip-path="url(#clip0_1789_1048)">
<path d="M32.412 1.46885L31.4258 2.9377C37.9136 5.61311 40.5087 10.5443 40.5087 15.7377C40.5087 18.3607 39.834 20.7213 38.4326 20.7213H21.5125C19.1769 20.7213 18.5022 19.882 19.5403 17.7836C21.4087 14.1639 26.9623 7.08197 30.3878 2.78033C30.9068 2.15082 31.322 1.1541 29.5055 0.681967C27.6889 0.209836 24.6786 0 22.1873 0C9.41935 0 0.492188 6.97705 0.492188 16C0.492188 24.2885 8.2256 32 22.1354 32C28.3117 32 35.8375 30.2689 40.0935 25.3377H36.4084C32.2563 29.1672 26.8065 30.0066 22.1354 30.0066C10.9245 30.0066 3.81392 24.1311 3.81392 16C3.81392 8.49836 11.8587 1.73115 22.0316 1.73115C23.2253 1.73115 23.6405 1.99344 22.343 3.61967C19.7479 6.87213 15.1286 13.3246 12.9487 17.1016C10.6131 21.141 13.0006 24.4459 18.2427 24.4459H39.4707C40.7682 24.4459 41.5467 23.7115 42.2734 22.2951C42.8962 21.1934 43.8304 18.9902 43.8304 15.9475C43.8823 9.86229 39.3669 4.24918 32.412 1.46885Z" fill="white" fill-opacity="0.5"/>
<path d="M171.094 14.7934H156.666C157.133 12.9573 158.586 11.6458 161.233 11.6458H175.039V8.49829H160.403C152.046 8.49829 150.074 14.4786 150.074 17.8885H167.928C170.368 17.8885 170.368 21.2458 168.032 21.2458C165.593 21.2458 148.309 21.2458 148.309 21.2458V8.55075H142.392V21.2983H132.531C129.884 21.2983 128.794 20.0393 128.794 18.0458C128.794 15.6852 128.794 8.55075 128.794 8.55075H119.296L110.784 13.954L103.466 8.55075H82.3418C76.2173 8.55075 71.9095 12.1704 71.3904 16.6819H75.335C73.726 17.7311 72.5323 19.4622 71.8057 21.3508H59.2973C56.9617 21.3508 55.8198 20.0917 55.8198 17.7835V8.55075H49.8511V16.3671C49.8511 21.3508 52.55 24.4458 58.5706 24.4458H100.196L108.76 18.9901L116.13 24.4458H124.902L113.483 15.9999L122.774 10.0721V19.0426C122.774 21.8229 126.355 24.4458 129.573 24.4458H171.146C178.361 24.4458 178.309 14.7934 171.094 14.7934ZM99.1062 21.2983H78.9163C79.1239 19.5671 80.0062 17.8885 82.757 17.8885H95.2654V14.7934H78.6048C78.9162 13.4819 80.2138 11.6983 83.1722 11.6983H96.4073V9.96714L105.905 16.9967L99.1062 21.2983Z" fill="white" fill-opacity="0.5"/>
</g>
<defs>
<clipPath id="clip0_1789_1048">
<rect width="176" height="32" fill="white" transform="translate(0.492188)"/>
</clipPath>
</defs>
</svg>
