<svg width="205" height="32" viewBox="0 0 205 32" fill="none" xmlns="http://www.w3.org/2000/svg">
<g clip-path="url(#clip0_1789_1067)">
<path d="M8.22571 8.47787C8.07593 7.88315 8.11338 7.28842 8.18827 6.95389C8.37549 6.02464 9.01205 5.02104 10.8469 5.02104C12.5693 5.02104 13.5429 6.06181 13.5429 7.66013C13.5429 8.18051 13.5429 9.4443 13.5429 9.4443H20.8072V7.39994C20.8447 1.08099 15.1156 0.0773926 10.9966 0.0773926C5.82924 0.0773926 1.59796 1.78722 0.811614 6.50785C0.586944 7.80881 0.549499 8.96109 0.886504 10.4107C2.15963 16.3208 12.5319 18.0306 14.0297 21.7848C14.3292 22.4911 14.2169 23.3831 14.1046 23.9407C13.8799 24.9071 13.2059 25.9107 11.2587 25.9107C9.42395 25.9107 8.33805 24.87 8.33805 23.2716V20.4839H0.474609V22.7141C0.474609 29.1817 5.60457 31.1146 11.0715 31.1146C16.3513 31.1146 20.6574 29.3304 21.3689 24.4983C21.7059 22.0078 21.4438 20.3724 21.3314 19.7776C20.1332 13.6445 9.0495 11.8604 8.22571 8.47787ZM103.074 8.51504C102.961 7.95749 102.999 7.32559 103.036 7.02823C103.261 6.09898 103.86 5.09538 105.695 5.09538C107.38 5.09538 108.353 6.13615 108.353 7.6973C108.353 8.21768 108.353 9.48147 108.353 9.48147H115.543V7.47428C115.543 1.22967 109.926 0.263244 105.845 0.263244C100.715 0.263244 96.5209 1.93591 95.7345 6.61936C95.5473 7.88315 95.4724 9.03543 95.8094 10.4851C97.0451 16.3208 107.305 18.0306 108.803 21.7477C109.065 22.4539 108.99 23.346 108.84 23.8664C108.616 24.8328 107.979 25.7992 106.032 25.7992C104.235 25.7992 103.111 24.7584 103.111 23.1973V20.4095H95.3601V22.6026C95.3601 28.9959 100.415 30.9287 105.845 30.9287C111.049 30.9287 115.356 29.1445 116.03 24.3867C116.367 21.8963 116.105 20.298 115.992 19.7033C114.831 13.6817 103.898 11.8975 103.074 8.51504ZM169.276 24.3124L162.424 1.00665H151.602V29.6649H158.754L158.342 5.61576L165.719 29.6649H176.091V1.00665H168.902L169.276 24.3124ZM31.7037 1.00665L26.2742 29.9623H34.1376L38.2191 3.16252L42.1883 29.9623H50.0143L44.6596 1.00665H31.7037ZM75.7389 1.00665L72.0693 23.6433L68.3997 1.00665H56.4922L55.8557 29.9623H63.1574L63.3447 3.16252L68.3623 29.9623H75.7389L80.7565 3.16252L80.9438 29.9623H88.2455L87.609 1.00665H75.7389ZM143.514 1.00665H136.138V22.4167C136.138 22.7884 136.138 23.1973 136.063 23.5318C135.913 24.2381 135.314 25.6505 133.254 25.6505C131.232 25.6505 130.633 24.2752 130.483 23.5318C130.409 23.2345 130.409 22.7884 130.409 22.4167V1.00665H123.032V21.7477C123.032 22.268 123.069 23.3832 123.107 23.6433C123.631 29.033 127.9 30.8172 133.254 30.8172C138.609 30.8172 142.915 29.0702 143.439 23.6433C143.477 23.346 143.552 22.268 143.514 21.7477V1.00665ZM194.14 13.6817V17.9191H197.135V22.1194C197.135 22.4911 197.135 22.8999 197.061 23.2345C196.948 24.015 196.199 25.3532 194.065 25.3532C191.968 25.3532 191.219 24.015 191.107 23.2345C191.069 22.8999 191.032 22.4911 191.032 22.1194V8.88675C191.032 8.40353 191.069 7.92032 191.182 7.51145C191.331 6.80521 191.968 5.42991 194.065 5.42991C196.312 5.42991 196.836 6.87955 196.986 7.51145C197.061 7.92032 197.061 8.62655 197.061 8.62655V10.2249H204.4V9.25845C204.4 9.25845 204.437 8.25485 204.362 7.32559C203.801 1.93591 199.27 0.226074 194.102 0.226074C188.935 0.226074 184.516 1.97308 183.88 7.36276C183.805 7.84598 183.73 8.73806 183.73 9.29562V21.4503C183.73 21.9707 183.73 22.3796 183.842 23.346C184.329 28.6242 188.935 30.4827 194.102 30.4827C199.307 30.4827 203.875 28.6242 204.362 23.346C204.437 22.3796 204.475 21.9707 204.475 21.4503V13.6817H194.14Z" fill="white" fill-opacity="0.5"/>
</g>
<defs>
<clipPath id="clip0_1789_1067">
<rect width="204" height="31" fill="white" transform="translate(0.474609 0.0773926)"/>
</clipPath>
</defs>
</svg>
