<svg width="188" height="41" viewBox="0 0 188 41" fill="none" xmlns="http://www.w3.org/2000/svg">
<g clip-path="url(#clip0_1789_1006)">
<mask id="mask0_1789_1006" style="mask-type:luminance" maskUnits="userSpaceOnUse" x="0" y="0" width="188" height="41">
<path d="M187.02 0.0773926H0.541504V40.0774H187.02V0.0773926Z" fill="white"/>
</mask>
<g mask="url(#mask0_1789_1006)">
<path d="M38.5297 26.0065V16.2622C38.5297 16.2622 38.5297 16.019 38.2557 16.019C38.0127 16.019 38.0127 16.2622 38.0127 16.2622V26.0065C38.0127 26.0065 38.0127 26.2248 38.2806 26.2248C38.5547 26.2248 38.5297 26.0065 38.5297 26.0065Z" fill="white" fill-opacity="0.5"/>
<path d="M0.541504 40.0774H187.02V0.0773926H0.541504V40.0774ZM17.1248 26.2245C17.3678 26.2245 17.3678 26.0312 17.3678 26.0312V15.4452H18.0468V26.0063C18.0468 26.0063 18.1029 26.823 17.1747 26.823C16.2464 26.823 16.2527 26.0063 16.2527 26.0063V15.4452H16.9317V25.9814C16.9317 25.9814 16.8757 26.2245 17.1248 26.2245ZM40.6792 28.5063H14.7327V27.4153H40.6792V28.5063ZM20.5262 26.823V15.4452H21.0683L21.7472 21.5238V15.4452H22.3204V26.823H21.7472L21.0683 19.9839V26.823H20.5262ZM26.3447 20.4577V21.0811H25.6096V26.2245H26.5877V26.823H24.8496V15.4452H26.3447V16.0188H25.6096V20.4577H26.3447ZM29.7025 26.212C29.877 26.2245 29.877 26.0063 29.877 26.0063V23.3816C29.877 22.2781 28.8179 19.8717 28.8179 18.444V16.2682C28.8179 16.2682 28.8179 15.4764 29.715 15.4515C30.612 15.4265 30.5871 16.2682 30.5871 16.2682V18.8242H29.8832V16.2682C29.8832 16.2682 29.8832 16.025 29.6901 16.025C29.497 16.025 29.5281 16.2682 29.5281 16.2682V18.8242C29.5281 19.6659 30.5871 22.2095 30.5871 23.55C30.5871 24.1048 30.5871 26.0125 30.5871 26.0125C30.5871 26.0125 30.5871 26.8292 29.6901 26.8292C28.793 26.8292 28.8179 26.0125 28.8179 26.0125V23.1572H29.5281V26.0125C29.5281 26.0063 29.5281 26.1996 29.7025 26.212ZM33.9574 16.0188C33.7144 16.0188 33.7144 16.262 33.7144 16.262V26.0063C33.7144 26.0063 33.7581 26.2245 33.9574 26.2245C34.1754 26.2245 34.1754 26.0063 34.1754 26.0063V23.151H34.8544V26.0063C34.8544 26.0063 34.8544 26.823 33.9574 26.823C33.0603 26.823 33.0852 26.0063 33.0852 26.0063V16.262C33.0852 16.262 33.0852 15.4452 33.9574 15.4452C34.8295 15.4452 34.8544 16.262 34.8544 16.262V18.818H34.1754V16.262C34.1754 16.262 34.1754 16.0188 33.9574 16.0188ZM37.3338 26.0063V16.262C37.3338 16.262 37.3338 15.4452 38.287 15.4452C39.2402 15.4452 39.1841 16.262 39.1841 16.262V26.0063C39.1841 26.0063 39.1841 26.823 38.2309 26.823C37.3338 26.823 37.3338 26.0063 37.3338 26.0063ZM14.7327 13.6933H40.6792V14.7844H14.7327V13.6933ZM16.8258 12.9951L27.7028 9.67218L38.4178 12.9951H35.2656L27.7028 10.6821L19.978 12.9951H16.8258ZM14.7327 11.823L27.7028 7.82054L40.6792 11.823V12.9951L27.6218 9.04875L14.7327 12.9951V11.823ZM13.2624 29.2669H42.0933V30.3517H13.2624V29.2669ZM43.5075 32.2095H11.9044V31.1185H43.5075V32.2095ZM185.893 38.949H54.8641V1.20582H185.893V38.949Z" fill="white" fill-opacity="0.5"/>
<path d="M156.171 24.3166C155.342 25.1396 154.246 25.5947 153.075 25.5947C150.657 25.5947 148.689 23.6246 148.689 21.2056C148.689 18.7867 150.651 16.8166 153.075 16.8166C154.233 16.8166 155.324 17.2655 156.152 18.0822L156.265 18.1944L158.258 13.9488L158.183 13.8927C156.676 12.8266 154.9 12.2593 153.05 12.2593C148.141 12.2593 144.154 16.2556 144.154 21.162C144.154 26.0747 148.147 30.0648 153.05 30.0648C154.893 30.0648 156.663 29.5036 158.17 28.4376L158.245 28.3815L156.283 24.2044L156.171 24.3166Z" fill="white" fill-opacity="0.5"/>
<path d="M168.804 25.6074C166.393 25.6074 164.431 23.6435 164.431 21.2308C164.431 18.8181 166.393 16.8542 168.804 16.8542C171.215 16.8542 173.177 18.8181 173.177 21.2308C173.177 23.6435 171.215 25.6074 168.804 25.6074ZM168.779 12.2969C163.882 12.2969 159.896 16.2869 159.896 21.1872C159.896 26.0874 163.882 30.0774 168.779 30.0774C173.675 30.0774 177.662 26.0874 177.662 21.1872C177.662 16.2869 173.681 12.2969 168.779 12.2969Z" fill="white" fill-opacity="0.5"/>
<path d="M71.6043 12.8271V22.0166C71.6043 22.7648 71.679 23.9244 72.5388 24.7099C72.9128 25.0466 73.5851 25.4955 74.7814 25.4955C75.7906 25.4955 76.5757 25.1588 77.0618 24.7099C77.8462 23.9618 77.9582 22.8396 77.9582 22.0166V12.8271H83.3348V22.5404C83.3348 24.4481 83.1478 26.2374 81.4655 27.8833C79.5598 29.7536 76.7627 30.0529 74.7814 30.0529C72.7258 30.0529 69.9659 29.7536 68.0596 27.8833C66.5271 26.387 66.228 24.7099 66.228 22.877V12.8271H71.6043Z" fill="white" fill-opacity="0.5"/>
<path d="M87.5078 12.8268H92.8837V14.8094C94.5282 12.7146 96.466 12.3779 98.0355 12.3779C99.4936 12.3779 101.4 12.6398 102.814 14.0612C104.383 15.6323 104.496 17.6086 104.496 18.9552V29.4914H99.1197V20.9378C99.1197 19.853 99.0825 18.4752 98.2225 17.6149C97.8114 17.2034 97.1383 16.8667 96.1733 16.8667C95.052 16.8667 94.3419 17.3156 93.93 17.7645C93.0336 18.6622 92.8837 19.8592 92.8837 20.9378V29.4976H87.5078V12.8268Z" fill="white" fill-opacity="0.5"/>
<path d="M120.774 18.8802C120.736 18.7306 120.475 17.6832 119.69 16.9351C119.092 16.374 118.232 15.9999 117.148 15.9999C115.765 15.9999 114.943 16.561 114.42 17.0847C114.009 17.5336 113.635 18.1321 113.485 18.8802H120.774ZM125.739 22.0909H113.305C113.305 22.9887 113.641 24.1857 114.314 24.9338C115.136 25.8316 116.258 25.9812 117.073 25.9812C117.858 25.9812 118.681 25.8316 119.242 25.4949C119.316 25.4575 119.952 25.0461 120.4 24.1109L125.478 24.6346C124.73 26.9849 123.234 28.2193 122.269 28.8178C120.662 29.7904 118.868 30.0523 117.005 30.0523C114.507 30.0523 112.301 29.6034 110.358 27.6583C108.9 26.1994 107.854 23.9986 107.854 21.2306C107.854 18.8428 108.713 16.374 110.396 14.6533C112.414 12.6333 114.912 12.2593 116.781 12.2593C118.65 12.2593 121.334 12.5959 123.391 14.7655C125.371 16.8603 125.745 19.4725 125.745 21.5298V22.0909H125.739Z" fill="white" fill-opacity="0.5"/>
<path d="M139.295 17.0855C138.473 16.5992 137.389 16.1504 136.348 16.1504C135.788 16.1504 135.152 16.3 134.816 16.6366C134.629 16.8237 134.479 17.1229 134.479 17.3848C134.479 17.7589 134.741 17.9833 135.003 18.1329C135.377 18.3574 135.937 18.4696 136.61 18.694L138.03 19.1429C138.965 19.4421 139.937 19.8162 140.79 20.6017C141.762 21.4995 142.098 22.5095 142.098 23.7813C142.098 25.9883 141.126 27.4035 140.378 28.1516C138.734 29.7975 136.716 30.0531 134.965 30.0531C132.722 30.0531 130.299 29.5669 128.131 27.6654L130.411 24.0431C130.934 24.492 131.682 25.0157 132.242 25.2776C132.99 25.6516 133.775 25.8012 134.485 25.8012C134.822 25.8012 135.681 25.8012 136.167 25.4271C136.504 25.1654 136.728 24.7539 136.728 24.3424C136.728 24.0431 136.616 23.6691 136.13 23.3698C135.756 23.1454 135.27 22.9958 134.485 22.7713L133.14 22.3599C132.168 22.0606 131.159 21.5369 130.449 20.8261C129.664 20.0032 129.253 19.0681 129.253 17.7962C129.253 16.1878 129.888 14.8474 130.86 13.9496C132.355 12.5656 134.367 12.2664 135.9 12.2664C138.36 12.2664 140.079 12.9022 141.425 13.6878L139.295 17.0855Z" fill="white" fill-opacity="0.5"/>
</g>
</g>
<defs>
<clipPath id="clip0_1789_1006">
<rect width="187" height="40" fill="white" transform="translate(0.541504 0.0773926)"/>
</clipPath>
</defs>
</svg>
