<svg width="144" height="37" viewBox="0 0 144 37" fill="none" xmlns="http://www.w3.org/2000/svg">
<path fill-rule="evenodd" clip-rule="evenodd" d="M120.561 36.0774H121.276V32.5974L122.527 36.0774H123.182L124.433 32.5974V36.0774H125.148V31.5774H124.076L122.884 35.1174L121.633 31.5774H120.561V36.0774ZM116.39 32.2374H117.82V36.0774H118.594V32.2374H120.024V31.5774H116.39V32.2374ZM107.333 36.0774L143.083 0.0773926H121.573L85.8234 36.0774H107.333ZM102.209 15.7374H58.9513C45.7834 15.7374 43.4597 16.4574 37.7993 22.1574C32.4963 27.4974 23.9163 36.0774 23.9163 36.0774H42.6851L47.1538 31.5774C50.0734 28.6374 51.6226 28.3374 57.7597 28.3374H89.7559L102.209 15.7374ZM37.2034 19.5774C33.3305 23.2974 24.8101 31.5774 20.2222 36.0774H0.0830078C0.0830078 36.0774 16.2301 19.8774 25.2272 10.9374C34.4626 2.11739 39.0505 0.0773926 56.0318 0.0773926H117.76L104.413 13.5174H57.283C45.3663 13.5174 42.6851 14.3574 37.2034 19.5774Z" fill="white" fill-opacity="0.5"/>
</svg>
