<svg width="151" height="36" viewBox="0 0 151 36" fill="none" xmlns="http://www.w3.org/2000/svg">
<g clip-path="url(#clip0_1789_1060)">
<path d="M0.0336914 1.93774H5.87179V10.573H0.0336914V1.93774Z" fill="white" fill-opacity="0.5"/>
<path d="M19.6647 1.93774V14.873L0.0336914 14.8377V34.8549H5.87179V20.5987H19.6647V34.8549H25.5028V1.93774H19.6647Z" fill="white" fill-opacity="0.5"/>
<path d="M68.2124 29.1291H49.9328C48.5488 29.1335 47.1806 28.8342 45.9252 28.2523C44.6988 27.6732 43.6052 26.8479 42.7125 25.8279C41.7903 24.7594 41.0774 23.5276 40.6106 22.1964C40.1024 20.751 39.8477 19.2289 39.8579 17.6971C39.8491 16.2507 40.1158 14.8158 40.6437 13.4689C41.1392 12.1948 41.8713 11.0257 42.8014 10.023C43.7146 9.05109 44.809 8.26661 46.0233 7.71355C47.2859 7.14497 48.6573 6.85743 50.0423 6.87086C51.4494 6.85658 52.843 7.14475 54.1287 7.71583C55.3499 8.26449 56.4506 9.04853 57.3676 10.023C58.2955 11.0249 59.0191 12.1976 59.498 13.4757C60.0167 14.8513 60.2773 16.3104 60.2667 17.7802C60.2771 19.3114 60.022 20.8328 59.5128 22.2772C59.1864 23.1915 58.7445 24.0606 58.1979 24.8633H64.8012C65.2723 23.8482 65.6377 22.7873 65.8915 21.6976C66.2027 20.3551 66.3596 18.9816 66.3591 17.6037C66.3809 15.4323 65.9721 13.278 65.1565 11.265C64.3409 9.25198 63.1345 7.41996 61.6068 5.87445C60.136 4.39918 58.3933 3.22207 56.4746 2.40805C54.4801 1.56236 52.3335 1.13297 50.1666 1.1463C47.9433 1.12815 45.7397 1.56371 43.691 2.42627C41.7383 3.25913 39.97 4.46976 38.4882 5.98832C36.9931 7.53496 35.8139 9.35749 35.0166 11.3542C34.1699 13.4821 33.7439 15.7536 33.762 18.0433C33.7398 20.3549 34.1815 22.6475 35.061 24.7859C35.8796 26.7735 37.0808 28.5815 38.5965 30.1073C40.1259 31.6218 41.9391 32.8206 43.9325 33.6352C45.926 34.4497 48.0606 34.8642 50.2145 34.8549H68.3926V29.1291H68.2124Z" fill="white" fill-opacity="0.5"/>
<path d="M91.2091 15.5255L88.7639 24.1494L82.741 1.5415H76.6543L85.9287 34.4586H91.5923L96.9582 15.5255H91.2091Z" fill="white" fill-opacity="0.5"/>
<path d="M113.606 1.5415L107.582 24.1494L101.175 1.5415H95.1734L92.418 11.2609H98.1671L98.1762 11.229L104.799 34.4586H110.461L119.691 1.5415H113.606Z" fill="white" fill-opacity="0.5"/>
<path d="M138.707 35.2546C136.717 35.2625 134.746 34.8819 132.903 34.1341C131.082 33.412 129.514 32.1698 128.397 30.5629L127.953 29.9229L132.658 25.7198L133.218 26.5921C133.806 27.549 134.658 28.3161 135.672 28.8013C136.658 29.2773 137.738 29.5263 138.833 29.5301C139.45 29.5253 140.062 29.4274 140.649 29.2397C141.246 29.0548 141.807 28.7673 142.306 28.3902C142.79 28.0197 143.194 27.5548 143.492 27.0236C143.795 26.4699 143.945 25.8459 143.928 25.2153C143.959 24.8309 143.904 24.4444 143.766 24.0843C143.627 23.7242 143.41 23.3997 143.129 23.1348C142.39 22.5235 141.554 22.0397 140.655 21.7033L137.156 20.494C135.82 20.0859 134.548 19.4958 133.374 18.7403C132.152 17.9388 131.125 16.8747 130.368 15.6257C129.477 14.0124 129.051 12.1844 129.136 10.3442C129.153 9.24497 129.366 8.15756 129.764 7.13284C130.205 5.96631 130.884 4.90385 131.758 4.01263C132.741 3.02326 133.905 2.23255 135.188 1.68386C136.772 1.02732 138.476 0.709229 140.19 0.750071C141.875 0.744282 143.551 0.995034 145.161 1.49368C146.908 2.07392 148.435 3.17578 149.534 4.65034L150.034 5.28463L145.352 9.70531L144.782 8.78405C144.335 8.07471 143.705 7.49909 142.957 7.11804C142.104 6.67818 141.155 6.45708 140.195 6.47464C139.35 6.44719 138.507 6.58132 137.712 6.86979C137.151 7.08422 136.642 7.41622 136.22 7.84343C135.879 8.19538 135.619 8.61744 135.459 9.08013C135.317 9.48694 135.24 9.91349 135.231 10.3442C135.195 10.7796 135.25 11.2177 135.393 11.6308C135.536 12.0438 135.763 12.4227 136.06 12.7435C136.774 13.4055 137.607 13.9264 138.515 14.2786C139.646 14.73 140.803 15.1152 141.979 15.4322C143.298 15.789 144.565 16.3137 145.75 16.9934C146.954 17.6963 147.986 18.6589 148.77 19.8107C149.675 21.288 150.112 23.0032 150.025 24.7324C150.043 26.2526 149.732 27.7587 149.112 29.1474C148.542 30.4176 147.709 31.5525 146.667 32.4772C145.613 33.3939 144.39 34.0953 143.066 34.5418C141.663 35.0206 140.189 35.2616 138.707 35.2546Z" fill="white" fill-opacity="0.5"/>
</g>
<defs>
<clipPath id="clip0_1789_1060">
<rect width="150" height="34.5" fill="white" transform="translate(0.0336914 0.75)"/>
</clipPath>
</defs>
</svg>
