<svg width="217" height="29" viewBox="0 0 217 29" fill="none" xmlns="http://www.w3.org/2000/svg">
<g clip-path="url(#clip0_1789_1035)">
<mask id="mask0_1789_1035" style="mask-type:luminance" maskUnits="userSpaceOnUse" x="0" y="0" width="217" height="29">
<path d="M216.525 0.577393H0.525391V28.5774H216.525V0.577393Z" fill="white"/>
</mask>
<g mask="url(#mask0_1789_1035)">
<path d="M83.4854 4.5271V12.1824H74.2728V4.5271H69.1978V24.6204H74.2728V16.5414H83.4854V24.6204H88.5604V4.5271H88.3016H83.4854Z" fill="white" fill-opacity="0.5"/>
<path d="M107.169 4.5271L101.858 12.484L96.5546 4.5271H90.5649L99.328 17.6618V24.6204H104.395V17.6618L113.158 4.5271H112.694H107.169Z" fill="white" fill-opacity="0.5"/>
<path d="M129.489 4.5271V19.2488C129.491 19.3826 129.464 19.5155 129.41 19.6392C129.356 19.7631 129.277 19.8754 129.175 19.9693C129.074 20.0632 128.954 20.1369 128.822 20.1859C128.689 20.2349 128.548 20.2581 128.406 20.2542H120.276V4.5271H115.201V24.6348H130.197C130.781 24.6791 131.368 24.6035 131.917 24.4132C132.467 24.2229 132.966 23.9225 133.381 23.5326C133.795 23.1427 134.115 22.6728 134.318 22.1551C134.521 21.6374 134.602 21.0844 134.556 20.5343V4.5271H129.489Z" fill="white" fill-opacity="0.5"/>
<path d="M154.262 4.52725H139.257V24.635H144.332V8.87914H152.479C152.619 8.87721 152.759 8.90186 152.89 8.95162C153.021 9.00138 153.14 9.07523 153.24 9.16887C153.34 9.26256 153.419 9.37405 153.473 9.49698C153.526 9.61986 153.554 9.75159 153.553 9.88452V24.6206H158.62V8.64215C158.65 8.09367 158.561 7.54529 158.361 7.02958C158.161 6.51388 157.852 6.04141 157.454 5.64037C157.029 5.26177 156.527 4.968 155.978 4.77672C155.43 4.58545 154.846 4.50059 154.262 4.52725Z" fill="white" fill-opacity="0.5"/>
<path d="M178.326 4.52718H163.322V24.6349H178.326C178.908 24.674 179.492 24.5941 180.038 24.4005C180.584 24.2069 181.08 23.9043 181.49 23.5134C181.9 23.1226 182.216 22.6527 182.415 22.136C182.615 21.6193 182.694 21.068 182.646 20.52V8.6421C182.686 8.08907 182.605 7.53431 182.408 7.0119C182.212 6.48949 181.904 6.01051 181.503 5.60437C181.078 5.23298 180.577 4.94617 180.031 4.7611C179.485 4.57603 178.905 4.49647 178.326 4.52718ZM177.609 9.91316V19.2489C177.611 19.3815 177.586 19.5132 177.534 19.6364C177.481 19.7596 177.404 19.8718 177.305 19.9666C177.207 20.0614 177.089 20.1369 176.959 20.1887C176.83 20.2406 176.691 20.2677 176.55 20.2687H168.389V8.87909H176.497C176.644 8.87197 176.791 8.89377 176.928 8.94307C177.065 8.99233 177.19 9.06802 177.295 9.16528C177.399 9.26255 177.481 9.37928 177.535 9.50803C177.59 9.63679 177.615 9.77476 177.609 9.91316Z" fill="white" fill-opacity="0.5"/>
<path d="M191.524 4.52714C190.941 4.49938 190.357 4.58374 189.81 4.7751C189.262 4.96646 188.762 5.2608 188.339 5.64022C187.937 6.03929 187.626 6.51125 187.424 7.02733C187.223 7.5434 187.134 8.0928 187.165 8.64205V24.6205H192.225V18.4086H201.445V24.6205H206.513V4.52714H191.524ZM201.43 8.879V14.0567H192.21V9.91312C192.208 9.77619 192.235 9.64023 192.29 9.5134C192.345 9.38658 192.426 9.2715 192.529 9.17497C192.632 9.07849 192.755 9.00252 192.89 8.95166C193.025 8.9008 193.169 8.87611 193.315 8.879H201.43Z" fill="white" fill-opacity="0.5"/>
<path d="M216.533 4.5271H211.458V24.6204H216.533V4.5271Z" fill="white" fill-opacity="0.5"/>
<path d="M29.5352 28.5846C45.5375 28.5846 58.5374 22.3153 58.5374 14.581C58.5374 6.84668 45.5527 0.577393 29.5352 0.577393C13.5177 0.577393 0.525391 6.84668 0.525391 14.5738C0.525391 22.3009 13.4796 28.5846 29.5352 28.5846ZM34.9912 21.712C34.5111 22.7605 33.6806 24.9939 31.7679 25.9203C31.1607 26.1849 30.5013 26.3268 29.8324 26.3368C29.6952 26.3368 29.5885 26.3368 29.5428 26.3368C24.6446 26.3719 19.7671 25.7332 15.0646 24.441L14.8969 24.3835C14.5159 24.2614 14.3178 24.0962 14.3178 23.888C14.3227 23.8025 14.3462 23.7188 14.3869 23.6422C14.4275 23.5656 14.4844 23.4977 14.5541 23.4427L14.8207 23.2273C15.7656 22.4661 18.6537 20.484 24.1478 18.5307C26.3728 17.6787 28.666 16.9943 31.0059 16.4841C32.4156 16.1752 37.864 15.3853 34.9912 21.7049V21.712ZM49.6523 7.59355C49.6951 7.50308 49.7627 7.42523 49.8488 7.36826C49.9344 7.31135 50.0351 7.27752 50.1402 7.2704C50.3572 7.26664 50.5698 7.33246 50.742 7.45708C54.1484 9.43196 56.1678 11.8952 56.1678 14.5666C56.1678 19.3996 49.5837 23.5433 40.1653 25.3386C39.5633 25.4535 39.1594 25.4463 39.0222 25.3386C38.8851 25.2309 38.9003 25.0945 39.0222 24.9077C39.0938 24.7898 39.1781 24.6791 39.2737 24.5774C44.402 18.8826 48.3036 10.4804 49.4163 8.06032C49.5 7.86643 49.5837 7.70128 49.6523 7.59355ZM24.1478 7.41403C24.6278 6.35838 25.4585 4.10342 27.3711 3.20576C27.978 2.94012 28.6375 2.79819 29.3066 2.78924C29.4514 2.78924 29.5581 2.78924 29.5962 2.78924C34.4943 2.7556 39.3715 3.39426 44.0744 4.68511L44.2268 4.74256C44.6154 4.86465 44.8136 5.02981 44.8136 5.23806C44.8095 5.3227 44.7863 5.40556 44.7456 5.48111C44.7048 5.55666 44.6475 5.62313 44.5773 5.67615L44.3106 5.89877C43.4038 6.65996 40.5006 8.63483 35.0369 10.6312C32.8122 11.4858 30.5189 12.1726 28.1788 12.6851C26.7386 12.9508 21.275 13.7336 24.1478 7.41403ZM18.8975 3.78027C19.5071 3.67254 19.9034 3.67254 20.0481 3.78027C20.0954 3.84328 20.1207 3.91855 20.1207 3.99571C20.1207 4.07286 20.0954 4.14812 20.0481 4.21114C19.9702 4.32686 19.8836 4.43725 19.789 4.54149C14.6607 10.2722 10.7592 18.6815 9.66954 21.1088C9.58572 21.274 9.50189 21.4391 9.4333 21.5469C9.39185 21.6387 9.32442 21.718 9.23846 21.7763C9.1525 21.8345 9.05121 21.8694 8.94564 21.8772C8.72896 21.8772 8.51797 21.8118 8.34362 21.6905C4.93744 19.7156 2.91811 17.2452 2.91811 14.5738C2.89525 9.74794 9.47903 5.60431 18.8975 3.78027Z" fill="white" fill-opacity="0.5"/>
</g>
</g>
<defs>
<clipPath id="clip0_1789_1035">
<rect width="216" height="28" fill="white" transform="translate(0.525391 0.577393)"/>
</clipPath>
</defs>
</svg>
